<?xml version="1.0" encoding="utf-8"?>
<!-- Generator: Adobe Illustrator 25.0.0, SVG Export Plug-In . SVG Version: 6.00 Build 0)  -->
<svg version="1.1" id="Layer_1" xmlns="http://www.w3.org/2000/svg" xmlns:xlink="http://www.w3.org/1999/xlink" x="0px" y="0px"
	 viewBox="0 0 1920 1080" enable-background="new 0 0 1920 1080" xml:space="preserve">
<g transform="matrix(1,0,0,1,247.096,-271.858)">
	<path fill-rule="evenodd" clip-rule="evenodd" fill="#8446D2" d="M714.16,315.57c124.48,0,225.55,101.06,225.55,225.55
		c0,124.48-101.06,225.55-225.55,225.55S488.62,665.6,488.62,541.12C488.62,416.63,589.68,315.57,714.16,315.57z M668.04,606.58
		l-8.39-14.51c-3-5.18-8.52-8.39-14.51-8.41c-5.99-0.03-11.54,3.12-14.58,8.28l-49.78,84.3c-4.21,7.13-2.62,16.25,3.76,21.54
		c35.2,29.17,80.38,46.71,129.62,46.71c0.07,0,0.14,0,0.21,0l4.28-0.05c5.98-0.08,11.47-3.31,14.43-8.51
		c2.96-5.2,2.94-11.57-0.05-16.75l-64.38-111.58c-0.11-0.18-0.22-0.37-0.33-0.55L668.04,606.58z M893.52,636.98
		c2.8-5.22,2.65-11.53-0.4-16.61c-3.04-5.08-8.53-8.19-14.45-8.19H744.64c-0.64,0-1.27,0.04-1.91,0.11
		c-0.24,0.03-0.48,0.03-0.73,0.03h-15.98c-6.02,0-11.58,3.21-14.59,8.42s-3.01,11.63,0,16.84l50.61,87.72
		c4.06,7.04,12.58,10.18,20.23,7.45C830.16,715.73,869.8,681.26,893.52,636.98z M529.13,500.63c-8.48,0-15.64,6.31-16.71,14.72
		c-1.07,8.43-1.62,17.03-1.62,25.76c0,39.93,11.54,77.19,31.46,108.63c3.14,4.95,8.63,7.92,14.49,7.83
		c5.86-0.09,11.26-3.22,14.24-8.27l72.84-123.25c3.08-5.21,3.13-11.66,0.13-16.92c-3-5.25-8.58-8.5-14.63-8.5H529.13z
		 M693.96,500.86c-5.96,0-11.48,3.15-14.5,8.28l-10.15,17.19c-0.03,0.05-0.06,0.1-0.09,0.15l-6.11,10.59c-3,5.21-3,11.63,0.01,16.84
		l16.11,27.89c3.01,5.21,8.57,8.42,14.59,8.42h32.1c6.02,0,11.59-3.21,14.59-8.43l7.23-12.53c0.45-0.77,0.83-1.59,1.15-2.42
		c0.12-0.32,0.29-0.63,0.47-0.94c0.04-0.07,0.08-0.14,0.12-0.2l6.9-12.28c2.91-5.19,2.88-11.52-0.1-16.67l-15.85-27.46
		c-3.01-5.21-8.57-8.42-14.59-8.42H693.96z M881.35,425.38c-3.31-4.77-8.84-7.5-14.64-7.22c-5.8,0.28-11.04,3.52-13.89,8.58
		L786.22,545.3c-0.63,1.12-1.13,2.32-1.49,3.56c-0.22,0.76-0.54,1.5-0.95,2.2c-0.01,0.02-0.02,0.04-0.03,0.06l-7.92,13.7
		c-3.01,5.21-3.02,11.64-0.01,16.85c3.01,5.21,8.57,8.43,14.59,8.43h107.5c8.18,0,15.19-5.88,16.59-13.95
		c1.99-11.38,3.02-23.08,3.02-35.03C917.53,498.13,904.16,458.24,881.35,425.38z M841.94,401.09c4.11-7.31,2.21-16.54-4.45-21.63
		c-34.22-26.16-76.97-41.7-123.32-41.7c-6.74,0-13.4,0.33-19.96,0.98c-5.7,0.56-10.72,3.99-13.33,9.08
		c-2.61,5.1-2.45,11.17,0.42,16.13l67.67,116.75c0.49,0.85,1.05,1.65,1.68,2.4c0.34,0.4,0.64,0.84,0.91,1.3l7.31,12.65
		c3.03,5.24,8.64,8.45,14.69,8.41c6.05-0.04,11.62-3.32,14.58-8.59L841.94,401.09z M654.42,361.57c-4.29-7.4-13.45-10.41-21.29-6.99
		c-45.26,19.69-81.98,55.39-102.98,99.93c-2.46,5.22-2.08,11.33,1.01,16.2c3.09,4.87,8.46,7.82,14.23,7.82h147.64
		c6.02,0,11.59-3.22,14.6-8.44s3-11.65-0.03-16.86L654.42,361.57z"/>
</g>
<g transform="matrix(1,0,0,1,-272.479,-270.523)">
	<path fill-rule="evenodd" clip-rule="evenodd" fill="#F73F00" d="M1816.11,314.23c124.49,0,225.55,101.07,225.55,225.55
		s-101.07,225.55-225.55,225.55s-225.55-101.07-225.55-225.55S1691.62,314.23,1816.11,314.23z M1807.05,733.86
		c2.8,5.44,8.46,9.14,14.99,9.14l0.52-0.01c12.52-0.38,24.76-1.91,36.6-4.46c5.25-1.13,9.64-4.69,11.83-9.59
		c2.19-4.9,1.92-10.55-0.74-15.21l-103.53-181.82c-2.97-5.22-8.51-8.47-14.52-8.51c-6.01-0.04-11.59,3.12-14.64,8.3l-18.48,31.42
		c-3.07,5.21-3.1,11.67-0.1,16.91L1807.05,733.86z M1745.53,730.53c6.65,2.46,14.12,0.5,18.7-4.91c4.58-5.41,5.29-13.1,1.77-19.25
		l-50.26-87.87c-2.98-5.21-8.51-8.45-14.52-8.48c-6.01-0.04-11.58,3.13-14.62,8.3l-22.73,38.64c-3.75,6.37-2.9,14.44,2.08,19.9
		C1687.62,700.6,1714.83,719.17,1745.53,730.53z M1943.5,698.22c6.48-5.22,8.18-14.38,4-21.57l-132.14-227.66
		c-3.01-5.18-8.53-8.37-14.52-8.39c-5.99-0.02-11.53,3.14-14.57,8.3l-16.15,27.46c-3.06,5.2-3.1,11.64-0.12,16.88l123.58,217.02
		c4.6,8.08,14.88,10.9,22.97,6.31C1926.03,711.17,1935.04,705.03,1943.5,698.22z M1999.45,607.63l-135.33-241.11
		c-2.95-5.26-8.49-8.54-14.52-8.6c-6.03-0.06-11.63,3.11-14.69,8.3l-16.24,27.61c-3.08,5.24-3.1,11.74-0.05,17l138.95,239.51
		c2.93,5.05,8.26,8.22,14.1,8.39c5.83,0.16,11.34-2.7,14.55-7.58c5.6-8.51,10.57-17.46,14.82-26.8c2.42-5.32,1.91-11.51-1.34-16.36
		L1999.45,607.63z M1647.15,498.58c-3.51-6.14-10.48-9.43-17.46-8.24c-6.97,1.19-12.46,6.61-13.74,13.56
		c-2.14,11.63-3.22,23.63-3.22,35.88c0,29.62,6.35,57.76,17.8,83.12c2.59,5.74,8.16,9.55,14.45,9.89
		c6.29,0.34,12.23-2.85,15.43-8.28l24.85-42.24c3.06-5.21,3.1-11.66,0.1-16.91L1647.15,498.58z M1927.64,369.79
		c-6.49-4.26-15.06-3.54-20.74,1.76c-5.68,5.3-7,13.79-3.2,20.56l84.09,149.82c3.8,6.77,11.73,10.07,19.21,7.98
		c7.48-2.08,12.56-9,12.32-16.76C2017.16,464.84,1981.23,404.99,1927.64,369.79z M1694.17,404.52c-2.65-4.66-7.36-7.78-12.69-8.4
		c-5.32-0.62-10.62,1.33-14.28,5.25c-8.55,9.18-16.27,19.16-22.98,29.82c-3.3,5.24-3.46,11.86-0.42,17.26l12.29,21.77
		c0.02,0.03,0.03,0.06,0.05,0.09l32.43,56.63c2.98,5.21,8.52,8.44,14.52,8.47c6,0.03,11.57-3.13,14.62-8.3l18.57-31.57
		c3.06-5.2,3.1-11.64,0.12-16.88L1694.17,404.52z M1762.41,357.77c-4.18-7.2-12.99-10.27-20.73-7.22
		c-9.14,3.59-17.95,7.83-26.39,12.67c-8.05,4.62-10.85,14.88-6.25,22.95l30.65,53.83c2.98,5.22,8.51,8.47,14.52,8.51
		c6.01,0.04,11.59-3.12,14.64-8.3l15.86-26.96c3.08-5.24,3.1-11.74,0.05-17L1762.41,357.77z"/>
</g>
<g transform="matrix(1,0,0,1,-256.453,235.91)">
	<path fill-rule="evenodd" clip-rule="evenodd" fill="#2AA4DC" d="M659.9-189.41c0.65,0.19,1.31,0.35,1.97,0.46
		c106.3,18.15,187.31,110.84,187.31,222.3c0,124.48-101.06,225.55-225.55,225.55S398.09,157.83,398.09,33.35
		S499.15-192.2,623.64-192.2c10.84,0,21.5,0.77,31.95,2.27c0.65,0.09,1.31,0.15,1.97,0.17C658.34-189.75,659.13-189.64,659.9-189.41
		z M806.07,123.23c2.58-5.22,2.28-11.41-0.8-16.35c-3.07-4.95-8.49-7.95-14.31-7.95H551.38c-6.02,0-11.59,3.21-14.59,8.43
		c-3.01,5.22-3,11.64,0.01,16.86l60.02,103.69c2.81,4.85,7.84,7.98,13.43,8.37c4.43,0.3,8.9,0.45,13.39,0.45
		C703.61,236.72,772.88,190.46,806.07,123.23z M624.43-144.22c3.13-5.4,3.02-12.09-0.3-17.38c-3.31-5.29-9.28-8.32-15.51-7.86
		c-105.23,7.69-188.35,95.62-188.35,202.82c0,76.78,42.64,143.68,105.52,178.28c6.63,3.65,14.87,2.43,20.16-2.98
		c5.29-5.41,6.33-13.68,2.54-20.22l-54.98-94.97c-0.01-0.02-0.03-0.05-0.04-0.07c-2.33-3.98-1.76-8.86,0.91-12.29
		c0.48-0.61,0.91-1.26,1.3-1.93l62.15-107.65c0.51-0.88,0.94-1.8,1.28-2.76c0.16-0.44,0.37-0.86,0.62-1.28
		c0.01-0.02,0.03-0.04,0.04-0.07L624.43-144.22z M675.31-163.37c-7.34-1.92-15.05,1.29-18.85,7.85L587.13-35.84
		c-3.02,5.22-3.03,11.65-0.01,16.87l50.46,87.39c3.01,5.21,8.57,8.42,14.59,8.42h154.97l0.26,0.01c8.68,0.44,16.28-5.8,17.53-14.41
		c1.38-9.5,2.09-19.22,2.09-29.1C827.01-61.04,762.56-140.49,675.31-163.37z M537.16,51.57c-3.01,5.21-3.01,11.64,0,16.85
		c3.01,5.21,8.57,8.43,14.59,8.43h36.08c6.02,0,11.58-3.21,14.59-8.42c3.01-5.21,3.01-11.63,0.01-16.84c0,0-14.6-25.31-17.52-30.38
		c-4.27-7.41-10.18-8.57-10.18-8.57c-7.5-2.29-15.58,0.9-19.5,7.69L537.16,51.57z"/>
</g>
<g transform="matrix(1,0,0,1,247.096,-271.858)">
	<path fill-rule="evenodd" clip-rule="evenodd" fill="#8446D2" d="M884.84,1308.86H541.81c-20.41,0-37.03-16.63-37.03-37.03V928.89
		c0-20.41,16.63-37.03,37.03-37.03h343.03c20.41,0,37.03,16.63,37.03,37.03v343.03C921.78,1292.23,905.16,1308.86,884.84,1308.86z
		 M674.85,1157.33l-7.33-12.68c-2.83-4.9-8.06-7.91-13.72-7.91c-5.66,0-10.88,3.03-13.71,7.93l-68.99,119.69
		c-2.82,4.9-2.82,10.93,0.01,15.83c2.83,4.9,8.05,7.91,13.71,7.91h138.1c5.66,0,10.88-3.02,13.71-7.91c2.83-4.9,2.83-10.93,0-15.83
		l-61.2-106.08c-0.1-0.17-0.2-0.35-0.31-0.52L674.85,1157.33z M901.02,1178.43c0-8.74-7.09-15.83-15.83-15.83H746.84
		c-0.6,0-1.2,0.03-1.79,0.1c-0.23,0.03-0.45,0.03-0.68,0.03h-15.02c-5.66,0-10.88,3.02-13.71,7.91c-2.83,4.9-2.83,10.93,0,15.83
		l54.07,93.7c2.83,4.9,8.06,7.92,13.71,7.92h101.42c8.97,0,16.18-7.3,16.18-16.18V1178.43z M652.41,1081.52
		c2.83-4.9,2.83-10.93,0.01-15.84s-8.05-7.92-13.71-7.92h-97.24c-8.74,0-15.83,7.09-15.83,15.83v168.83
		c0,7.17,4.81,13.44,11.74,15.29c6.92,1.85,14.23-1.17,17.81-7.38l88.32-153.11c0.31-0.53,0.58-1.08,0.83-1.64
		c0.1-0.24,0.23-0.47,0.36-0.7c0.01-0.02,0.02-0.04,0.03-0.05L652.41,1081.52z M699.22,1057.97c-5.66,0-10.89,3.02-13.72,7.93
		l-15.17,26.32c-2.82,4.9-2.82,10.93,0.01,15.82l15.02,26.01c2.83,4.9,8.05,7.92,13.71,7.92h30.17c5.66,0,10.89-3.02,13.72-7.92
		l6.81-11.8c0.42-0.73,0.78-1.49,1.08-2.27c0.12-0.32,0.28-0.62,0.46-0.92c0.01-0.02,0.03-0.05,0.04-0.07l6.52-11.28
		c2.83-4.9,2.83-10.94,0-15.84l-14.99-25.97c-2.83-4.9-8.05-7.92-13.71-7.92H699.22z M776.16,1118.08
		c-2.83,4.9-2.83,10.94-0.01,15.84c2.83,4.9,8.05,7.92,13.71,7.92h95.32c8.74,0,15.83-7.09,15.83-15.83V960.46
		c0-7.16-4.81-13.44-11.73-15.29c-6.92-1.86-14.22,1.17-17.81,7.37l-86.16,149.08c-0.42,0.74-0.79,1.5-1.09,2.3
		c-0.16,0.43-0.36,0.84-0.6,1.24c-0.01,0.02-0.02,0.04-0.03,0.05L776.16,1118.08z M760.74,1055.28c2.83,4.89,8.05,7.91,13.71,7.91
		c5.65,0,10.88-3.02,13.71-7.91l68.67-118.82c2.83-4.9,2.83-10.93,0.01-15.83c-2.83-4.9-8.06-7.92-13.71-7.92H705.17
		c-5.66,0-10.89,3.02-13.72,7.93c-2.83,4.91-2.82,10.95,0.02,15.84l59.44,102.54c0.46,0.8,0.99,1.55,1.58,2.25
		c0.32,0.38,0.6,0.79,0.85,1.22L760.74,1055.28z M658.3,920.59c-2.83-4.88-8.05-7.89-13.7-7.89h-102.8
		c-8.97,0-16.18,7.3-16.18,16.18v92.28c0,8.74,7.09,15.83,15.83,15.83h156.87c5.66,0,10.89-3.02,13.72-7.93
		c2.83-4.91,2.82-10.95-0.02-15.85L658.3,920.59z"/>
</g>
<g transform="matrix(1,0,0,1,-272.479,-270.523)">
	<path fill-rule="evenodd" clip-rule="evenodd" fill="#F73F00" d="M1987.58,1307.49h-342.94c-20.39,0-37-16.61-37-37V927.55
		c0-20.39,16.61-37,37-37h342.94c20.39,0,37,16.61,37,37v342.94C2024.49,1290.88,2007.88,1307.49,1987.58,1307.49z M1753,1286.71
		c5.66,0,10.89-3.02,13.72-7.93c2.83-4.9,2.82-10.94-0.02-15.84l-57.7-99.64c-2.83-4.89-8.05-7.9-13.7-7.9
		c-5.65,0-10.87,3.01-13.7,7.9l-51.05,88.16c-1.4,2.41-2.13,5.15-2.13,7.93v11.1c0,8.99,7.31,16.21,16.21,16.21H1753z
		 M1711.83,1111.09c-2.84,4.91-2.84,10.96,0,15.87l87.94,151.85c2.83,4.89,8.05,7.9,13.7,7.9h30.65c5.66,0,10.89-3.02,13.72-7.92
		c2.83-4.9,2.82-10.94-0.02-15.84l-103.26-178.33c-2.83-4.89-8.05-7.9-13.7-7.9c-5.65,0-10.87,3.01-13.7,7.9L1711.83,1111.09z
		 M1757.4,1032.39c-2.84,4.91-2.84,10.96,0,15.87l133.5,230.55c2.83,4.89,8.05,7.9,13.7,7.9h30.73c5.66,0,10.89-3.02,13.72-7.93
		c2.83-4.9,2.82-10.94-0.02-15.84l-148.89-257.04c-2.83-4.89-8.05-7.9-13.7-7.9c-5.65,0-10.87,3.01-13.7,7.9L1757.4,1032.39z
		 M1802.96,953.7c-2.84,4.91-2.84,10.96,0,15.87l171.29,295.82c3.59,6.2,10.89,9.21,17.81,7.36c6.92-1.86,11.72-8.13,11.72-15.29
		v-53.12c0-2.79-0.74-5.52-2.13-7.93l-155.93-269.25c-2.83-4.89-8.05-7.9-13.7-7.9c-5.65,0-10.87,3.01-13.7,7.9L1802.96,953.7z
		 M1628.42,1154.96c0,7.16,4.81,13.43,11.72,15.29c6.92,1.86,14.22-1.16,17.81-7.36l20.81-35.93c2.84-4.91,2.84-10.96,0-15.87
		l-20.81-35.93c-3.59-6.2-10.89-9.21-17.81-7.36c-6.92,1.86-11.72,8.13-11.72,15.29V1154.96z M1887.92,911.34
		c-5.66,0-10.89,3.02-13.72,7.93c-2.83,4.9-2.82,10.94,0.02,15.84l100.04,172.75c3.59,6.2,10.89,9.21,17.81,7.36
		c6.92-1.86,11.72-8.13,11.72-15.29V927.55c0-8.99-7.31-16.21-16.21-16.21H1887.92z M1658.81,919.24c-2.83-4.89-8.05-7.9-13.7-7.9
		h-0.47c-8.99,0-16.21,7.31-16.21,16.21v51.12c0,2.79,0.74,5.52,2.13,7.93l51.04,88.13c2.83,4.89,8.05,7.9,13.7,7.9
		c5.65,0,10.87-3.01,13.7-7.9l15.34-26.49c2.84-4.91,2.84-10.96,0-15.87L1658.81,919.24z M1705.58,911.34
		c-5.66,0-10.89,3.02-13.72,7.92c-2.83,4.9-2.82,10.94,0.02,15.84l35.28,60.93c2.83,4.89,8.05,7.9,13.7,7.9s10.87-3.01,13.7-7.9
		l15.33-26.48c2.84-4.91,2.84-10.96,0-15.87l-19.96-34.46c-2.83-4.89-8.05-7.9-13.7-7.9H1705.58z"/>
</g>
<g transform="matrix(1,0,0,1,-256.453,235.91)">
	<path fill-rule="evenodd" clip-rule="evenodd" fill="#2AA5DD" d="M795.18,801.09H452.15c-20.4,0-37.03-16.62-37.03-37.03V421.12
		c0-20.4,16.62-37.03,37.03-37.03h343.03c20.4,0,37.03,16.62,37.03,37.03v343.03C832.12,784.46,815.5,801.09,795.18,801.09z
		 M648.72,428.7c2.84-4.9,2.84-10.94,0.02-15.84c-2.83-4.9-8.06-7.93-13.72-7.93H452.15c-8.97,0-16.19,7.3-16.19,16.19v343.03
		c0,8.97,7.3,16.19,16.19,16.19h122.28c5.66,0,10.89-3.02,13.72-7.92c2.83-4.9,2.82-10.94-0.01-15.84l-61.47-106.19
		c-0.01-0.02-0.03-0.05-0.04-0.07c-2.19-3.74-1.65-8.33,0.86-11.55c0.45-0.58,0.86-1.18,1.22-1.81l58.41-101.17
		c0.48-0.83,0.88-1.69,1.2-2.59c0.15-0.41,0.35-0.81,0.58-1.2c0.01-0.02,0.02-0.04,0.04-0.06L648.72,428.7z M811.37,671.35
		c0-8.74-7.09-15.83-15.83-15.83H581.05c-5.66,0-10.89,3.02-13.72,7.92c-2.83,4.9-2.82,10.94,0.01,15.84l53.92,93.15
		c2.83,4.89,8.05,7.9,13.7,7.9h160.21c8.97,0,16.19-7.3,16.19-16.19V671.35z M567.69,611.01c-2.83,4.9-2.83,10.94,0,15.84
		c2.83,4.9,8.06,7.92,13.71,7.92h33.91c5.66,0,10.88-3.02,13.71-7.91c2.83-4.9,2.83-10.93,0.01-15.83c0,0-13.72-23.79-16.46-28.55
		c-4.02-6.97-9.57-8.06-9.57-8.06c-7.05-2.15-14.64,0.84-18.33,7.22L567.69,611.01z M695.56,404.93c-5.65,0-10.87,3.01-13.7,7.9
		l-67.21,116.03c-2.84,4.9-2.84,10.95-0.01,15.85l47.42,82.13c2.83,4.9,8.06,7.92,13.71,7.92h119.76c8.75,0,15.83-7.09,15.83-15.83
		V421.12c0-8.97-7.3-16.19-16.19-16.19H695.56z"/>
</g>
</svg>
