<svg width="33" height="33" viewBox="0 0 33 33" fill="none" xmlns="http://www.w3.org/2000/svg">
<rect width="32" height="32" transform="translate(0.0849609 0.714966)" fill="#E8DDF1"/>
<path d="M15.6096 29.2174C9.34595 29.2174 4.25049 24.1219 4.25049 17.8583C4.25049 11.5947 9.34595 6.49791 15.6096 6.49791C16.1881 6.49755 16.7658 6.54067 17.3378 6.62691C17.5864 6.16926 17.9121 5.75786 18.3004 5.41075C19.3055 4.508 20.6797 4.07694 22.07 4.22625C25.051 4.54731 26.9858 6.41191 26.8848 8.86612C26.8653 9.36365 26.7255 9.84905 26.4774 10.2807C26.2292 10.7124 25.8801 11.0774 25.4599 11.3446C25.0397 11.6117 24.561 11.773 24.0649 11.8146C23.5687 11.8562 23.0698 11.7768 22.611 11.5833C22.5847 11.572 22.5398 11.5535 22.5113 11.5398C22.1766 11.3815 21.5732 10.9196 21.2435 10.6592C20.5798 10.137 19.8468 9.70958 19.0655 9.38925C19.1791 9.94663 19.4594 10.4563 19.8693 10.8508C19.8788 10.86 19.8883 10.8695 19.8975 10.8792C20.003 10.9893 20.5737 11.491 21.0401 11.8928C21.0493 11.9007 21.0583 11.9086 21.0664 11.9168C22.4444 13.1857 23.3395 14.8933 23.599 16.7485H25.8599C26.1537 16.7485 26.4355 16.8652 26.6433 17.073C26.8511 17.2808 26.9678 17.5626 26.9678 17.8565C26.9686 24.1219 21.8732 29.2174 15.6096 29.2174ZM15.6096 8.7168C10.569 8.7168 6.46806 12.8177 6.46806 17.8583C6.46806 22.8989 10.569 26.9995 15.6096 26.9995C20.2748 26.9995 24.1351 23.4867 24.6846 18.9671H23.6003C23.0585 22.8926 19.6817 25.925 15.6096 25.925C11.1615 25.925 7.54282 22.3064 7.54282 17.8583C7.54282 13.6619 10.8175 10.1287 14.9975 9.81451C15.1427 9.8036 15.2887 9.82139 15.427 9.86688C15.5653 9.91237 15.6934 9.98466 15.8038 10.0796C15.9142 10.1746 16.0048 10.2904 16.0704 10.4203C16.1361 10.5503 16.1755 10.692 16.1864 10.8372C16.1973 10.9824 16.1795 11.1283 16.134 11.2666C16.0885 11.405 16.0162 11.533 15.9213 11.6434C15.8263 11.7538 15.7105 11.8444 15.5806 11.91C15.4506 11.9757 15.3089 12.0151 15.1637 12.026C12.1341 12.2537 9.76066 14.8155 9.76066 17.8583C9.76066 21.0834 12.3845 23.7072 15.6096 23.7072C18.4555 23.7072 20.833 21.6637 21.3529 18.9671H17.547C17.2529 18.9671 16.9709 18.8503 16.7629 18.6423C16.555 18.4344 16.4382 18.1524 16.4382 17.8583C16.4382 17.5642 16.555 17.2822 16.7629 17.0743C16.9709 16.8663 17.2529 16.7495 17.547 16.7495H21.3516C21.1142 15.5258 20.4932 14.4096 19.5788 13.5624C19.3211 13.3401 18.5516 12.6742 18.3125 12.4323C17.8291 11.9633 17.4452 11.4017 17.184 10.7809C16.9227 10.1601 16.7893 9.49295 16.792 8.81943V8.79041C16.3998 8.74088 16.0049 8.7163 15.6096 8.7168ZM23.4647 9.53461L23.474 9.53857C23.6023 9.5925 23.7417 9.61455 23.8804 9.60283C24.0191 9.5911 24.1529 9.54596 24.2703 9.47126C24.3877 9.39656 24.4853 9.29453 24.5547 9.17389C24.6241 9.05325 24.6632 8.9176 24.6688 8.77854C24.7091 7.79295 23.9852 6.662 21.8325 6.43064C21.0675 6.34806 20.3196 6.57784 19.7822 7.06035C19.7247 7.11206 19.6703 7.16596 19.6189 7.22206C20.6978 7.63076 21.7081 8.20171 22.6147 8.91519C22.9482 9.179 23.3336 9.45995 23.4647 9.53567V9.53461Z" fill="#512475"/>
</svg>
