<?xml version="1.0" encoding="utf-8"?>
<!-- Generator: Adobe Illustrator 25.0.0, SVG Export Plug-In . SVG Version: 6.00 Build 0)  -->
<svg version="1.1" id="Layer_1" xmlns="http://www.w3.org/2000/svg" xmlns:xlink="http://www.w3.org/1999/xlink" x="0px" y="0px"
	 viewBox="0 0 1080 1920" enable-background="new 0 0 1080 1920" xml:space="preserve">
<g>
	<g>
		<path fill-rule="evenodd" clip-rule="evenodd" fill="#DED205" d="M375.83,468.35c-0.59-0.47-0.1-1.32,0.6-1.05
			c23.18,9.03,49.23,10.35,74.07,2.71c3.84-1.18,7.86-1.9,12.03-2.14c28.13-1.6,53.17,20.67,54.67,48.81
			c1.58,29.8-22.16,54.52-51.63,54.52c-24.51,0-45.1-17.07-50.34-40C409.44,505.84,395.26,483.92,375.83,468.35z"/>
	</g>
	<g>
		<path fill-rule="evenodd" clip-rule="evenodd" fill="#DED205" d="M346.18,451.25c-13.5-5.24-28.25-7.98-43.68-7.63
			c-39.9,0.9-76.03,23.93-95.98,58.49l-24.07,41.68c-13.75,23.82-43.73,34.26-68.4,22.09c-27.04-13.34-36.8-46.52-21.97-72.2
			l56.8-98.4c9.01-15.59,41.37-71.64,50.37-87.24l56.41-97.7c13.75-23.82,43.73-34.26,68.39-22.1
			c27.04,13.33,36.8,46.52,21.97,72.21l-26.26,45.5c-23.17,40.12-19.42,90.35,9.46,126.58c5.26,6.61,11.16,12.5,17.56,17.64
			C347.38,450.65,346.88,451.53,346.18,451.25z"/>
	</g>
</g>
<path fill="#F93E00" d="M913.16,401.8c2.31-2.91,4.59-5.78,6.92-8.72c0.39-0.49,1.11-0.53,1.56-0.09c3.82,3.71,8.19,6.38,12.98,8.39
	c6.73,2.83,14.01,3.95,21.31,3.76c4.74-0.12,9.41-0.74,13.83-2.55c7.83-3.21,13.37-8.48,14.61-17.21c0.24-1.66,0.2-3.35,0.14-5.07
	c-0.03-0.97-1.24-1.37-1.86-0.63c-4.95,5.86-13.65,10.44-22.3,11.58c-5.29,0.7-10.74,0.34-15.86-1.18
	c-12.92-3.82-20.23-12.5-22.57-25.36c-0.35-1.95-0.49-3.93-0.5-5.91c-0.04-11.47,0.01-33.88,0.05-38.98c0-0.58,0.47-1.04,1.05-1.04
	h13.05c0.58,0,1.05,0.47,1.05,1.05c-0.01,5.03-0.04,26.66,0.02,37.53c0.04,7.54,2.75,13.82,9.1,18.16c3.3,2.25,7.23,3.36,11.22,3.54
	c9.06,0.4,17.03-1.92,22.79-9.29c3.43-4.4,4.89-10.02,4.9-15.6c0.01-9.88,0-29.59,0-34.37c0-0.58,0.47-1.05,1.05-1.05h13.02
	c0.58,0,1.05,0.46,1.05,1.04c0.01,6.62,0.05,42.75-0.02,61.11c-0.05,12.02-5.8,23.63-16,29.98c-7.81,4.86-16.39,6.66-25.33,7.05
	c-12.11,0.53-23.79-1.26-34.59-6.98c-3.21-1.7-8.01-5.02-10.61-7.82C912.86,402.79,912.83,402.21,913.16,401.8z"/>
<path fill="#F93E00" d="M434.67,341.86L426.1,336c-0.49-0.33-0.6-1-0.27-1.48c0.86-1.24,1.65-2.46,2.59-3.54
	c5.58-6.43,13.11-10.18,21.48-12.49c7.27-2.01,14.83-2.65,22.35-2.14c12.22,0.83,23.43,4.32,29.86,14.77
	c1.69,2.74,2.49,5.94,2.51,9.17c0.06,12.85,0.05,40.03,0.03,45.69c0,0.58-0.47,1.04-1.05,1.04l-11.21,0c-0.52,0-0.96-0.38-1.04-0.89
	c-0.43-2.77-0.86-5.55-1.3-8.37c-0.14-0.89-1.26-1.22-1.84-0.52c-4.5,5.49-15.97,10.6-25.04,11.84c-8.02,1.1-16.09,1.03-23.82-1.71
	c-3.17-1.12-6.32-2.77-8.96-4.84c-8.32-6.55-8.6-18.43-0.9-25.69c5.22-4.92,11.66-7.46,18.5-8.71c7.36-1.34,14.85-1.99,22.3-2.83
	c4.8-0.55,9.64-0.73,14.44-1.31c2.2-0.27,4.1-1.2,4.88-3.46c0.79-2.31-0.13-4.3-1.72-6c-3.15-3.36-7.3-4.81-11.65-5.59
	c-10.98-1.98-21.48-0.61-31.29,4.93c-3.43,1.94-6.44,4.33-8.8,7.69C435.81,342.06,435.16,342.19,434.67,341.86z M489.43,355.29
	c-0.04-0.58-0.57-1-1.14-0.95c-4.29,0.37-8.48,0.7-12.66,1.12c-7.31,0.74-14.64,1.4-21.92,2.38c-4.06,0.55-8.02,1.72-11.39,4.26
	c-4.08,3.07-4.22,8.56-0.15,11.64c1.49,1.13,3.26,2.05,5.04,2.58c7.39,2.19,14.9,1.88,22.4,0.21c4.86-1.08,9.47-3.2,13.22-6.47
	C487.31,366.13,489.84,361.37,489.43,355.29z"/>
<path fill="#F93E00" d="M712.9,319.68l11.14-0.85c0.55-0.04,1.04,0.34,1.12,0.89l1.35,8.73c0.14,0.92,1.31,1.21,1.88,0.47
	c2.9-3.8,10.34-11.46,24.95-12.53c5.79-0.58,11.57-0.32,17.27,1.32c10.76,3.1,18.43,12.61,19.36,23.76
	c0.18,2.12,0.25,4.25,0.24,6.38c-0.03,11.09-0.13,33.05-0.15,38.11c0,0.58-0.47,1.04-1.05,1.04h-12.99c-0.58,0-1.05-0.47-1.05-1.05
	c0-5.04,0.01-26.77,0-37.69c-0.01-7.17-2.5-13.17-8.92-16.82c-2.47-1.41-5.4-2.33-8.22-2.75c-6.37-0.94-12.77-0.15-18.77,2.87
	c-7.51,3.78-12.09,11.67-12.12,20.08c-0.03,9.89-0.01,29.53-0.01,34.3c0,0.58-0.47,1.05-1.05,1.05h-12.88
	c-0.58,0-1.05-0.47-1.05-1.05v-65.21C711.93,320.18,712.35,319.72,712.9,319.68z"/>
<path fill="#F93E00" d="M657.66,306.57c-3.18-5.75-7.98-8.86-14.72-9.31c-8.3-0.55-15.65,5.74-16.19,14.04
	c-0.14,2.07-0.08,4.13-0.06,6.29c0.01,0.58,0.47,1.05,1.05,1.05h33.11c0.58,0,1.05,0.47,1.05,1.05v9.37c0,0.58-0.47,1.05-1.05,1.05
	h-33c-0.58,0-1.05,0.47-1.05,1.05v54.76c0,0.58-0.47,1.05-1.05,1.05h-13.01c-0.58,0-1.05-0.47-1.05-1.05v-54.69
	c0-0.58-0.47-1.05-1.05-1.05h-16.88c-0.58,0-1.05-0.47-1.05-1.05v-9.32c0-0.58,0.47-1.05,1.05-1.05h16.83
	c0.58,0,1.06-0.48,1.05-1.06c-0.02-2.22-0.09-4.29,0.04-6.35c0.17-2.68,0.29-5.41,0.94-7.99c2.25-8.93,8.27-14.41,16.91-16.86
	c7.83-2.22,15.77-2.26,23.53,0.64c5.71,2.13,10.22,5.79,13.4,11.02c0.32,0.52,0.59,1.07,0.88,1.64c0.23,0.46,0.1,1.02-0.31,1.33
	c-2.61,1.94-5.16,3.85-7.79,5.81C658.69,307.33,657.99,307.17,657.66,306.57z"/>
<path fill="#F93E00" d="M578.38,306.57c-3.18-5.75-7.98-8.86-14.72-9.31c-8.3-0.55-15.65,5.74-16.19,14.04
	c-0.14,2.07-0.08,4.13-0.06,6.29c0.01,0.58,0.47,1.05,1.05,1.05h33.11c0.58,0,1.05,0.47,1.05,1.05v9.37c0,0.58-0.47,1.05-1.05,1.05
	h-33c-0.58,0-1.05,0.47-1.05,1.05v54.76c0,0.58-0.47,1.05-1.05,1.05h-13.01c-0.58,0-1.05-0.47-1.05-1.05v-54.69
	c0-0.58-0.47-1.05-1.05-1.05h-16.88c-0.58,0-1.05-0.47-1.05-1.05v-9.32c0-0.58,0.47-1.05,1.05-1.05h16.83
	c0.58,0,1.06-0.48,1.05-1.06c-0.02-2.22-0.09-4.29,0.04-6.35c0.17-2.68,0.29-5.41,0.94-7.99c2.25-8.93,8.27-14.41,16.91-16.86
	c7.83-2.22,15.77-2.26,23.53,0.64c5.71,2.13,10.22,5.79,13.4,11.02c0.32,0.52,0.59,1.07,0.88,1.64c0.23,0.46,0.1,1.02-0.31,1.33
	c-2.61,1.94-5.16,3.85-7.79,5.81C579.41,307.33,578.71,307.17,578.38,306.57z"/>
<path fill="#F93E00" d="M693.51,387.03h-12.76c-0.58,0-1.05-0.47-1.05-1.05v-66.1c0-0.58,0.47-1.05,1.05-1.05h12.76
	c0.58,0,1.05,0.47,1.05,1.05v66.1C694.56,386.56,694.09,387.03,693.51,387.03z"/>
<path fill="#F93E00" d="M821.25,387.06h-12.78c-0.58,0-1.05-0.47-1.05-1.05v-66.15c0-0.58,0.47-1.05,1.05-1.05h12.78
	c0.58,0,1.05,0.47,1.05,1.05v66.15C822.31,386.59,821.84,387.06,821.25,387.06z"/>
<path fill="#F93E00" d="M697.22,297.22c0,2.86-0.96,5.24-2.65,6.93c-1.78,1.78-4.36,2.78-7.49,2.76c-2.94-0.02-5.38-0.99-7.09-2.69
	c-1.71-1.69-2.69-4.1-2.69-7c0-2.53,0.74-4.68,2.08-6.28c1.72-2.06,4.42-3.24,7.79-3.24c3.07,0,5.59,0.93,7.34,2.58
	C696.24,291.93,697.22,294.31,697.22,297.22z"/>
<path fill="#F93E00" d="M814.92,287.7c6.13,0.01,10.04,3.74,10.02,9.56c-0.02,5.86-4.08,9.71-10.18,9.65
	c-5.85-0.06-9.78-3.97-9.77-9.72C805.01,291.44,808.93,287.69,814.92,287.7z"/>
<path fill="#F93E00" d="M909.82,370.39c-1.68-1.15-5.77-3.94-7.71-5.25c-0.55-0.37-1.27-0.14-1.54,0.46
	c-3.24,7.21-8.57,11.51-16.76,11.89c-5.61,0.26-10.51-1.39-13.07-6.74c-1.17-2.44-1.71-5.38-1.76-8.11
	c-0.2-10.16-0.08-20.32-0.08-30.49c0-0.32,0.02-0.65,0.04-1c0.03-0.56,0.49-0.99,1.05-0.99l34.74,0c0.58,0,1.05-0.47,1.05-1.05
	v-9.42c0-0.58-0.47-1.05-1.05-1.05h-34.78c-0.58,0-1.05-0.47-1.05-1.05v-21.32c0-0.67-0.62-1.17-1.28-1.03l-13.2,2.92
	c-0.48,0.11-0.82,0.53-0.82,1.03v18.51c0,0.58-0.47,1.05-1.05,1.05h-16.59c-0.58,0-1.05,0.47-1.05,1.05v9.35
	c0,0.58,0.47,1.05,1.05,1.05h16.85c0.58,0,1.06,0.48,1.05,1.06c0,1.01,0,1.92,0,2.84c0.03,11.17-0.27,22.36,0.18,33.51
	c0.38,9.61,5.4,16.66,14.51,20c9.83,3.61,19.69,3.04,29.03-1.92c4.18-2.22,7.54-5.29,10.01-9.18c0.01-0.02,0.03-0.03,0.04-0.05
	c0.67-1,1.92-3.46,2.56-4.75C910.4,371.25,910.25,370.69,909.82,370.39z"/>
<g>
	<path fill-rule="evenodd" clip-rule="evenodd" fill="#F93E00" d="M375.83,1051.25c-0.59-0.47-0.1-1.32,0.6-1.05
		c23.18,9.03,49.23,10.35,74.07,2.71c3.84-1.18,7.86-1.9,12.03-2.14c28.13-1.6,53.17,20.67,54.67,48.81
		c1.58,29.8-22.16,54.52-51.63,54.52c-24.51,0-45.1-17.07-50.34-40C409.44,1088.74,395.26,1066.82,375.83,1051.25z"/>
	<path fill-rule="evenodd" clip-rule="evenodd" fill="#F93E00" d="M346.18,1034.15c-13.5-5.24-28.25-7.98-43.68-7.63
		c-39.9,0.9-76.03,23.93-95.98,58.49l-24.07,41.68c-13.75,23.82-43.73,34.26-68.4,22.09c-27.04-13.34-36.8-46.52-21.97-72.2
		l56.8-98.4c9.01-15.59,41.37-71.64,50.37-87.24l56.41-97.7c13.75-23.82,43.73-34.26,68.39-22.1c27.04,13.33,36.8,46.52,21.97,72.21
		l-26.26,45.5c-23.17,40.12-19.42,90.35,9.46,126.58c5.26,6.61,11.16,12.5,17.56,17.64
		C347.38,1033.55,346.88,1034.42,346.18,1034.15z"/>
</g>
<path fill="#F6BBBF" d="M913.16,984.7c2.31-2.91,4.59-5.78,6.92-8.72c0.39-0.49,1.11-0.53,1.56-0.09c3.82,3.71,8.19,6.38,12.98,8.39
	c6.73,2.83,14.01,3.95,21.31,3.76c4.74-0.12,9.41-0.74,13.83-2.55c7.83-3.21,13.37-8.48,14.61-17.21c0.24-1.66,0.2-3.35,0.14-5.07
	c-0.03-0.97-1.24-1.37-1.86-0.63c-4.95,5.86-13.65,10.44-22.3,11.58c-5.29,0.7-10.74,0.34-15.86-1.18
	c-12.92-3.82-20.23-12.5-22.57-25.36c-0.35-1.95-0.49-3.93-0.5-5.91c-0.04-11.47,0.01-33.88,0.05-38.98c0-0.58,0.47-1.04,1.05-1.04
	h13.05c0.58,0,1.05,0.47,1.05,1.05c-0.01,5.03-0.04,26.66,0.02,37.53c0.04,7.54,2.75,13.82,9.1,18.16c3.3,2.25,7.23,3.36,11.22,3.54
	c9.06,0.4,17.03-1.92,22.79-9.29c3.43-4.4,4.89-10.02,4.9-15.6c0.01-9.88,0-29.59,0-34.37c0-0.58,0.47-1.05,1.05-1.05h13.02
	c0.58,0,1.05,0.46,1.05,1.04c0.01,6.62,0.05,42.75-0.02,61.11c-0.05,12.02-5.8,23.63-16,29.98c-7.81,4.86-16.39,6.66-25.33,7.05
	c-12.11,0.53-23.79-1.26-34.59-6.98c-3.21-1.7-8.01-5.02-10.61-7.82C912.86,985.69,912.83,985.11,913.16,984.7z"/>
<path fill="#F6BBBF" d="M434.67,924.76l-8.58-5.86c-0.49-0.33-0.6-1-0.27-1.48c0.86-1.24,1.65-2.46,2.59-3.54
	c5.58-6.43,13.11-10.18,21.48-12.49c7.27-2.01,14.83-2.65,22.35-2.14c12.22,0.83,23.43,4.32,29.86,14.77
	c1.69,2.74,2.49,5.94,2.51,9.17c0.06,12.85,0.05,40.03,0.03,45.69c0,0.58-0.47,1.04-1.05,1.04l-11.21,0c-0.52,0-0.96-0.38-1.04-0.89
	c-0.43-2.77-0.86-5.55-1.3-8.37c-0.14-0.89-1.26-1.22-1.84-0.52c-4.5,5.49-15.97,10.6-25.04,11.84c-8.02,1.1-16.09,1.03-23.82-1.71
	c-3.17-1.12-6.32-2.77-8.96-4.84c-8.32-6.55-8.6-18.43-0.9-25.69c5.22-4.92,11.66-7.46,18.5-8.71c7.36-1.34,14.85-1.99,22.3-2.83
	c4.8-0.55,9.64-0.73,14.44-1.31c2.2-0.27,4.1-1.2,4.88-3.46c0.79-2.31-0.13-4.3-1.72-6c-3.15-3.36-7.3-4.81-11.65-5.59
	c-10.98-1.98-21.48-0.61-31.29,4.93c-3.43,1.94-6.44,4.33-8.8,7.69C435.81,924.95,435.16,925.09,434.67,924.76z M489.43,938.19
	c-0.04-0.58-0.57-1-1.14-0.95c-4.29,0.37-8.48,0.7-12.66,1.12c-7.31,0.74-14.64,1.4-21.92,2.38c-4.06,0.55-8.02,1.72-11.39,4.26
	c-4.08,3.07-4.22,8.56-0.15,11.64c1.49,1.13,3.26,2.05,5.04,2.58c7.39,2.19,14.9,1.88,22.4,0.21c4.86-1.08,9.47-3.2,13.22-6.47
	C487.31,949.03,489.84,944.27,489.43,938.19z"/>
<path fill="#F6BBBF" d="M712.9,902.58l11.14-0.85c0.55-0.04,1.04,0.34,1.12,0.89l1.35,8.73c0.14,0.92,1.31,1.21,1.88,0.47
	c2.9-3.8,10.34-11.46,24.95-12.53c5.79-0.58,11.57-0.32,17.27,1.32c10.76,3.1,18.43,12.61,19.36,23.76
	c0.18,2.12,0.25,4.25,0.24,6.38c-0.03,11.09-0.13,33.05-0.15,38.11c0,0.58-0.47,1.04-1.05,1.04h-12.99c-0.58,0-1.05-0.47-1.05-1.05
	c0-5.04,0.01-26.77,0-37.69c-0.01-7.17-2.5-13.17-8.92-16.82c-2.47-1.41-5.4-2.33-8.22-2.75c-6.37-0.94-12.77-0.15-18.77,2.87
	c-7.51,3.78-12.09,11.67-12.12,20.08c-0.03,9.89-0.01,29.53-0.01,34.3c0,0.58-0.47,1.05-1.05,1.05h-12.88
	c-0.58,0-1.05-0.47-1.05-1.05v-65.21C711.93,903.08,712.35,902.62,712.9,902.58z"/>
<path fill="#F6BBBF" d="M657.66,889.47c-3.18-5.75-7.98-8.86-14.72-9.31c-8.3-0.55-15.65,5.74-16.19,14.04
	c-0.14,2.07-0.08,4.13-0.06,6.29c0.01,0.58,0.47,1.05,1.05,1.05h33.11c0.58,0,1.05,0.47,1.05,1.05v9.37c0,0.58-0.47,1.05-1.05,1.05
	h-33c-0.58,0-1.05,0.47-1.05,1.05v54.76c0,0.58-0.47,1.05-1.05,1.05h-13.01c-0.58,0-1.05-0.47-1.05-1.05v-54.69
	c0-0.58-0.47-1.05-1.05-1.05h-16.88c-0.58,0-1.05-0.47-1.05-1.05v-9.32c0-0.58,0.47-1.05,1.05-1.05h16.83
	c0.58,0,1.06-0.48,1.05-1.06c-0.02-2.22-0.09-4.29,0.04-6.35c0.17-2.68,0.29-5.41,0.94-7.99c2.25-8.93,8.27-14.41,16.91-16.86
	c7.83-2.22,15.77-2.26,23.53,0.64c5.71,2.13,10.22,5.79,13.4,11.02c0.32,0.52,0.59,1.07,0.88,1.64c0.23,0.46,0.1,1.02-0.31,1.33
	c-2.61,1.94-5.16,3.85-7.79,5.81C658.69,890.23,657.99,890.06,657.66,889.47z"/>
<path fill="#F6BBBF" d="M578.38,889.47c-3.18-5.75-7.98-8.86-14.72-9.31c-8.3-0.55-15.65,5.74-16.19,14.04
	c-0.14,2.07-0.08,4.13-0.06,6.29c0.01,0.58,0.47,1.05,1.05,1.05h33.11c0.58,0,1.05,0.47,1.05,1.05v9.37c0,0.58-0.47,1.05-1.05,1.05
	h-33c-0.58,0-1.05,0.47-1.05,1.05v54.76c0,0.58-0.47,1.05-1.05,1.05h-13.01c-0.58,0-1.05-0.47-1.05-1.05v-54.69
	c0-0.58-0.47-1.05-1.05-1.05h-16.88c-0.58,0-1.05-0.47-1.05-1.05v-9.32c0-0.58,0.47-1.05,1.05-1.05h16.83
	c0.58,0,1.06-0.48,1.05-1.06c-0.02-2.22-0.09-4.29,0.04-6.35c0.17-2.68,0.29-5.41,0.94-7.99c2.25-8.93,8.27-14.41,16.91-16.86
	c7.83-2.22,15.77-2.26,23.53,0.64c5.71,2.13,10.22,5.79,13.4,11.02c0.32,0.52,0.59,1.07,0.88,1.64c0.23,0.46,0.1,1.02-0.31,1.33
	c-2.61,1.94-5.16,3.85-7.79,5.81C579.41,890.23,578.71,890.06,578.38,889.47z"/>
<path fill="#F6BBBF" d="M693.51,969.93h-12.76c-0.58,0-1.05-0.47-1.05-1.05v-66.1c0-0.58,0.47-1.05,1.05-1.05h12.76
	c0.58,0,1.05,0.47,1.05,1.05v66.1C694.56,969.46,694.09,969.93,693.51,969.93z"/>
<path fill="#F6BBBF" d="M821.25,969.96h-12.78c-0.58,0-1.05-0.47-1.05-1.05v-66.15c0-0.58,0.47-1.05,1.05-1.05h12.78
	c0.58,0,1.05,0.47,1.05,1.05v66.15C822.31,969.49,821.84,969.96,821.25,969.96z"/>
<path fill="#F6BBBF" d="M697.22,880.12c0,2.86-0.96,5.24-2.65,6.93c-1.78,1.78-4.36,2.78-7.49,2.76c-2.94-0.02-5.38-0.99-7.09-2.69
	c-1.71-1.69-2.69-4.1-2.69-7c0-2.53,0.74-4.68,2.08-6.28c1.72-2.06,4.42-3.24,7.79-3.24c3.07,0,5.59,0.93,7.34,2.58
	C696.24,874.83,697.22,877.21,697.22,880.12z"/>
<path fill="#F6BBBF" d="M814.92,870.6c6.13,0.01,10.04,3.74,10.02,9.56c-0.02,5.86-4.08,9.71-10.18,9.65
	c-5.85-0.06-9.78-3.97-9.77-9.72C805.01,874.34,808.93,870.59,814.92,870.6z"/>
<path fill="#F6BBBF" d="M909.82,953.29c-1.68-1.15-5.77-3.94-7.71-5.25c-0.55-0.37-1.27-0.14-1.54,0.46
	c-3.24,7.21-8.57,11.51-16.76,11.89c-5.61,0.26-10.51-1.39-13.07-6.74c-1.17-2.44-1.71-5.38-1.76-8.11
	c-0.2-10.16-0.08-20.32-0.08-30.49c0-0.32,0.02-0.65,0.04-1c0.03-0.56,0.49-0.99,1.05-0.99l34.74,0c0.58,0,1.05-0.47,1.05-1.05
	v-9.42c0-0.58-0.47-1.05-1.05-1.05h-34.78c-0.58,0-1.05-0.47-1.05-1.05v-21.32c0-0.67-0.62-1.17-1.28-1.03l-13.2,2.92
	c-0.48,0.11-0.82,0.53-0.82,1.03v18.51c0,0.58-0.47,1.05-1.05,1.05h-16.59c-0.58,0-1.05,0.47-1.05,1.05v9.35
	c0,0.58,0.47,1.05,1.05,1.05l16.85,0c0.58,0,1.06,0.48,1.05,1.06c0,1.01,0,1.92,0,2.84c0.03,11.17-0.27,22.36,0.18,33.51
	c0.38,9.61,5.4,16.66,14.51,20c9.83,3.61,19.69,3.04,29.03-1.92c4.18-2.22,7.54-5.29,10.01-9.18c0.01-0.02,0.03-0.03,0.04-0.05
	c0.67-1,1.92-3.46,2.56-4.75C910.4,954.15,910.25,953.59,909.82,953.29z"/>
<g>
	<path fill-rule="evenodd" clip-rule="evenodd" fill="#EDE4DB" d="M375.83,1634.15c-0.59-0.47-0.1-1.32,0.6-1.05
		c23.18,9.03,49.23,10.35,74.07,2.71c3.84-1.18,7.86-1.9,12.03-2.14c28.13-1.6,53.17,20.67,54.67,48.81
		c1.58,29.8-22.16,54.52-51.63,54.52c-24.51,0-45.1-17.07-50.34-40C409.44,1671.64,395.26,1649.72,375.83,1634.15z"/>
	<path fill-rule="evenodd" clip-rule="evenodd" fill="#EDE4DB" d="M346.18,1617.05c-13.5-5.24-28.25-7.98-43.68-7.63
		c-39.9,0.9-76.03,23.93-95.98,58.49l-24.07,41.68c-13.75,23.82-43.73,34.26-68.4,22.09c-27.04-13.34-36.8-46.52-21.97-72.2
		l56.8-98.4c9.01-15.59,41.37-71.64,50.37-87.24l56.41-97.7c13.75-23.82,43.73-34.26,68.39-22.1c27.04,13.33,36.8,46.52,21.97,72.21
		l-26.26,45.5c-23.17,40.12-19.42,90.35,9.46,126.58c5.26,6.61,11.16,12.5,17.56,17.64
		C347.38,1616.45,346.88,1617.32,346.18,1617.05z"/>
</g>
<path fill="#24201E" d="M913.16,1567.6c2.31-2.91,4.59-5.78,6.92-8.72c0.39-0.49,1.11-0.53,1.56-0.09
	c3.82,3.71,8.19,6.38,12.98,8.39c6.73,2.83,14.01,3.95,21.31,3.76c4.74-0.12,9.41-0.74,13.83-2.55c7.83-3.21,13.37-8.48,14.61-17.21
	c0.24-1.66,0.2-3.35,0.14-5.07c-0.03-0.97-1.24-1.37-1.86-0.63c-4.95,5.86-13.65,10.44-22.3,11.58c-5.29,0.7-10.74,0.34-15.86-1.18
	c-12.92-3.82-20.23-12.5-22.57-25.36c-0.35-1.95-0.49-3.93-0.5-5.91c-0.04-11.47,0.01-33.88,0.05-38.98c0-0.58,0.47-1.04,1.05-1.04
	h13.05c0.58,0,1.05,0.47,1.05,1.05c-0.01,5.03-0.04,26.66,0.02,37.53c0.04,7.54,2.75,13.82,9.1,18.16c3.3,2.25,7.23,3.36,11.22,3.54
	c9.06,0.4,17.03-1.92,22.79-9.29c3.43-4.4,4.89-10.02,4.9-15.6c0.01-9.88,0-29.59,0-34.37c0-0.58,0.47-1.05,1.05-1.05h13.02
	c0.58,0,1.05,0.46,1.05,1.04c0.01,6.62,0.05,42.75-0.02,61.11c-0.05,12.02-5.8,23.63-16,29.98c-7.81,4.86-16.39,6.66-25.33,7.05
	c-12.11,0.53-23.79-1.26-34.59-6.98c-3.21-1.7-8.01-5.02-10.61-7.82C912.86,1568.59,912.83,1568.01,913.16,1567.6z"/>
<path fill="#24201E" d="M434.67,1507.66l-8.58-5.86c-0.49-0.33-0.6-1-0.27-1.48c0.86-1.24,1.65-2.46,2.59-3.54
	c5.58-6.43,13.11-10.18,21.48-12.49c7.27-2.01,14.83-2.65,22.35-2.14c12.22,0.83,23.43,4.32,29.86,14.77
	c1.69,2.74,2.49,5.94,2.51,9.17c0.06,12.85,0.05,40.03,0.03,45.69c0,0.58-0.47,1.04-1.05,1.04l-11.21,0c-0.52,0-0.96-0.38-1.04-0.89
	c-0.43-2.77-0.86-5.55-1.3-8.37c-0.14-0.89-1.26-1.22-1.84-0.52c-4.5,5.49-15.97,10.6-25.04,11.84c-8.02,1.1-16.09,1.03-23.82-1.71
	c-3.17-1.12-6.32-2.77-8.96-4.84c-8.32-6.55-8.6-18.43-0.9-25.69c5.22-4.92,11.66-7.46,18.5-8.71c7.36-1.34,14.85-1.99,22.3-2.83
	c4.8-0.55,9.64-0.73,14.44-1.31c2.2-0.27,4.1-1.2,4.88-3.46c0.79-2.31-0.13-4.3-1.72-6c-3.15-3.36-7.3-4.81-11.65-5.59
	c-10.98-1.98-21.48-0.61-31.29,4.93c-3.43,1.94-6.44,4.33-8.8,7.69C435.81,1507.85,435.16,1507.99,434.67,1507.66z M489.43,1521.09
	c-0.04-0.58-0.57-1-1.14-0.95c-4.29,0.37-8.48,0.7-12.66,1.12c-7.31,0.74-14.64,1.4-21.92,2.38c-4.06,0.55-8.02,1.72-11.39,4.26
	c-4.08,3.07-4.22,8.56-0.15,11.64c1.49,1.13,3.26,2.05,5.04,2.58c7.39,2.19,14.9,1.88,22.4,0.21c4.86-1.08,9.47-3.2,13.22-6.47
	C487.31,1531.93,489.84,1527.17,489.43,1521.09z"/>
<path fill="#24201E" d="M712.9,1485.48l11.14-0.85c0.55-0.04,1.04,0.34,1.12,0.89l1.35,8.73c0.14,0.92,1.31,1.21,1.88,0.47
	c2.9-3.8,10.34-11.46,24.95-12.53c5.79-0.58,11.57-0.32,17.27,1.32c10.76,3.1,18.43,12.61,19.36,23.76
	c0.18,2.12,0.25,4.25,0.24,6.38c-0.03,11.09-0.13,33.05-0.15,38.11c0,0.58-0.47,1.04-1.05,1.04h-12.99c-0.58,0-1.05-0.47-1.05-1.05
	c0-5.04,0.01-26.77,0-37.69c-0.01-7.17-2.5-13.17-8.92-16.82c-2.47-1.41-5.4-2.33-8.22-2.75c-6.37-0.94-12.77-0.15-18.77,2.87
	c-7.51,3.78-12.09,11.67-12.12,20.08c-0.03,9.89-0.01,29.53-0.01,34.3c0,0.58-0.47,1.05-1.05,1.05h-12.88
	c-0.58,0-1.05-0.47-1.05-1.05v-65.21C711.93,1485.98,712.35,1485.52,712.9,1485.48z"/>
<path fill="#24201E" d="M657.66,1472.37c-3.18-5.75-7.98-8.86-14.72-9.31c-8.3-0.55-15.65,5.74-16.19,14.04
	c-0.14,2.07-0.08,4.13-0.06,6.29c0.01,0.58,0.47,1.05,1.05,1.05h33.11c0.58,0,1.05,0.47,1.05,1.05v9.37c0,0.58-0.47,1.05-1.05,1.05
	h-33c-0.58,0-1.05,0.47-1.05,1.05v54.76c0,0.58-0.47,1.05-1.05,1.05h-13.01c-0.58,0-1.05-0.47-1.05-1.05v-54.69
	c0-0.58-0.47-1.05-1.05-1.05h-16.88c-0.58,0-1.05-0.47-1.05-1.05v-9.32c0-0.58,0.47-1.05,1.05-1.05h16.83
	c0.58,0,1.06-0.48,1.05-1.06c-0.02-2.22-0.09-4.29,0.04-6.35c0.17-2.68,0.29-5.41,0.94-7.99c2.25-8.93,8.27-14.41,16.91-16.86
	c7.83-2.22,15.77-2.26,23.53,0.64c5.71,2.13,10.22,5.79,13.4,11.02c0.32,0.52,0.59,1.07,0.88,1.64c0.23,0.46,0.1,1.02-0.31,1.33
	c-2.61,1.94-5.16,3.85-7.79,5.81C658.69,1473.13,657.99,1472.96,657.66,1472.37z"/>
<path fill="#24201E" d="M578.38,1472.37c-3.18-5.75-7.98-8.86-14.72-9.31c-8.3-0.55-15.65,5.74-16.19,14.04
	c-0.14,2.07-0.08,4.13-0.06,6.29c0.01,0.58,0.47,1.05,1.05,1.05h33.11c0.58,0,1.05,0.47,1.05,1.05v9.37c0,0.58-0.47,1.05-1.05,1.05
	h-33c-0.58,0-1.05,0.47-1.05,1.05v54.76c0,0.58-0.47,1.05-1.05,1.05h-13.01c-0.58,0-1.05-0.47-1.05-1.05v-54.69
	c0-0.58-0.47-1.05-1.05-1.05h-16.88c-0.58,0-1.05-0.47-1.05-1.05v-9.32c0-0.58,0.47-1.05,1.05-1.05h16.83
	c0.58,0,1.06-0.48,1.05-1.06c-0.02-2.22-0.09-4.29,0.04-6.35c0.17-2.68,0.29-5.41,0.94-7.99c2.25-8.93,8.27-14.41,16.91-16.86
	c7.83-2.22,15.77-2.26,23.53,0.64c5.71,2.13,10.22,5.79,13.4,11.02c0.32,0.52,0.59,1.07,0.88,1.64c0.23,0.46,0.1,1.02-0.31,1.33
	c-2.61,1.94-5.16,3.85-7.79,5.81C579.41,1473.13,578.71,1472.96,578.38,1472.37z"/>
<path fill="#24201E" d="M693.51,1552.83h-12.76c-0.58,0-1.05-0.47-1.05-1.05v-66.1c0-0.58,0.47-1.05,1.05-1.05h12.76
	c0.58,0,1.05,0.47,1.05,1.05v66.1C694.56,1552.36,694.09,1552.83,693.51,1552.83z"/>
<path fill="#24201E" d="M821.25,1552.86h-12.78c-0.58,0-1.05-0.47-1.05-1.05v-66.15c0-0.58,0.47-1.05,1.05-1.05h12.78
	c0.58,0,1.05,0.47,1.05,1.05v66.15C822.31,1552.39,821.84,1552.86,821.25,1552.86z"/>
<path fill="#24201E" d="M697.22,1463.02c0,2.86-0.96,5.24-2.65,6.93c-1.78,1.78-4.36,2.78-7.49,2.76c-2.94-0.02-5.38-0.99-7.09-2.69
	c-1.71-1.69-2.69-4.1-2.69-7c0-2.53,0.74-4.68,2.08-6.28c1.72-2.06,4.42-3.24,7.79-3.24c3.07,0,5.59,0.93,7.34,2.58
	C696.24,1457.73,697.22,1460.11,697.22,1463.02z"/>
<path fill="#24201E" d="M814.92,1453.5c6.13,0.01,10.04,3.74,10.02,9.56c-0.02,5.86-4.08,9.71-10.18,9.65
	c-5.85-0.06-9.78-3.97-9.77-9.72C805.01,1457.24,808.93,1453.49,814.92,1453.5z"/>
<path fill="#24201E" d="M909.82,1536.19c-1.68-1.15-5.77-3.94-7.71-5.25c-0.55-0.37-1.27-0.14-1.54,0.46
	c-3.24,7.21-8.57,11.51-16.76,11.89c-5.61,0.26-10.51-1.39-13.07-6.74c-1.17-2.44-1.71-5.38-1.76-8.11
	c-0.2-10.16-0.08-20.32-0.08-30.49c0-0.32,0.02-0.65,0.04-1c0.03-0.56,0.49-0.99,1.05-0.99l34.74,0c0.58,0,1.05-0.47,1.05-1.05
	v-9.42c0-0.58-0.47-1.05-1.05-1.05h-34.78c-0.58,0-1.05-0.47-1.05-1.05v-21.32c0-0.67-0.62-1.17-1.28-1.03l-13.2,2.92
	c-0.48,0.11-0.82,0.53-0.82,1.03v18.51c0,0.58-0.47,1.05-1.05,1.05h-16.59c-0.58,0-1.05,0.47-1.05,1.05v9.35
	c0,0.58,0.47,1.05,1.05,1.05l16.85,0c0.58,0,1.06,0.48,1.05,1.06c0,1.01,0,1.92,0,2.84c0.03,11.17-0.27,22.36,0.18,33.51
	c0.38,9.61,5.4,16.66,14.51,20c9.83,3.61,19.69,3.04,29.03-1.92c4.18-2.22,7.54-5.29,10.01-9.18c0.01-0.02,0.03-0.03,0.04-0.05
	c0.67-1,1.92-3.46,2.56-4.75C910.4,1537.05,910.25,1536.49,909.82,1536.19z"/>
</svg>
