<?xml version="1.0" encoding="utf-8"?>
<!-- Generator: Adobe Illustrator 25.0.0, SVG Export Plug-In . SVG Version: 6.00 Build 0)  -->
<svg version="1.1" id="Layer_1" xmlns="http://www.w3.org/2000/svg" xmlns:xlink="http://www.w3.org/1999/xlink" x="0px" y="0px"
	 viewBox="0 0 1920 1080" enable-background="new 0 0 1920 1080" xml:space="preserve">
<g>
	<g>
		<path fill-rule="evenodd" clip-rule="evenodd" fill="#DED205" d="M1045.19,640.21c-0.82-0.67-0.14-1.84,0.84-1.46
			c25.09,9.5,53.16,10.78,79.94,2.55c3.63-1.11,7.41-1.86,11.31-2.21c31.07-2.78,60.01,22.14,61.66,53.28
			c1.72,32.6-24.25,59.63-56.49,59.63c-26.82,0-49.34-18.68-55.08-43.77C1081.13,680.89,1065.98,657.2,1045.19,640.21z"/>
	</g>
	<g>
		<path fill-rule="evenodd" clip-rule="evenodd" fill="#DED205" d="M859.02,676.41l-26.33,45.61c-14.38,24.91-45.1,36.8-71.61,25.64
			c-32.01-13.47-44.06-51.37-27.26-80.47l178.98-310c14.38-24.91,45.09-36.8,71.6-25.65c32.02,13.46,44.07,51.37,27.27,80.47
			l-28.73,49.78c-25.17,43.59-34.67,113.5,28.21,156.87c0.88,0.61,0.2,1.9-0.8,1.51C941.9,593.67,880.7,638.87,859.02,676.41z"/>
	</g>
</g>
<g id="_x3C_Radial_Repeat_x3E__19_">
	<path fill="#F93E00" d="M192.39,751.92c-27.51,0-52.17-14.19-66-37.99c-13.87-23.86-13.95-52.4-0.22-76.34l56.39-98.31
		c13.73-23.94,38.4-38.28,66-38.36c0.07,0,0.15,0,0.23,0c27.51,0,52.16,14.19,66,37.99l56.94,97.99
		c13.87,23.86,13.95,52.4,0.22,76.34c-13.73,23.94-38.41,38.28-66.01,38.37l-113.33,0.32C192.54,751.92,192.47,751.92,192.39,751.92
		z M248.79,533.64c-0.05,0-0.09,0-0.13,0c-15.78,0.05-29.87,8.24-37.72,21.92l-56.39,98.31c-7.85,13.68-7.8,29.99,0.12,43.63
		c7.93,13.64,21.93,21.54,37.85,21.71l113.33-0.32h-0.01c15.78-0.05,29.89-8.24,37.73-21.92c7.84-13.69,7.8-29.99-0.13-43.63
		l-56.94-97.98C278.61,541.75,264.51,533.64,248.79,533.64z"/>
</g>
<path fill="#E0D400" d="M471.33,463.26l-56.95-97.98c-13.83-23.8-38.48-37.99-65.99-37.99c-0.07,0-0.15,0-0.23,0
	c-27.6,0.08-52.28,14.42-66.01,38.36l-56.39,98.31v0c-7.93,13.83-11.1,29.19-9.82,44.3c10.06-4.8,21.11-7.35,32.42-7.38
	c0.18-7.09,2.06-14.17,5.78-20.64v0l56.39-98.31c7.85-13.68,21.95-21.88,37.72-21.92c0.05,0,0.08,0,0.13,0
	c15.72,0,29.81,8.11,37.71,21.71l56.95,97.99c7.93,13.64,7.97,29.94,0.13,43.63c-7.85,13.68-21.95,21.88-37.73,21.93l-113.33,0.32
	c-0.05,0-0.08,0-0.13,0c-9.42,0-18.22-2.96-25.48-8.22c-0.52-0.23-1.04-0.48-1.57-0.69c-11.89-4.66-26.85-4.16-39.09,3.36
	c0.05,0.09,0.08,0.18,0.14,0.27c13.83,23.8,38.49,37.98,66,37.98c0.08,0,0.15,0,0.23,0l113.33-0.32
	c27.6-0.08,52.28-14.42,66.01-38.36C485.27,515.66,485.19,487.12,471.33,463.26z"/>
<g>
	<path fill="#F9BEC2" d="M367.91,630.31l43.2-75.32c4.7-8.2,11.68-14.37,19.88-18.06c10.76-7.92,18.55-21.55,18.1-36.57
		c-0.04,0-0.08,0-0.12,0c-0.07,0-0.15,0-0.23,0c-27.6,0.08-52.28,14.42-66.01,38.36l-33.8,58.94L367.91,630.31z"/>
	<path fill="#F9BEC2" d="M571.91,636.33l-56.94-97.99c-8.07-13.89-19.85-24.47-33.71-30.9c-0.88,11.18-4.16,22.1-9.7,31.92
		c6.11,3.71,11.34,8.91,15.12,15.41l56.94,97.98c7.93,13.64,7.97,29.95,0.12,43.64c-7.85,13.68-21.95,21.87-37.72,21.92
		l-113.33,0.32c-0.05,0-0.08,0-0.13,0c-15.72,0-29.82-8.11-37.72-21.71c-4.78-8.22-6.64-17.41-5.68-26.42
		c-0.66-5.96-2.55-11.73-5.71-17.18l-13.31-22.9l-3.79,6.6c-13.73,23.94-13.65,52.47,0.21,76.34c13.83,23.8,38.49,37.99,66,37.99
		c0.08,0,0.15,0,0.23,0l113.33-0.32c27.6-0.08,52.28-14.42,66.01-38.36S585.77,660.19,571.91,636.33z"/>
</g>
<path fill="#F9BEC2" d="M1573.53,600.5l-78.56-136.06c-16.59-28.75-16.18-64.24,1.09-92.64l0.68-1.07c1.12-1.78,2.41-3.67,3.77-5.51
	c1.17-1.56,2.32-2.99,3.5-4.39l1.56-1.85c28.55-31.82,76.03-39.36,112.98-18.02l0,0c43.35,25.03,58.25,80.66,33.23,124.02
	L1573.53,600.5z M1573.27,366.18c-14.82,0-29.46,6.1-39.83,17.65l-0.88,1.06c-0.78,0.92-1.44,1.74-2.08,2.59
	c-0.72,0.98-1.47,2.07-2.16,3.18l-0.51,0.78c-10.02,16.49-10.28,37.4-0.5,54.33l46.22,80.06l45.92-79.53
	c14.73-25.52,5.96-58.28-19.57-73.01l0,0C1591.59,368.5,1582.4,366.18,1573.27,366.18z"/>
<path fill="#E0D400" d="M1791.7,615.24l-139.48-241.59c-25.03-43.36-80.66-58.25-124.02-33.23
	c-43.35,25.03-58.25,80.66-33.23,124.02l67.45,116.82c3.64-0.53,7.37-0.82,11.16-0.82c13.43,0,26.05,3.49,37.01,9.58l-83.29-144.25
	c-14.73-25.52-5.95-58.28,19.57-73.01c12.36-7.13,26.77-9.02,40.55-5.34c13.79,3.7,25.32,12.54,32.46,24.91l139.48,241.59
	c14.73,25.52,5.96,58.27-19.57,73.01c-25.51,14.74-58.27,5.96-73.01-19.57l-16.99-29.43c-0.28,17.42-6.4,33.41-16.49,46.12
	l1.14,1.98c16.79,29.09,47.37,45.37,78.77,45.37c15.39,0,30.98-3.91,45.24-12.15C1801.82,714.23,1816.73,658.6,1791.7,615.24z"/>
<path fill="#E0D400" d="M1618.56,340.96c-43.34-25.02-98.99-10.11-124.02,33.23l-139.48,241.59
	c-25.03,43.35-10.12,98.98,33.23,124.01c14.26,8.24,29.85,12.15,45.25,12.15c31.4,0,61.98-16.28,78.77-45.37l1.5-2.59
	c-10.09-12.73-16.19-28.76-16.44-46.21l-17.39,30.12c-7.14,12.36-18.66,21.21-32.46,24.9c-13.78,3.69-28.2,1.8-40.56-5.34
	c-25.52-14.74-34.3-47.49-19.57-73.01l139.48-241.59c9.89-17.13,27.9-26.72,46.38-26.72c9.06,0,18.23,2.3,26.63,7.15
	c25.52,14.74,34.3,47.49,19.57,73.01l-83.02,143.79c11-6.15,23.66-9.67,37.15-9.67c3.76,0,7.46,0.28,11.07,0.81l67.13-116.27
	C1676.81,421.62,1661.9,365.99,1618.56,340.96z"/>
<path fill="#FB2302" d="M1573.58,751.61c-52.34,0-94.92-42.58-94.92-94.92c0-52.34,42.58-94.92,94.92-94.92s94.92,42.58,94.92,94.92
	C1668.51,709.02,1625.92,751.61,1573.58,751.61z M1573.58,599.1c-31.76,0-57.59,25.83-57.59,57.58c0,31.76,25.83,57.59,57.59,57.59
	s57.59-25.83,57.59-57.59C1631.17,624.93,1605.34,599.1,1573.58,599.1z"/>
</svg>
