<?xml version="1.0" encoding="utf-8"?>
<!-- Generator: Adobe Illustrator 25.0.0, SVG Export Plug-In . SVG Version: 6.00 Build 0)  -->
<svg version="1.1" id="Layer_1" xmlns="http://www.w3.org/2000/svg" xmlns:xlink="http://www.w3.org/1999/xlink" x="0px" y="0px"
	 viewBox="0 0 1920 1280" enable-background="new 0 0 1920 1280" xml:space="preserve">
<g>
	<g>
		<g>
			<g>
				<g>
					<path fill="#DD553E" d="M1547.08,522.67c5.03,0,9.78,2.43,12.71,6.51c16.96,23.62,28.44,51.22,33.21,79.82
						c1.42,8.5-4.34,16.56-12.84,17.98c-0.86,0.14-1.73,0.21-2.6,0.21c-7.65,0-14.12-5.49-15.38-13.06
						c-3.99-23.91-13.59-46.99-27.77-66.74c-2.43-3.38-3.39-7.52-2.72-11.64c0.68-4.12,2.91-7.73,6.3-10.16
						C1540.66,523.68,1543.8,522.67,1547.08,522.67 M1547.08,520.35c-3.76,0-7.37,1.16-10.44,3.37c-8.04,5.77-9.88,17-4.11,25.03
						c13.98,19.47,23.44,42.21,27.37,65.77c1.45,8.69,8.88,14.99,17.67,14.99c0.99,0,1.99-0.08,2.98-0.25
						c9.76-1.63,16.37-10.89,14.74-20.64c-4.83-28.95-16.45-56.89-33.61-80.79C1558.31,523.15,1552.85,520.35,1547.08,520.35
						L1547.08,520.35z"/>
				</g>
				<g>
					<path fill="#DD553E" d="M1611.45,458.28c4.8,0,9.28,2.14,12.28,5.87c33.75,41.92,54.67,92.29,60.49,145.66
						c0.94,8.63-5.31,16.42-13.95,17.36c-0.57,0.06-1.16,0.1-1.73,0.1c-8.04,0-14.76-6.04-15.63-14.04
						c-5.17-47.38-23.74-92.1-53.71-129.32c-5.44-6.76-4.37-16.7,2.39-22.14C1604.42,459.49,1607.83,458.28,1611.45,458.28
						 M1611.45,455.97c-4.16,0-8.07,1.38-11.31,3.99c-7.76,6.25-8.99,17.64-2.74,25.4c29.69,36.88,48.09,81.18,53.22,128.12
						c1,9.18,8.71,16.11,17.93,16.11c0.65,0,1.32-0.04,1.99-0.11c9.9-1.08,17.08-10.02,16-19.92
						c-5.87-53.81-26.96-104.59-60.99-146.86C1622.09,458.42,1616.95,455.97,1611.45,455.97L1611.45,455.97z"/>
				</g>
				<g>
					<path fill="#DD553E" d="M1675.85,394.45c4.64,0,9.02,2.02,12.02,5.56c50.68,59.67,80.8,132.37,87.11,210.24
						c0.7,8.66-5.77,16.27-14.43,16.97c-0.42,0.03-0.85,0.05-1.29,0.05c-8.13,0-15.02-6.36-15.68-14.48
						c-5.78-71.25-33.35-137.78-79.73-192.39c-2.72-3.21-4.04-7.28-3.69-11.48c0.34-4.19,2.3-8,5.5-10.72
						C1668.51,395.78,1672.12,394.45,1675.85,394.45 M1675.85,392.14c-4.27,0-8.42,1.53-11.68,4.3c-3.68,3.12-5.92,7.49-6.31,12.3
						c-0.39,4.81,1.11,9.48,4.24,13.16c46.06,54.24,73.44,120.32,79.18,191.08c0.76,9.31,8.65,16.61,17.98,16.61
						c0.49,0,0.98-0.02,1.49-0.06c9.93-0.81,17.35-9.54,16.55-19.47c-6.35-78.35-36.66-151.51-87.66-211.55
						C1686.19,394.46,1681.17,392.14,1675.85,392.14L1675.85,392.14z"/>
				</g>
				<g>
					<path fill="#DD553E" d="M1230.57,653.99c7.66,0,14.13,5.49,15.39,13.06c3.99,23.91,13.59,46.99,27.77,66.74
						c5.02,7,3.42,16.78-3.58,21.8c-2.67,1.92-5.81,2.93-9.09,2.93c-5.03,0-9.78-2.44-12.71-6.51
						c-16.96-23.62-28.44-51.23-33.21-79.82c-1.42-8.5,4.34-16.56,12.84-17.98C1228.84,654.07,1229.71,653.99,1230.57,653.99
						 M1230.57,651.68c-0.99,0-1.99,0.08-2.97,0.25c-9.76,1.63-16.37,10.89-14.75,20.65c4.83,28.95,16.45,56.88,33.61,80.79
						c3.36,4.68,8.82,7.48,14.59,7.48c3.76,0,7.37-1.16,10.44-3.37c8.04-5.77,9.88-17,4.11-25.03
						c-13.98-19.47-23.44-42.22-27.37-65.77C1246.8,657.98,1239.36,651.68,1230.57,651.68L1230.57,651.68z"/>
				</g>
				<g>
					<path fill="#DD553E" d="M1139.59,653.92c8.04,0,14.76,6.04,15.63,14.04c5.17,47.37,23.74,92.09,53.71,129.32
						c5.45,6.76,4.37,16.7-2.39,22.14c-2.83,2.28-6.24,3.48-9.86,3.48c-4.8,0-9.28-2.14-12.28-5.87
						c-33.75-41.92-54.67-92.29-60.49-145.66c-0.46-4.18,0.74-8.29,3.38-11.57c2.64-3.28,6.39-5.34,10.57-5.79
						C1138.43,653.95,1139.01,653.92,1139.59,653.92 M1139.59,651.6c-0.66,0-1.32,0.04-1.98,0.11c-4.8,0.52-9.1,2.88-12.12,6.64
						c-3.02,3.76-4.4,8.48-3.87,13.27c5.87,53.81,26.96,104.59,60.99,146.86c3.45,4.28,8.58,6.74,14.08,6.74
						c4.16,0,8.07-1.38,11.31-3.99c7.76-6.25,8.99-17.64,2.74-25.4c-29.69-36.88-48.09-81.18-53.21-128.12
						C1156.52,658.53,1148.81,651.6,1139.59,651.6L1139.59,651.6z"/>
				</g>
				<g>
					<path fill="#DD553E" d="M1048.91,653.92c8.12,0,14.99,6.36,15.65,14.48c5.78,71.25,33.34,137.78,79.73,192.39
						c2.72,3.21,4.04,7.28,3.69,11.48c-0.34,4.19-2.3,8-5.5,10.73c-2.84,2.42-6.46,3.75-10.19,3.75c-4.64,0-9.02-2.02-12.02-5.56
						c-50.68-59.67-80.8-132.37-87.11-210.24c-0.34-4.19,0.97-8.27,3.7-11.47c2.73-3.21,6.54-5.16,10.73-5.5
						C1048.02,653.94,1048.47,653.92,1048.91,653.92 M1048.91,651.6c-0.5,0-1,0.02-1.51,0.06c-4.81,0.39-9.18,2.63-12.31,6.31
						c-3.12,3.68-4.63,8.35-4.24,13.16c6.35,78.35,36.66,151.51,87.66,211.55c3.44,4.05,8.46,6.37,13.78,6.37
						c4.27,0,8.42-1.53,11.68-4.3c3.68-3.12,5.92-7.49,6.31-12.3c0.39-4.81-1.11-9.48-4.24-13.16
						c-46.06-54.24-73.45-120.32-79.18-191.08C1066.11,658.9,1058.22,651.6,1048.91,651.6L1048.91,651.6z"/>
				</g>
				<g>
					<path fill="#DD553E" d="M1506.54,765.69c5.03,0,9.78,2.43,12.71,6.51c2.43,3.38,3.39,7.52,2.72,11.64
						c-0.68,4.12-2.91,7.73-6.3,10.16c-23.62,16.96-51.22,28.44-79.82,33.21c-0.87,0.14-1.74,0.22-2.6,0.22
						c-7.65,0-14.12-5.49-15.38-13.06c-1.42-8.5,4.35-16.56,12.84-17.98c23.9-3.98,46.98-13.59,66.74-27.77
						C1500.12,766.71,1503.26,765.69,1506.54,765.69 M1506.54,763.38c-3.76,0-7.37,1.16-10.44,3.37
						c-19.47,13.98-42.21,23.44-65.77,27.37c-9.76,1.63-16.37,10.89-14.75,20.65c1.45,8.69,8.88,14.99,17.67,14.99
						c0.99,0,1.99-0.08,2.98-0.25c28.95-4.83,56.89-16.45,80.79-33.61c8.04-5.77,9.88-17,4.11-25.03
						C1517.77,766.17,1512.31,763.38,1506.54,763.38L1506.54,763.38z"/>
				</g>
				<g>
					<path fill="#DD553E" d="M1570.8,829.94c4.8,0,9.28,2.14,12.28,5.87c5.44,6.76,4.37,16.7-2.39,22.14
						c-41.92,33.75-92.29,54.67-145.66,60.49c-0.57,0.06-1.16,0.1-1.73,0.1c-8.04,0-14.76-6.04-15.63-14.04
						c-0.94-8.63,5.31-16.42,13.95-17.36c47.38-5.17,92.1-23.75,129.32-53.71C1563.76,831.14,1567.17,829.94,1570.8,829.94
						 M1570.8,827.62c-4.16,0-8.07,1.38-11.32,3.99c-36.88,29.69-81.18,48.09-128.12,53.22c-9.9,1.08-17.08,10.02-16,19.92
						c1,9.18,8.71,16.11,17.93,16.11c0.65,0,1.32-0.04,1.99-0.11c53.81-5.87,104.59-26.96,146.86-60.99
						c7.76-6.25,8.99-17.64,2.74-25.4C1581.43,830.08,1576.3,827.62,1570.8,827.62L1570.8,827.62z"/>
				</g>
				<g>
					<path fill="#DD553E" d="M1634.63,894.33c4.64,0,9.02,2.03,12.01,5.56c2.72,3.21,4.04,7.28,3.69,11.48
						c-0.34,4.19-2.3,8-5.5,10.72c-59.67,50.68-132.37,80.8-210.24,87.11c-0.42,0.03-0.85,0.05-1.29,0.05
						c-8.13,0-15.02-6.36-15.67-14.48c-0.7-8.66,5.77-16.27,14.43-16.97c71.25-5.78,137.78-33.34,192.39-79.73
						C1627.29,895.66,1630.91,894.33,1634.63,894.33 M1634.63,892.01c-4.27,0-8.42,1.53-11.68,4.3
						c-54.24,46.07-120.31,73.45-191.08,79.18c-9.93,0.81-17.35,9.54-16.55,19.47c0.76,9.31,8.65,16.61,17.98,16.61
						c0.49,0,0.98-0.02,1.48-0.06c78.35-6.35,151.51-36.66,211.55-87.66c3.68-3.12,5.92-7.49,6.31-12.3
						c0.39-4.81-1.11-9.48-4.24-13.16C1644.97,894.33,1639.95,892.01,1634.63,892.01L1634.63,892.01z"/>
				</g>
				<g>
					<path fill="#DD553E" d="M1375.24,449.14c7.66,0,14.13,5.49,15.39,13.06c1.42,8.5-4.34,16.56-12.84,17.98
						c-23.91,3.99-46.99,13.59-66.74,27.77c-2.67,1.92-5.82,2.93-9.09,2.93c-5.03,0-9.78-2.44-12.71-6.51
						c-5.02-7-3.42-16.78,3.58-21.8c23.62-16.95,51.22-28.44,79.82-33.21C1373.51,449.22,1374.39,449.14,1375.24,449.14
						 M1375.24,446.83c-0.99,0-1.99,0.08-2.97,0.25c-28.95,4.83-56.89,16.45-80.79,33.61c-8.04,5.77-9.88,17-4.11,25.03
						c3.36,4.68,8.82,7.48,14.59,7.48c3.76,0,7.37-1.16,10.44-3.37c19.47-13.98,42.21-23.44,65.77-27.37
						c9.76-1.63,16.37-10.89,14.75-20.65C1391.47,453.13,1384.04,446.83,1375.24,446.83L1375.24,446.83z"/>
				</g>
				<g>
					<path fill="#DD553E" d="M1375.21,358.03c8.03,0,14.75,6.04,15.62,14.04c0.46,4.17-0.75,8.28-3.38,11.57
						c-2.64,3.28-6.39,5.34-10.56,5.8c-47.37,5.17-92.09,23.75-129.32,53.72c-2.83,2.28-6.24,3.48-9.86,3.48
						c-4.8,0-9.28-2.14-12.28-5.87c-5.45-6.76-4.37-16.7,2.39-22.14c41.92-33.75,92.29-54.67,145.66-60.49
						C1374.05,358.07,1374.64,358.03,1375.21,358.03 M1375.21,355.72c-0.66,0-1.33,0.04-2,0.11
						c-53.81,5.87-104.59,26.96-146.86,60.99c-7.76,6.25-8.99,17.64-2.74,25.4c3.45,4.28,8.58,6.74,14.08,6.74
						c4.16,0,8.07-1.38,11.31-3.99c36.88-29.69,81.19-48.09,128.12-53.22c9.9-1.08,17.08-10.02,16-19.92
						C1392.13,362.64,1384.43,355.72,1375.21,355.72L1375.21,355.72z"/>
				</g>
				<g>
					<path fill="#DD553E" d="M1375.21,267.32c8.12,0,15,6.36,15.65,14.48c0.34,4.19-0.97,8.27-3.7,11.48
						c-2.73,3.21-6.54,5.16-10.73,5.5c-71.25,5.78-137.78,33.34-192.39,79.73c-2.84,2.42-6.46,3.75-10.19,3.75
						c-4.64,0-9.02-2.02-12.02-5.56c-2.72-3.21-4.04-7.28-3.69-11.48c0.34-4.19,2.3-8,5.5-10.73
						c59.67-50.68,132.37-80.8,210.24-87.11C1374.34,267.34,1374.78,267.32,1375.21,267.32 M1375.21,265.01c-0.5,0-1,0.02-1.5,0.06
						c-78.35,6.35-151.51,36.66-211.55,87.66c-3.68,3.12-5.92,7.49-6.31,12.3c-0.39,4.81,1.11,9.48,4.24,13.16
						c3.44,4.05,8.46,6.37,13.78,6.37c4.27,0,8.42-1.53,11.68-4.3c54.24-46.07,120.31-73.45,191.08-79.18
						c4.81-0.39,9.18-2.63,12.31-6.31c3.13-3.68,4.63-8.35,4.24-13.16C1392.42,272.3,1384.53,265.01,1375.21,265.01L1375.21,265.01z
						"/>
				</g>
			</g>
		</g>
		<circle fill="none" stroke="#DD553E" stroke-width="2.3155" stroke-miterlimit="10" cx="1450.94" cy="640.4" r="7.37"/>
		<circle fill="none" stroke="#DD553E" stroke-width="2.3155" stroke-miterlimit="10" cx="1403.25" cy="689.09" r="7.37"/>
		<circle fill="none" stroke="#DD553E" stroke-width="2.3155" stroke-miterlimit="10" cx="1355.39" cy="640.86" r="7.37"/>
		<circle fill="none" stroke="#DD553E" stroke-width="2.3155" stroke-miterlimit="10" cx="1402.78" cy="592.92" r="7.37"/>
		
			<rect x="1415.75" y="262.7" fill="none" stroke="#DD553E" stroke-width="2.3155" stroke-miterlimit="10" width="21.11" height="225.41"/>
		
			<rect x="1371.9" y="794.53" transform="matrix(-1 -1.224647e-16 1.224647e-16 -1 2764.9038 1814.4723)" fill="none" stroke="#DD553E" stroke-width="2.3155" stroke-miterlimit="10" width="21.11" height="225.41"/>
		
			<rect x="1127.06" y="506.61" transform="matrix(6.123234e-17 -1 1 6.123234e-17 518.2961 1756.9368)" fill="none" stroke="#DD553E" stroke-width="2.3155" stroke-miterlimit="10" width="21.11" height="225.41"/>
		
			<rect x="1658.89" y="549.69" transform="matrix(-1.836970e-16 1 -1 -1.836970e-16 2331.8496 -1007.0482)" fill="none" stroke="#DD553E" stroke-width="2.3155" stroke-miterlimit="10" width="21.11" height="225.41"/>
		<path fill="none" stroke="#DD553E" stroke-width="2.3155" stroke-miterlimit="10" d="M1821.69,645.93v-10.66h-280.16
			c-1.29-33.97-14.9-64.78-36.49-88.11l198.1-198.1l-7.54-7.54l-198.1,198.1c-23.32-21.59-54.14-35.2-88.11-36.49V222.97h-10.66
			v280.16c-33.97,1.29-64.78,14.9-88.11,36.49l-198.09-198.09l-7.54,7.54l198.09,198.09c-21.59,23.32-35.2,54.14-36.49,88.11H986.44
			v10.66h280.16c1.29,33.97,14.9,64.78,36.49,88.11l-198.11,198.11l7.54,7.54l198.11-198.11c23.32,21.59,54.14,35.2,88.11,36.49
			v280.16h10.66V778.07c33.97-1.29,64.78-14.9,88.11-36.49l198.1,198.1l7.54-7.54l-198.1-198.1c21.59-23.32,35.2-54.14,36.49-88.11
			H1821.69z M1491.38,720.37l-4.5-4.5l-7.54,7.54l4.46,4.46c-19.86,17.9-45.83,29.15-74.4,30.27v-5.76h-10.66v5.73
			c-28.4-1.4-54.16-12.83-73.83-30.81l3.91-3.91l-7.54-7.54l-3.91,3.91c-19.22-21.03-30.96-49.02-30.96-79.76
			c0-30.43,11.5-58.17,30.39-79.13l4.47,4.47l7.54-7.54l-4.52-4.52c19.75-18.31,45.74-29.97,74.44-31.39v6.92h10.66v-6.95
			c28.87,1.14,55.08,12.61,75.02,30.84l-5.11,5.11l7.54,7.54l5.11-5.11c18.23,19.94,29.7,46.15,30.84,75.02h-6.95v10.66h6.92
			C1521.35,674.63,1509.69,700.62,1491.38,720.37z"/>
		<g>
			
				<line fill="none" stroke="#DD553E" stroke-width="2.3155" stroke-miterlimit="10" x1="1398.74" y1="502.54" x2="1398.74" y2="521.31"/>
			
				<line fill="none" stroke="#DD553E" stroke-width="2.3155" stroke-miterlimit="10" x1="1409.4" y1="502.54" x2="1409.4" y2="521.28"/>
			
				<line fill="none" stroke="#DD553E" stroke-width="2.3155" stroke-miterlimit="10" x1="1398.74" y1="758.73" x2="1398.74" y2="777.5"/>
			
				<line fill="none" stroke="#DD553E" stroke-width="2.3155" stroke-miterlimit="10" x1="1409.4" y1="758.73" x2="1409.4" y2="777.47"/>
			
				<line fill="none" stroke="#DD553E" stroke-width="2.3155" stroke-miterlimit="10" x1="1541.2" y1="635.27" x2="1522.43" y2="635.27"/>
			
				<line fill="none" stroke="#DD553E" stroke-width="2.3155" stroke-miterlimit="10" x1="1541.2" y1="645.93" x2="1522.46" y2="645.93"/>
			
				<line fill="none" stroke="#DD553E" stroke-width="2.3155" stroke-miterlimit="10" x1="1285.94" y1="635.27" x2="1267.17" y2="635.27"/>
			
				<line fill="none" stroke="#DD553E" stroke-width="2.3155" stroke-miterlimit="10" x1="1285.94" y1="645.93" x2="1267.2" y2="645.93"/>
			
				<line fill="none" stroke="#DD553E" stroke-width="2.3155" stroke-miterlimit="10" x1="1497.88" y1="539.24" x2="1484.61" y2="552.51"/>
			
				<line fill="none" stroke="#DD553E" stroke-width="2.3155" stroke-miterlimit="10" x1="1505.42" y1="546.78" x2="1492.17" y2="560.03"/>
			
				<line fill="none" stroke="#DD553E" stroke-width="2.3155" stroke-miterlimit="10" x1="1316.83" y1="720.3" x2="1303.55" y2="733.57"/>
			
				<line fill="none" stroke="#DD553E" stroke-width="2.3155" stroke-miterlimit="10" x1="1324.46" y1="727.86" x2="1311.2" y2="741.11"/>
			
				<line fill="none" stroke="#DD553E" stroke-width="2.3155" stroke-miterlimit="10" x1="1504.53" y1="733.49" x2="1491.26" y2="720.22"/>
			
				<line fill="none" stroke="#DD553E" stroke-width="2.3155" stroke-miterlimit="10" x1="1497" y1="741.03" x2="1483.74" y2="727.78"/>
			
				<line fill="none" stroke="#DD553E" stroke-width="2.3155" stroke-miterlimit="10" x1="1323.86" y1="552.82" x2="1310.59" y2="539.55"/>
			
				<line fill="none" stroke="#DD553E" stroke-width="2.3155" stroke-miterlimit="10" x1="1316.33" y1="560.36" x2="1303.07" y2="547.11"/>
		</g>
		<circle fill="none" stroke="#DD553E" stroke-width="2.3155" stroke-miterlimit="10" cx="1404.07" cy="640.6" r="111.78"/>
		<circle fill="none" stroke="#DD553E" stroke-width="2.3155" stroke-miterlimit="10" cx="1404.07" cy="640.6" r="417.63"/>
		<path fill="none" stroke="#DD553E" stroke-width="2.3155" stroke-miterlimit="10" d="M1365.12,616.32
			c4.93,1.95,8.93,5.24,11.78,9.26c2.7-4.64,6.51-8.34,10.93-10.94c-9.92-6.82-14.2-19.79-9.58-31.45c0.56-1.41,1.25-2.72,2.01-3.98
			c-16.86,6.29-31.1,19.41-38.26,37.46c-0.25,0.63-0.47,1.26-0.7,1.89C1348.19,614.23,1356.97,613.09,1365.12,616.32z"/>
		<circle fill="none" stroke="#DD553E" stroke-width="2.3155" stroke-miterlimit="10" cx="1404.6" cy="640" r="439.32"/>
		<circle fill="none" stroke="#DD553E" stroke-width="2.3155" stroke-miterlimit="10" cx="1355.39" cy="640.86" r="26.4"/>
		<circle fill="none" stroke="#DD553E" stroke-width="2.3155" stroke-miterlimit="10" cx="1402.78" cy="592.92" r="26.4"/>
		<path fill="none" stroke="#DD553E" stroke-width="2.3155" stroke-miterlimit="10" d="M1429.37,625.22
			c6.86-9.76,19.72-13.95,31.3-9.37c1.55,0.61,3,1.37,4.36,2.23c-6.27-16.92-19.41-31.22-37.51-38.39
			c-0.82-0.32-1.64-0.62-2.47-0.91c4.36,6.89,5.5,15.69,2.27,23.85c-1.94,4.88-5.18,8.85-9.15,11.7
			C1422.91,616.99,1426.7,620.79,1429.37,625.22z"/>
		<circle fill="none" stroke="#DD553E" stroke-width="2.3155" stroke-miterlimit="10" cx="1450.94" cy="640.4" r="26.4"/>
		<g>
			<path fill="none" stroke="#DD553E" stroke-width="2.3155" stroke-miterlimit="10" d="M1441.22,664.94
				c-4.76-1.89-8.65-5.02-11.48-8.86c-2.63,4.61-6.35,8.31-10.68,10.94c9.52,6.92,13.56,19.61,9.03,31.05
				c-0.69,1.74-1.55,3.36-2.54,4.87c17.17-6.18,31.7-19.41,38.95-37.7c0.38-0.95,0.72-1.9,1.05-2.85
				C1458.58,666.98,1449.57,668.24,1441.22,664.94z"/>
			<path fill="none" stroke="#DD553E" stroke-width="2.3155" stroke-miterlimit="10" d="M1379.01,678.61
				c1.87-4.71,4.95-8.55,8.73-11.38c-4.63-2.73-8.34-6.56-10.91-11.02c-6.89,9.63-19.66,13.74-31.16,9.18
				c-1.58-0.63-3.06-1.4-4.44-2.28c6.16,17.22,19.41,31.81,37.75,39.08c0.92,0.37,1.85,0.7,2.77,1.02
				C1376.98,696.22,1375.66,687.07,1379.01,678.61z"/>
		</g>
		<circle fill="none" stroke="#DD553E" stroke-width="2.3155" stroke-miterlimit="10" cx="1403.55" cy="688.34" r="26.4"/>
	</g>
	<g>
		<path fill="#DB553E" d="M797.88,629.62c-0.07,0-0.14,0-0.21,0l-130.34-0.23c-11.66-0.02-21.1-9.49-21.08-21.15
			c0.02-11.65,9.47-21.08,21.11-21.08c0.01,0,0.02,0,0.04,0l130.34,0.23c0.04,0,0.09,0,0.14,0c9.79,0,19.18-1.83,27.93-5.46
			c17.24-7.14,31.45-21.24,38.98-38.68c7.8-18.06,7.9-38.11,0.3-56.46c-7.44-17.96-21.44-31.96-39.42-39.43
			c-17.96-7.45-37.72-7.48-55.62-0.07c-8.79,3.64-16.77,9.02-23.72,15.98l-91.72,92.06c-8.23,8.25-21.59,8.28-29.85,0.05
			c-8.25-8.23-8.28-21.59-0.05-29.85l91.72-92.06c10.89-10.93,23.5-19.4,37.46-25.19c28.33-11.73,59.59-11.69,87.97,0.09
			c28.38,11.79,50.49,33.9,62.24,62.26c12.01,28.98,11.82,60.72-0.54,89.35c-11.85,27.43-34.3,49.64-61.58,60.94
			C828.09,626.69,813.24,629.62,797.88,629.62z"/>
		<path fill="#DB553E" d="M191.32,880.84c-15.19,0-30.38-3.05-44.82-9.16c-28.31-11.98-50.27-34.23-61.82-62.67
			c-11.56-28.44-11.36-59.7,0.57-88.03c11.93-28.34,34.14-50.3,62.54-61.85c14.04-5.7,28.94-8.41,44.37-8.39l129.24,1.08
			c11.66,0.1,21.03,9.63,20.94,21.29c-0.1,11.6-9.53,20.94-21.1,20.94c-0.07,0-0.12,0-0.18,0l-129.25-1.08
			c-9.75-0.47-19.29,1.69-28.12,5.27c-17.93,7.29-31.98,21.18-39.53,39.13c-7.56,17.95-7.68,37.74-0.36,55.75
			c7.32,18,21.22,32.09,39.16,39.68c17.9,7.57,37.66,7.74,55.61,0.45c8.83-3.59,16.84-8.92,23.82-15.83l92.15-91.27
			c8.28-8.21,21.66-8.15,29.85,0.14c8.2,8.28,8.15,21.65-0.14,29.85l-92.16,91.28c-10.96,10.85-23.61,19.24-37.63,24.94
			C220.54,878.01,205.93,880.84,191.32,880.84z"/>
		<path fill="#DB553E" d="M797.77,880.9c-29.97,0-59.29-11.72-81.34-33.85l-92.36-92.68c-8.23-8.26-8.2-21.62,0.05-29.85
			c8.26-8.23,21.64-8.2,29.85,0.05l92.36,92.68c20.9,20.97,52.19,27.18,79.65,15.77c17.77-7.36,31.66-21.31,39.1-39.28
			c9.47-22.87,7-47.77-6.76-68.33c-13.74-20.52-35.77-32.28-60.44-32.28c-0.05,0-0.09,0-0.15,0l-130.56,0.23c-0.01,0-0.02,0-0.04,0
			c-11.64,0-21.09-9.43-21.11-21.08c-0.01-11.66,9.42-21.13,21.08-21.15l130.56-0.23c0.07,0,0.15,0,0.23,0
			c39,0,73.8,18.59,95.52,51.02c21.75,32.47,25.65,71.82,10.69,107.96c-11.75,28.39-33.75,50.46-61.94,62.14
			C827.75,878,812.68,880.9,797.77,880.9z"/>
		<path fill="#DB553E" d="M191.25,629.62c-39,0-73.81-18.59-95.52-51.02c-21.75-32.49-25.65-71.83-10.69-107.95
			c11.77-28.41,33.77-50.47,61.95-62.14c43.35-17.98,92.7-8.15,125.71,24.98l90.91,91.23c8.23,8.26,8.2,21.63-0.05,29.85
			c-8.26,8.25-21.62,8.21-29.85-0.05l-90.91-91.23c-20.89-20.96-52.14-27.16-79.65-15.77c-17.77,7.35-31.65,21.31-39.1,39.29
			c-9.47,22.86-7,47.76,6.76,68.31c13.74,20.52,35.77,32.28,60.44,32.28c0.05,0,0.09,0,0.15,0l128.92-0.22c0.01,0,0.02,0,0.04,0
			c11.64,0,21.09,9.43,21.11,21.08c0.01,11.66-9.42,21.13-21.08,21.15l-128.92,0.22C191.4,629.62,191.32,629.62,191.25,629.62z"/>
		<path fill="#DB553E" d="M619.85,1058.77c-22.22,0-44.14-6.63-63.61-19.66c-32.49-21.75-51.08-56.65-51.02-95.76l0.17-210.39
			c0.01-9,5.72-17,14.23-19.94c31.07-10.73,51.94-39.98,51.94-72.81c0-32.76-20.84-62.01-51.85-72.78
			c-8.48-2.95-14.17-10.93-14.19-19.91l-0.29-210.36c-0.08-46.77,27.88-88.59,71.23-106.55c28.17-11.67,59.33-11.63,87.74,0.13
			c36.13,14.98,61.2,45.56,68.78,83.91c7.59,38.35-3.93,76.17-31.61,103.76l-91.79,91.45c-8.26,8.25-21.62,8.2-29.85-0.05
			c-8.23-8.26-8.2-21.63,0.05-29.85l91.79-91.45c17.51-17.46,24.81-41.4,20.01-65.66c-4.81-24.27-20.67-43.62-43.53-53.1
			c-17.96-7.43-37.65-7.48-55.42-0.12c-27.49,11.38-45.22,37.87-45.17,67.47l0.27,196.43c40.06,19.97,66.06,61.12,66.06,106.69
			c0,45.63-26.05,86.82-66.17,106.77l-0.16,196.42c-0.04,24.77,11.73,46.86,32.29,60.62c20.54,13.77,45.45,16.22,68.31,6.76
			c22.86-9.46,38.73-28.81,43.53-53.09c4.8-24.27-2.5-48.22-20.03-65.69l-92.69-92.35c-8.25-8.23-8.28-21.59-0.05-29.85
			c8.22-8.26,21.58-8.3,29.85-0.05l92.69,92.35c27.69,27.61,39.23,65.44,31.64,103.79c-7.59,38.37-32.67,68.94-68.79,83.9
			C649.72,1055.81,634.71,1058.77,619.85,1058.77z"/>
		<path fill="#DB553E" d="M369.07,1058.64c-14.92,0-29.88-2.95-44.13-8.85c-36.13-14.97-61.2-45.55-68.78-83.9
			c-7.59-38.36,3.93-76.19,31.62-103.76l92.12-91.79c8.28-8.23,21.64-8.2,29.85,0.05c8.23,8.26,8.2,21.63-0.05,29.85l-92.12,91.79
			c-17.52,17.45-24.81,41.39-20.01,65.67c4.81,24.26,20.67,43.61,43.53,53.08c17.98,7.45,37.67,7.5,55.44,0.14
			c27.48-11.39,45.21-37.88,45.15-67.47l0.01-196.35c-40.25-19.91-66.38-61.13-66.38-106.88c0-45.74,26.13-86.96,66.38-106.87
			v-196.2c0.04-24.78-11.73-46.87-32.29-60.64c-20.54-13.74-45.44-16.21-68.31-6.74c-22.86,9.46-38.72,28.81-43.53,53.07
			c-4.81,24.27,2.49,48.21,20.02,65.69l91.22,90.89c8.25,8.23,8.28,21.59,0.05,29.85c-8.23,8.25-21.59,8.28-29.85,0.05l-91.22-90.89
			c-27.7-27.61-39.23-65.44-31.63-103.79c7.59-38.34,32.65-68.91,68.78-83.87c36.13-14.95,75.46-11.08,107.95,10.66
			c32.49,21.76,51.09,56.66,51.03,95.76v210.2c0,9.03-5.74,17.05-14.27,19.97c-31.17,10.68-52.11,39.96-52.11,72.87
			c0,32.92,20.94,62.2,52.11,72.88c8.54,2.92,14.27,10.95,14.27,19.97l-0.01,210.34c0.08,46.73-27.88,88.56-71.23,106.52
			C398.65,1055.74,383.87,1058.64,369.07,1058.64z"/>
	</g>
</g>
</svg>
