<svg id="Layer_1" data-name="Layer 1" xmlns="http://www.w3.org/2000/svg" viewBox="0 0 252.43 278.01"><defs><style>.cls-1{fill:#deb3ff;}</style></defs><path class="cls-1" d="M150,289.8a126.22,126.22,0,0,1,0-252.43,128.49,128.49,0,0,1,19.2,1.43,50.58,50.58,0,0,1,10.7-13.52,54,54,0,0,1,41.88-13.17c33.12,3.57,54.62,24.29,53.5,51.56a34.22,34.22,0,0,1-47.49,30.18h0c-.3-.12-.79-.33-1.11-.48-3.72-1.77-10.42-6.89-14.09-9.79a101.54,101.54,0,0,0-24.18-14.1,31.08,31.08,0,0,0,8.92,16.25l.31.32c1.19,1.22,7.52,6.8,12.7,11.26l.3.27a90,90,0,0,1,28.13,53.68h25.12a12.32,12.32,0,0,1,12.32,12.32A126.36,126.36,0,0,1,150,289.8ZM150,62A101.58,101.58,0,1,0,250.8,175.91h-12A89.64,89.64,0,0,1,60.34,163.58c0-46.62,36.38-85.88,82.83-89.37A12.32,12.32,0,0,1,145,98.78a65,65,0,1,0,68.77,77.13H171.5a12.33,12.33,0,1,1,0-24.65h42.27a65.21,65.21,0,0,0-19.7-35.41c-2.86-2.47-11.41-9.87-14.06-12.56a55.62,55.62,0,0,1-16.9-40.13v-.32A104.06,104.06,0,0,0,150,62Zm87.28,9.1.1,0a9.57,9.57,0,0,0,13.28-8.44c.45-11-7.6-23.52-31.52-26.09a29.31,29.31,0,0,0-22.78,7c-.64.58-1.24,1.18-1.81,1.8A125.9,125.9,0,0,1,227.8,64.22C231.51,67.15,235.79,70.27,237.25,71.11Z" transform="translate(-23.76 -11.79)"/></svg>