<?xml version="1.0" encoding="utf-8"?>
<!-- Generator: Adobe Illustrator 25.0.0, SVG Export Plug-In . SVG Version: 6.00 Build 0)  -->
<svg version="1.1" id="Layer_1" xmlns="http://www.w3.org/2000/svg" xmlns:xlink="http://www.w3.org/1999/xlink" x="0px" y="0px"
	 viewBox="0 0 1000 1000" enable-background="new 0 0 1000 1000" xml:space="preserve">
<g>
	<path fill="#D2B7F9" d="M248.76,67.56C195.28,33.53,124.33,49.3,90.3,102.78c-34.03,53.48-18.26,124.43,35.22,158.46
		c53.48,34.03,124.43,18.26,158.46-35.22C318.01,172.53,302.24,101.59,248.76,67.56z M248.93,204.9
		c-22.57,34.05-68.64,43.36-102.48,20.71c-34.12-22.83-43.3-68.48-20.64-102.61c22.54-33.96,68.48-43.15,102.56-20.53
		C262.31,125.01,271.51,170.84,248.93,204.9z"/>
</g>
<g>
	<path fill="#D2B7F9" d="M98.08,496.91c17.11-12.6,41.84-18.9,74.19-18.9c29.08,0,52.06,5.13,68.94,15.4
		c16.87,10.26,27.02,25.74,30.45,46.43h-54.76c-0.03,0-0.07-0.03-0.08-0.06c-5-13.18-19.84-19.77-44.54-19.77
		c-15.4,0-26.95,2.65-34.64,7.93c-7.7,5.29-11.55,13.53-11.55,24.73c0,11.2,3.85,19.44,11.55,24.73c7.7,5.29,19.25,7.93,34.64,7.93
		c24.69,0,39.54-6.59,44.54-19.77c0.01-0.03,0.05-0.06,0.08-0.06l54.76,0c-3.42,20.69-13.57,36.16-30.45,46.43
		c-16.88,10.27-39.86,15.4-68.94,15.4c-32.35,0-57.08-6.3-74.19-18.9c-17.11-12.6-25.66-31.18-25.66-55.76
		C72.42,528.1,80.97,509.51,98.08,496.91z"/>
</g>
<g>
	<path fill="#D2B7F9" d="M289.14,622.66V482.68h53.66v139.98H289.14z"/>
</g>
<g>
	<path fill="#D2B7F9" d="M493.5,479.65c5.29,1.09,10.81,2.88,16.56,5.37l0,46.64c0,0.01-0.01,0.01-0.01,0.01
		c-7.46-2.64-13.83-4.46-19.12-5.48c-5.29-1.01-10.96-1.52-17.03-1.52c-9.65,0-19.05,2.1-28.23,6.3c-9.18,4.2-18.2,11.9-27.06,23.1
		v68.59h-53.66V482.68h53.66l0,30.26c0,0.02,0.03,0.03,0.04,0.01c7.14-12.41,15.34-21.33,24.58-26.77
		c9.25-5.44,20.18-8.17,32.78-8.17C482.38,478.01,488.21,478.56,493.5,479.65z"/>
</g>
<g>
	<path fill="#D2B7F9" d="M532.39,496.91c17.11-12.6,41.84-18.9,74.19-18.9c29.08,0,52.06,5.13,68.94,15.4
		c16.87,10.26,27.02,25.74,30.44,46.43H651.2c-0.03,0-0.07-0.03-0.08-0.06c-5-13.18-19.84-19.77-44.54-19.77
		c-15.4,0-26.95,2.65-34.64,7.93c-7.7,5.29-11.55,13.53-11.55,24.73c0,11.2,3.85,19.44,11.55,24.73c7.7,5.29,19.25,7.93,34.64,7.93
		c24.69,0,39.54-6.59,44.54-19.77c0.01-0.03,0.05-0.06,0.08-0.06l54.76,0c-3.42,20.69-13.57,36.16-30.44,46.43
		c-16.88,10.27-39.86,15.4-68.94,15.4c-32.35,0-57.08-6.3-74.19-18.9c-17.11-12.6-25.66-31.18-25.66-55.76
		C506.72,528.1,515.28,509.51,532.39,496.91z"/>
</g>
<g>
	<path fill="#D2B7F9" d="M874.98,485.25c12.67,4.82,22.16,12.56,28.46,23.21c6.3,10.66,9.52,24.85,9.68,42.58v71.62h-53.66l0-18.63
		c0-0.01-0.02-0.02-0.03-0.02c-11.66,7.15-24.52,12.43-38.58,15.85c-14.08,3.42-27.73,5.13-40.94,5.13
		c-19.75,0-35.46-3.5-47.13-10.5c-11.67-7-17.5-18.35-17.5-34.06c0-17.42,7.7-29.75,23.1-36.98c15.4-7.23,34.53-10.85,57.39-10.85
		c19.75,0,40.98,2.33,63.69,7c-0.62-9.02-4.63-15.32-12.01-18.9c-7.39-3.58-17.85-5.37-31.38-5.37c-12.29,0-24.77,0.9-37.44,2.68
		c-12.68,1.79-27.49,4.63-44.43,8.51c0,0-0.01,0-0.01-0.01l-7.46-36.62c35.61-7.93,68.74-11.9,99.38-11.9
		C846.02,478.01,862.31,480.43,874.98,485.25z M859.47,578.31v-5.97c0-1.38-1.03-2.56-2.4-2.75c-20.74-2.88-38.53-4.33-53.36-4.33
		c-11.82,0-20.18,0.86-25.08,2.57c-4.9,1.71-7.35,4.67-7.35,8.87c0,4.05,2.02,6.88,6.07,8.52c4.04,1.63,11.04,2.45,21,2.45
		c12.39,0,32-2.2,58.8-6.61C858.48,580.83,859.47,579.67,859.47,578.31z"/>
</g>
<g>
	<path fill="#D2B7F9" d="M493.5,479.65c4.76,0.98,9.71,2.53,14.86,4.65c1.03,0.43,1.71,1.45,1.71,2.57v40.93
		c0,1.89-1.86,3.22-3.66,2.62c-5.91-1.97-11.07-3.38-15.47-4.22c-5.29-1.01-10.96-1.52-17.03-1.52c-9.64,0-19.05,2.1-28.23,6.3
		c-8.97,4.1-17.78,11.54-26.44,22.32c-0.4,0.5-0.62,1.12-0.62,1.76v64.84c0,1.53-1.24,2.77-2.77,2.77h-48.12
		c-1.53,0-2.77-1.24-2.77-2.77V485.45c0-1.53,1.24-2.77,2.77-2.77h48.12c1.53,0,2.77,1.24,2.77,2.77v18.04
		c0,2.69,3.47,3.81,5.02,1.61c5.9-8.4,12.43-14.7,19.59-18.92c9.25-5.44,20.18-8.17,32.78-8.17
		C482.38,478.01,488.21,478.56,493.5,479.65z"/>
</g>
<g>
	<circle fill="#D2B7F9" cx="314.86" cy="422.67" r="45.31"/>
</g>
<g>
	<g>
		<path fill="#D2B7F9" d="M874.97,485.25c12.67,4.82,22.16,12.56,28.46,23.21c6.3,10.66,9.52,24.85,9.68,42.58v68.85
			c0,1.53-1.24,2.77-2.77,2.77h-48.12c-1.53,0-2.77-1.24-2.77-2.77v-11.06c0-2.12-2.27-3.45-4.12-2.41
			c-10.56,5.94-22.06,10.42-34.49,13.44c-14.08,3.42-27.73,5.13-40.94,5.13c-19.75,0-35.46-3.5-47.13-10.5
			c-11.67-7-17.5-18.35-17.5-34.06c0-17.42,7.7-29.75,23.1-36.98c15.4-7.23,34.53-10.85,57.39-10.85c18.64,0,38.6,2.08,59.88,6.24
			c1.95,0.38,3.67-1.34,3.27-3.28c-1.42-6.89-5.24-11.84-11.47-14.86c-7.39-3.58-17.85-5.37-31.38-5.37
			c-12.29,0-24.77,0.9-37.44,2.68c-11.98,1.69-25.87,4.32-41.67,7.89c-1.52,0.34-3.03-0.62-3.34-2.14l-6.35-31.17
			c-0.3-1.49,0.65-2.95,2.14-3.27c34.6-7.54,66.83-11.31,96.7-11.31C846.01,478.01,862.3,480.43,874.97,485.25z M859.46,578.31
			v-5.97c0-1.38-1.03-2.56-2.4-2.75c-20.74-2.88-38.53-4.33-53.36-4.33c-11.82,0-20.18,0.86-25.08,2.57
			c-4.9,1.71-7.35,4.67-7.35,8.87c0,4.05,2.02,6.88,6.07,8.52c4.04,1.63,11.04,2.45,21,2.45c12.39,0,32-2.2,58.8-6.61
			C858.47,580.83,859.46,579.67,859.46,578.31z"/>
	</g>
	<g>
		<path fill="#D2B7F9" d="M351.81,448.87c-5.55,7.99-13.67,14.07-23.94,17.13c-10.54,3.14-20.95,2.57-31.01-1.87
			c-11.94-5.27-20.12-14.16-24.63-26.42c-0.41-1.11-0.55-2.24-0.41-3.42c0.68-5.83,2.27-11.4,4.75-16.72
			c1.81-3.89,4.07-7.5,6.76-10.83c6.64-8.23,14.98-14.07,25.01-17.43c8.72-2.91,17.61-3.54,26.66-1.92
			c4.04,0.72,7.95,1.88,11.71,3.53c0.85,0.37,1.45,1.02,2.04,1.69c4.58,5.19,7.87,11.1,9.71,17.76c2.78,10.06,2.19,19.95-1.75,29.63
			C355.53,442.84,354.05,445.51,351.81,448.87z"/>
	</g>
	<g>
		<path fill="#D2B7F9" d="M98.07,496.91c17.11-12.6,41.84-18.9,74.19-18.9c29.08,0,52.06,5.13,68.94,15.4
			c15.95,9.7,25.89,24.06,29.82,43.07c0.36,1.73-0.96,3.35-2.72,3.35h-49.65c-1.06,0-2.05-0.6-2.49-1.57
			c-5.54-12.17-20.18-18.26-43.91-18.26c-15.4,0-26.95,2.65-34.64,7.93c-7.7,5.29-11.55,13.53-11.55,24.73
			c0,11.2,3.85,19.44,11.55,24.73c7.7,5.29,19.25,7.93,34.64,7.93c23.73,0,38.36-6.09,43.91-18.26c0.44-0.97,1.43-1.57,2.49-1.57
			h49.64c1.76,0,3.07,1.63,2.72,3.35c-3.93,19.01-13.87,33.37-29.82,43.07c-16.88,10.27-39.86,15.4-68.94,15.4
			c-32.35,0-57.08-6.3-74.19-18.9c-17.11-12.6-25.66-31.18-25.66-55.76C72.4,528.1,80.95,509.51,98.07,496.91z"/>
	</g>
	<g>
		<path fill="#D2B7F9" d="M532.38,496.91c17.11-12.6,41.84-18.9,74.19-18.9c29.08,0,52.06,5.13,68.94,15.4
			c15.95,9.7,25.89,24.06,29.82,43.07c0.36,1.73-0.96,3.35-2.72,3.35h-49.65c-1.06,0-2.05-0.6-2.49-1.57
			c-5.54-12.17-20.18-18.26-43.91-18.26c-15.4,0-26.95,2.65-34.64,7.93c-7.7,5.29-11.55,13.53-11.55,24.73
			c0,11.2,3.85,19.44,11.55,24.73c7.7,5.29,19.25,7.93,34.64,7.93c23.73,0,38.36-6.09,43.91-18.26c0.44-0.97,1.43-1.57,2.49-1.57
			h49.64c1.76,0,3.07,1.63,2.72,3.35c-3.93,19.01-13.87,33.37-29.82,43.07c-16.88,10.27-39.86,15.4-68.94,15.4
			c-32.35,0-57.08-6.3-74.19-18.9c-17.11-12.6-25.66-31.18-25.66-55.76C506.71,528.1,515.27,509.51,532.38,496.91z"/>
	</g>
	<g>
		<path fill="#D2B7F9" d="M289.13,619.89V485.45c0-1.53,1.24-2.77,2.77-2.77h48.12c1.53,0,2.77,1.24,2.77,2.77v134.44
			c0,1.53-1.24,2.77-2.77,2.77h-48.12C290.38,622.66,289.13,621.42,289.13,619.89z"/>
	</g>
	<g>
		<path fill="#D2B7F9" d="M493.5,479.65c4.76,0.98,9.71,2.53,14.86,4.65c1.03,0.43,1.71,1.45,1.71,2.57v40.93
			c0,1.89-1.86,3.22-3.66,2.62c-5.91-1.97-11.07-3.38-15.47-4.22c-5.29-1.01-10.96-1.52-17.03-1.52c-9.64,0-19.05,2.1-28.23,6.3
			c-8.97,4.1-17.78,11.54-26.44,22.32c-0.4,0.5-0.62,1.12-0.62,1.76v64.84c0,1.53-1.24,2.77-2.77,2.77h-48.12
			c-1.53,0-2.77-1.24-2.77-2.77V485.45c0-1.53,1.24-2.77,2.77-2.77h48.12c1.53,0,2.77,1.24,2.77,2.77v18.04
			c0,2.69,3.47,3.81,5.02,1.61c5.9-8.4,12.43-14.7,19.59-18.92c9.25-5.44,20.18-8.17,32.78-8.17
			C482.38,478.01,488.21,478.56,493.5,479.65z"/>
	</g>
</g>
<path fill="#2B2D2D" d="M351.81,448.87c-5.55,7.99-13.67,14.07-23.94,17.13c-10.54,3.14-20.95,2.57-31.01-1.87
	c-11.94-5.27-20.12-14.16-24.63-26.42c-0.41-1.11-0.55-2.24-0.41-3.42c0.68-5.83,2.27-11.4,4.75-16.72
	c1.81-3.89,4.07-7.5,6.76-10.83c6.64-8.23,14.98-14.07,25.01-17.43c8.72-2.91,17.61-3.54,26.66-1.92c4.04,0.72,7.95,1.88,11.71,3.53
	c0.85,0.37,1.45,1.02,2.04,1.69c4.58,5.19,7.87,11.1,9.71,17.76c2.78,10.06,2.19,19.95-1.75,29.63
	C355.53,442.84,354.05,445.51,351.81,448.87z"/>
<path fill="#2B2D2D" d="M913.12,619.89v-68.85c-0.02-2.09-0.22-3.96-0.33-5.95c-9.92-20.15-24.56-38.34-43.86-52.61
	c-7-5.18-14.33-9.55-21.87-13.3c-6.52-0.7-13.4-1.16-20.96-1.16c-29.87,0-62.11,3.77-96.7,11.31c-1.48,0.32-2.44,1.79-2.14,3.27
	l6.35,31.17c0.31,1.52,1.82,2.49,3.34,2.14c15.8-3.56,29.69-6.19,41.67-7.89c12.67-1.79,25.16-2.68,37.44-2.68
	c13.53,0,23.99,1.79,31.38,5.37c6.23,3.02,10.05,7.97,11.47,14.86c0.4,1.94-1.32,3.66-3.27,3.28c-21.28-4.16-41.24-6.24-59.88-6.24
	c-22.86,0-41.99,3.62-57.39,10.85c-15.4,7.23-23.1,19.56-23.1,36.98c0,15.71,5.83,27.06,17.5,34.06c11.66,7,27.37,10.5,47.13,10.5
	c13.22,0,26.87-1.71,40.94-5.13c12.44-3.02,23.94-7.5,34.49-13.44c1.84-1.04,4.12,0.29,4.12,2.41v11.06c0,1.53,1.24,2.77,2.77,2.77
	h48.12C911.88,622.66,913.12,621.42,913.12,619.89z M859.46,578.31c0,1.36-0.99,2.52-2.33,2.74c-26.8,4.41-46.4,6.61-58.8,6.61
	c-9.96,0-16.96-0.82-21-2.45c-4.05-1.63-6.07-4.47-6.07-8.52c0-4.2,2.45-7.15,7.35-8.87c4.9-1.71,13.26-2.57,25.08-2.57
	c14.83,0,32.61,1.44,53.36,4.33c1.37,0.19,2.4,1.37,2.4,2.75V578.31z"/>
<path fill="#2B2D2D" d="M268.3,565.5h-49.64c-1.06,0-2.05,0.6-2.49,1.57c-5.54,12.18-20.18,18.26-43.91,18.26
	c-15.4,0-26.95-2.64-34.64-7.93c-7.7-5.29-11.55-13.53-11.55-24.73c0-11.2,3.85-19.44,11.55-24.73c7.7-5.28,19.25-7.93,34.64-7.93
	c23.73,0,38.36,6.09,43.91,18.26c0.44,0.97,1.43,1.57,2.49,1.57h49.65c1.76,0,3.07-1.63,2.72-3.35
	c-3.93-19.01-13.87-33.37-29.82-43.07c-16.88-10.27-39.86-15.4-68.94-15.4c-22.1,0-40.55,3.01-55.54,8.89
	c-17.58,16.45-28.63,39.79-28.63,65.76c0,25.97,11.05,49.31,28.63,65.76c14.99,5.88,33.44,8.89,55.54,8.89
	c29.08,0,52.06-5.13,68.94-15.4c15.95-9.7,25.89-24.06,29.82-43.07C271.37,567.13,270.06,565.5,268.3,565.5z"/>
<path fill="#2B2D2D" d="M508.36,484.29c-5.14-2.11-10.09-3.66-14.86-4.65c-5.29-1.09-11.12-1.63-17.5-1.63
	c-12.6,0-23.53,2.72-32.78,8.16c-7.16,4.21-13.69,10.52-19.59,18.92c-1.55,2.2-5.02,1.08-5.02-1.61v-18.04
	c0-1.53-1.24-2.77-2.77-2.77h-48.12c-1.53,0-2.77,1.24-2.77,2.77v115.59c9.03,9.66,19.7,16.85,31.19,21.62h19.7
	c1.53,0,2.77-1.24,2.77-2.77v-64.84c0-0.64,0.22-1.26,0.62-1.76c8.67-10.78,17.48-18.22,26.45-22.32c9.17-4.2,18.58-6.3,28.23-6.3
	c6.07,0,11.74,0.51,17.03,1.52c4.4,0.84,9.56,2.25,15.47,4.22c1.79,0.6,3.66-0.73,3.66-2.62v-40.93
	C510.07,485.74,509.39,484.72,508.36,484.29z"/>
<path fill="#2B2D2D" d="M311.6,482.68h-9v0h-10.7c-1.53,0-2.77,1.24-2.77,2.77v134.44c0,1.53,1.24,2.77,2.77,2.77h10.7h37.42h0
	c0.64,0,1.2-0.25,1.67-0.62c0.09-0.07,0.2-0.11,0.29-0.19c0.25-0.25,0.45-0.55,0.59-0.88c0.14-0.33,0.22-0.7,0.22-1.08v0V507.44
	v-3.14C333.77,494.64,323.1,487.45,311.6,482.68z"/>
<path fill="#2B2D2D" d="M702.61,565.5h-49.65c-1.06,0-2.05,0.6-2.49,1.57c-5.54,12.18-20.18,18.26-43.91,18.26
	c-15.4,0-26.95-2.64-34.64-7.93c-7.7-5.29-11.55-13.53-11.55-24.73c0-11.2,3.85-19.44,11.55-24.73c7.7-5.28,19.25-7.93,34.64-7.93
	c23.73,0,38.36,6.09,43.91,18.26c0.44,0.97,1.43,1.57,2.49,1.57h49.65c1.76,0,3.07-1.63,2.72-3.35
	c-3.93-19.01-13.87-33.37-29.82-43.07c-16.88-10.27-39.86-15.4-68.94-15.4c-22.1,0-40.55,3.01-55.54,8.89
	c-17.58,16.45-28.63,39.79-28.63,65.76c0,25.97,11.05,49.31,28.63,65.76c14.99,5.88,33.44,8.89,55.54,8.89
	c29.08,0,52.06-5.13,68.94-15.4c15.95-9.7,25.89-24.06,29.82-43.07C705.68,567.13,704.37,565.5,702.61,565.5z"/>
<g>
	<g>
		
			<circle fill="none" stroke="#2B2D2D" stroke-width="2.5021" stroke-linecap="round" stroke-linejoin="round" stroke-dasharray="14.6967,24.4945" cx="214.78" cy="208.92" r="137.22"/>
	</g>
</g>
<path fill="none" stroke="#2B2D2D" stroke-width="2.0529" stroke-linecap="round" stroke-linejoin="round" stroke-miterlimit="10" stroke-dasharray="12.3176,20.5294" d="
	M430.86,629.61c-49.78,0-90.14-40.36-90.14-90.14s40.36-90.14,90.14-90.14s90.14,40.36,90.14,90.14S480.64,629.61,430.86,629.61z"/>
<path fill="none" stroke="#2B2D2D" stroke-width="2.0529" stroke-linecap="round" stroke-linejoin="round" stroke-miterlimit="10" stroke-dasharray="12.3176,20.5294" d="
	M178.22,642.8c-49.78,0-90.14-40.36-90.14-90.14s40.36-90.14,90.14-90.14s90.14,40.36,90.14,90.14S228,642.8,178.22,642.8z"/>
<path fill="none" stroke="#2B2D2D" stroke-width="2.0529" stroke-linecap="round" stroke-linejoin="round" stroke-miterlimit="10" stroke-dasharray="12.3176,20.5294" d="
	M277,656.06c-49.78,0-90.14-40.36-90.14-90.14s40.36-90.14,90.14-90.14s90.14,40.36,90.14,90.14S326.78,656.06,277,656.06z"/>
<path fill="none" stroke="#2B2D2D" stroke-width="2.0529" stroke-linecap="round" stroke-linejoin="round" stroke-miterlimit="10" stroke-dasharray="12.3176,20.5294" d="
	M326,495.96c-30.18,0-54.64-24.46-54.64-54.64c0-30.18,24.46-54.64,54.64-54.64c30.18,0,54.64,24.46,54.64,54.64
	C380.64,471.5,356.18,495.96,326,495.96z"/>
<path fill="none" stroke="#2B2D2D" stroke-width="2.0529" stroke-linecap="round" stroke-linejoin="round" stroke-miterlimit="10" stroke-dasharray="12.3176,20.5294" d="
	M612.53,642.8c-49.78,0-90.14-40.36-90.14-90.14s40.36-90.14,90.14-90.14s90.14,40.36,90.14,90.14S662.31,642.8,612.53,642.8z"/>
<path fill="none" stroke="#2B2D2D" stroke-width="2.0529" stroke-linecap="round" stroke-linejoin="round" stroke-miterlimit="10" stroke-dasharray="12.3176,20.5294" d="
	M783.58,753.26c-79.76,0-144.42-64.66-144.42-144.42s64.66-144.42,144.42-144.42S928,529.09,928,608.85S863.34,753.26,783.58,753.26
	z"/>
<g id="_x3C_Radial_Repeat_x3E__1_">
	<g>
		<path fill="#2B2D2D" d="M281.39,229.54c-13.88,20.41-34.32,36.05-60.3,44.07c-26.66,8.24-53.09,7.06-78.73-3.94
			c-30.43-13.05-51.42-35.4-63.18-66.38c-1.07-2.81-1.44-5.68-1.12-8.67c1.57-14.81,5.47-28.98,11.61-42.54
			c4.48-9.91,10.13-19.14,16.86-27.65c16.64-21.04,37.63-36.09,63.01-44.86c22.04-7.62,44.59-9.44,67.59-5.57
			c10.26,1.73,20.21,4.57,29.79,8.66c2.16,0.92,3.71,2.56,5.22,4.23c11.75,13.04,20.24,27.95,25.09,44.81
			c7.32,25.46,6.08,50.56-3.68,75.22C290.69,214.17,286.99,220.96,281.39,229.54z M248.8,205c22.63-34.14,13.41-80.09-20.61-102.68
			c-34.16-22.68-80.21-13.46-102.81,20.58c-22.71,34.21-13.51,79.97,20.69,102.86C180,248.47,226.17,239.13,248.8,205z"/>
	</g>
</g>
<g>
	<g>
		<path fill="#D2B7F9" d="M909.39,141.67c-0.02-0.37-0.09-0.75-0.11-1.12c-0.02-0.26,0.01-0.52,0.01-0.78c0-0.63,0-1.26,0-1.89
			c0-0.28,0.01-0.56,0.02-0.84c0-0.56,0-1.12-0.01-1.68c0-0.21-0.02-0.42-0.05-0.63c-0.13-1.17-0.3-2.33-0.37-3.5
			c-0.04-0.76-0.32-1.52-0.08-2.3c0.05-0.17,0.04-0.39-0.01-0.56c-0.53-1.83-0.58-3.76-1.12-5.59c-0.09-0.32-0.21-0.63-0.28-0.95
			c-0.11-0.45-0.17-0.92-0.29-1.37c-0.08-0.31-0.18-0.63-0.33-0.92c-0.21-0.4-0.39-0.79-0.39-1.27c0-0.26-0.12-0.53-0.23-0.79
			c-0.14-0.35-0.37-0.67-0.46-1.03c-0.41-1.5-1.31-2.76-2.01-4.12c-0.28-0.54-0.56-1.09-0.86-1.62c-0.12-0.23-0.26-0.45-0.43-0.64
			c-0.6-0.67-1.29-1.26-1.81-1.99c-1.03-1.46-2.52-2.5-3.53-3.96c-1.01-1.46-2.38-2.56-3.58-3.81c-0.6-0.63-1.31-1.15-1.96-1.73
			c-0.47-0.43-0.9-0.89-1.36-1.32c-0.86-0.81-1.68-1.66-2.59-2.42c-1.28-1.07-2.64-2.05-3.95-3.09c-2.33-1.86-4.84-3.45-7.31-5.09
			c-2.01-1.33-4.07-2.57-6.21-3.67c-0.84-0.43-1.65-0.91-2.47-1.38c-0.11-0.06-0.18-0.2-0.26-0.31c0,0,0.01,0.02,0.01,0.02
			c-0.17,0.01-0.36,0.07-0.42-0.18c0,0,0.01,0.01,0.01,0.01c-0.1-0.05-0.19-0.1-0.29-0.15c0,0,0.01,0,0.01,0c-0.07,0-0.14,0-0.22,0
			c0.02-0.03,0.03-0.07,0.05-0.1c-0.16-0.09-0.32-0.2-0.49-0.27c-2.08-0.89-4.15-1.82-6.26-2.65c-4.95-1.94-9.99-3.61-15.15-4.88
			c-3.21-0.79-6.44-1.47-9.7-2.02c-4.06-0.68-8.13-1.2-12.23-1.48c-2.78-0.19-5.57-0.25-8.36-0.31c-1.63-0.03-3.26,0.04-4.89,0.11
			c-1.75,0.07-3.49,0.19-5.24,0.3c-1.6,0.1-3.22,0.13-4.81,0.32c-2.6,0.3-5.2,0.7-7.79,1.07c-4.02,0.58-7.99,1.46-11.92,2.45
			c-4.99,1.26-9.9,2.8-14.73,4.6c-3.34,1.24-6.64,2.6-9.86,4.13c-2.86,1.36-5.7,2.76-8.48,4.25c-2.48,1.33-4.9,2.76-7.29,4.23
			c-1.89,1.16-3.72,2.42-5.57,3.66c-1.53,1.03-3.08,2.03-4.54,3.15c-2.55,1.96-5.06,3.97-7.53,6.02c-2.03,1.69-4.02,3.44-5.97,5.24
			c-1.67,1.54-3.28,3.14-4.86,4.76c-1.52,1.55-3.03,3.12-4.46,4.77c-2.11,2.43-4.19,4.88-6.18,7.4c-1.77,2.24-3.44,4.57-5.1,6.91
			c-1.2,1.69-2.32,3.44-3.47,5.17c-0.04,0.06-0.07,0.12-0.11,0.18c-1.71,2.92-3.46,5.81-5.11,8.76c-4.43,7.96-7.85,16.35-10.7,24.99
			c-1.52,4.61-2.7,9.31-3.69,14.05c-0.98,4.65-1.76,9.34-2.16,14.08c-0.26,3.11-0.55,6.22-0.66,9.34
			c-0.21,6.18-0.06,12.35,0.68,18.49c0.3,2.53,0.65,5.06,1.05,7.58c0.59,3.74,1.42,7.43,2.36,11.09c0.9,3.5,2.01,6.94,3.22,10.35
			c2.89,8.17,6.67,15.9,11.21,23.28c2.81,4.56,5.95,8.89,9.36,13c2.87,3.46,5.84,6.84,9.13,9.91c1.53,1.43,3.23,2.62,5.1,3.56
			c2.27,1.13,4.69,1.85,7.12,2.54c0.16-0.12,0.31-0.15,0.42,0.07l-0.01-0.02c0.75,0.08,1.52,0.06,2.23,0.27
			c1.15,0.34,2.35,0.33,3.5,0.68c0.53,0.16,1.12,0.13,1.68,0.18c1.68,0.16,3.37,0.36,5.05,0.46c0.72,0.04,1.43,0.12,2.15,0.22
			c0.36,0.05,0.74-0.11,1.12-0.1c1.37,0.03,2.73,0.13,4.1,0.12c2.1-0.01,4.2-0.05,6.3-0.15c1.48-0.07,2.95-0.27,4.42-0.4
			c0.84-0.07,1.69-0.08,2.54-0.16c0.77-0.07,1.54-0.2,2.3-0.3c0.6-0.08,1.21-0.16,1.81-0.25c1.37-0.21,2.74-0.42,4.11-0.63
			c1.11-0.17,2.23-0.33,3.34-0.51c0.53-0.09,1.05-0.21,1.58-0.32c1.06-0.22,2.12-0.43,3.17-0.67c1.24-0.29,2.47-0.59,3.7-0.91
			c2.25-0.58,4.5-1.17,6.75-1.78c1-0.27,1.99-0.59,2.98-0.89c1.42-0.43,2.85-0.82,4.26-1.29c1.65-0.56,3.28-1.18,4.9-1.79
			c1.08-0.41,2.14-0.85,3.21-1.28c0.9-0.36,1.79-0.74,2.69-1.09c0.35-0.14,0.72-0.22,1.07-0.35c1.82-0.64,3.66-1.23,5.35-2.21
			c0.73-0.42,1.52-0.75,2.26-1.15c1.81-0.99,3.74-1.69,5.6-2.53c1.2-0.54,2.33-1.23,3.47-1.89c1.12-0.65,2.17-1.45,3.33-2
			c1.36-0.65,2.57-1.58,4.05-2c0.5-0.14,0.94-0.52,1.4-0.81c0.97-0.63,1.93-1.26,2.88-1.91c0.73-0.5,1.44-1.05,2.17-1.56
			c0.85-0.59,1.7-1.19,2.58-1.73c1.71-1.04,3.44-2.06,5.05-3.25c0.77-0.58,1.51-1.2,2.27-1.79c1.36-1.05,2.72-2.1,4.08-3.15
			c0.02-0.01,0.04-0.02,0.06-0.04c0.82-0.71,1.62-1.43,2.45-2.13c0.97-0.83,1.95-1.63,2.92-2.46c0.61-0.52,1.19-1.08,1.82-1.57
			c1.38-1.07,2.68-2.24,3.91-3.47c0.71-0.71,1.54-1.31,2.27-2.02c1.32-1.28,2.63-2.57,3.9-3.91c1.1-1.16,2.13-2.39,3.19-3.58
			c0.94-1.05,1.9-2.09,2.83-3.15c0.59-0.67,1.15-1.37,1.73-2.05c0.68-0.81,1.37-1.62,2.05-2.42c0.59-0.7,1.18-1.4,1.77-2.11
			c0.35-0.42,0.69-0.83,1.03-1.26c1.18-1.53,2.33-3.07,3.54-4.58c0.42-0.52,0.63-1.15,1.01-1.69c0.57-0.81,1.15-1.61,1.71-2.43
			c0.52-0.76,1.02-1.53,1.53-2.29c0.97-1.42,1.9-2.87,2.93-4.24c0.74-0.99,1.19-2.13,1.78-3.2c0.68-1.24,1.41-2.45,2.12-3.68
			c0.58-1,1.14-2,1.73-3c0.28-0.47,0.62-0.9,0.87-1.37c0.33-0.63,0.6-1.28,0.89-1.93c0.31-0.69,0.57-1.39,0.91-2.06
			c0.68-1.37,1.45-2.71,2.1-4.09c0.91-1.94,1.76-3.91,2.61-5.88c0.91-2.12,1.82-4.25,2.68-6.4c0.64-1.62,1.3-3.24,1.68-4.95
			c0.12-0.53,0.27-1.05,0.43-1.57c0.53-1.71,1.06-3.42,1.61-5.13c0.56-1.73,1.16-3.44,1.72-5.17c0.79-2.44,1.43-4.93,1.9-7.45
			c0.3-1.61,0.49-3.25,0.75-4.87c0.08-0.51,0.16-1.03,0.32-1.52c0.53-1.67,0.7-3.4,0.83-5.14c0.08-1.03,0.33-2.04,0.47-3.06
			c0.14-1.02,0.24-2.05,0.35-3.08c0.01-0.12-0.03-0.25,0.01-0.35c0.31-0.83,0.23-1.72,0.36-2.57c0.02-0.12,0.04-0.23,0.05-0.35
			C909.23,147.19,909.51,144.44,909.39,141.67z M873.19,212.54c-0.99,3.36-2.35,6.58-3.76,9.78c-2.91,6.6-6.6,12.75-10.93,18.52
			c-0.79,1.06-1.66,2.06-2.5,3.08c-2.48,0.19-4.46,2.45-4.29,4.82c-1.88,2.13-3.91,4.12-6.07,5.98c-0.56,0.53-1.1,1.08-1.69,1.57
			c0.59-0.5,1.13-1.04,1.69-1.57c-2.28-0.22-4.66,1.69-4.86,4.08c-1.42,1.05-2.83,2.13-4.28,3.15c-7.19,5.06-14.95,9-23.27,11.83
			c-4.16,1.41-8.4,2.51-12.72,3.32c-0.97,0.18-1.96,0.29-2.94,0.43c-0.9-0.34-1.8-0.7-2.71-1.03c-2.94-1.08-5.71-2.51-8.4-4.08
			c-7.27-4.26-13.18-9.98-17.91-16.91c-4.49-6.6-7.36-13.87-8.85-21.71c-0.81-4.3-1.13-8.63-0.98-12.99
			c0.05-1.42,0.14-2.83,0.28-4.25c0.53-5.29,1.73-10.42,3.6-15.4c2.74-7.32,6.68-13.93,11.81-19.82c4.46-5.12,9.61-9.44,15.43-12.95
			c3.98-2.4,8.16-4.35,12.57-5.83c3.12-1.05,6.29-1.84,9.53-2.41c2.31-0.4,4.63-0.63,6.97-0.77c0.48-0.03,0.96-0.05,1.44-0.08
			c2.03,0.05,4.07,0.01,6.1,0.15c7.33,0.5,14.32,2.3,20.98,5.44c4.5,2.12,8.61,4.82,12.42,8.01c2.24,1.87,4.29,3.93,6.2,6.13
			c0.14,0.16,0.3,0.3,0.45,0.45v0c0.03,0.04,0.06,0.07,0.09,0.11c0.06,0.05,0.12,0.1,0.19,0.16l-0.02,0
			c0.02,0.04,0.05,0.08,0.07,0.13c1.09,1.46,2.22,2.88,3.25,4.38c2.65,3.88,4.73,8.06,6.34,12.48c0.09,0.25,0.11,0.55,0.08,0.82
			C875.86,202.65,874.64,207.62,873.19,212.54z"/>
	</g>
	<path fill="#9E89BB" d="M718.84,309.08c0.75,0.08,1.52,0.06,2.23,0.27c1.15,0.34,2.35,0.33,3.5,0.68c0.53,0.16,1.12,0.13,1.68,0.18
		c1.68,0.16,3.37,0.36,5.05,0.46c0.72,0.04,1.43,0.12,2.15,0.22c0.36,0.05,0.74-0.11,1.12-0.1c1.37,0.03,2.73,0.13,4.1,0.12
		c2.1-0.01,4.2-0.05,6.3-0.15c1.48-0.07,2.95-0.27,4.42-0.4c0.84-0.07,1.69-0.08,2.54-0.16c0.77-0.07,1.54-0.2,2.3-0.3
		c0.6-0.08,1.21-0.16,1.81-0.25c1.37-0.21,2.74-0.42,4.11-0.63c1.11-0.17,2.23-0.33,3.34-0.51c0.53-0.09,1.05-0.21,1.58-0.32
		c1.06-0.22,2.12-0.43,3.17-0.67c1.24-0.29,2.47-0.59,3.7-0.91c2.25-0.58,4.5-1.17,6.75-1.78c1-0.27,1.99-0.59,2.98-0.89
		c1.42-0.43,2.85-0.82,4.26-1.29c1.65-0.56,3.28-1.18,4.9-1.79c1.08-0.41,2.14-0.85,3.21-1.28c0.9-0.36,1.79-0.74,2.69-1.09
		c0.35-0.14,0.72-0.23,1.07-0.35c1.82-0.64,3.66-1.23,5.35-2.21c0.73-0.42,1.52-0.75,2.26-1.15c1.81-0.99,3.74-1.69,5.6-2.53
		c1.2-0.54,2.33-1.23,3.47-1.89c1.12-0.65,2.17-1.45,3.33-2c1.36-0.65,2.57-1.58,4.05-2c0.5-0.14,0.94-0.52,1.4-0.81
		c0.97-0.63,1.93-1.26,2.88-1.91c0.73-0.5,1.44-1.05,2.17-1.56c0.85-0.59,1.7-1.19,2.58-1.73c1.71-1.04,3.44-2.06,5.05-3.25
		c0.77-0.58,1.51-1.2,2.27-1.79c1.36-1.05,2.72-2.1,4.08-3.15c0.02-0.01,0.04-0.02,0.06-0.04c0.82-0.71,1.62-1.43,2.45-2.13
		c0.97-0.83,1.95-1.63,2.92-2.46c0.61-0.52,1.19-1.08,1.82-1.57c1.38-1.07,2.68-2.24,3.91-3.47c0.71-0.71,1.54-1.31,2.27-2.02
		c1.32-1.28,2.63-2.57,3.9-3.91c1.1-1.16,2.13-2.39,3.19-3.58c0.94-1.05,1.9-2.09,2.83-3.15c0.59-0.67,1.15-1.37,1.73-2.05
		c0.68-0.81,1.37-1.62,2.05-2.42c0.59-0.7,1.18-1.4,1.77-2.11c0.35-0.42,0.69-0.83,1.03-1.26c1.18-1.53,2.33-3.07,3.54-4.58
		c0.42-0.52,0.63-1.15,1.01-1.69c0.57-0.81,1.15-1.61,1.71-2.43c0.52-0.76,1.02-1.53,1.53-2.29c0.97-1.42,1.9-2.87,2.93-4.24
		c0.74-0.99,1.19-2.13,1.78-3.2c0.68-1.24,1.41-2.45,2.12-3.68c0.58-1,1.14-2,1.73-3c0.28-0.47,0.62-0.9,0.87-1.37
		c0.33-0.63,0.6-1.28,0.89-1.93c0.31-0.69,0.57-1.39,0.91-2.06c0.68-1.37,1.45-2.71,2.1-4.09c0.91-1.94,1.76-3.91,2.61-5.88
		c0.91-2.12,1.82-4.25,2.68-6.4c0.64-1.62,1.3-3.24,1.68-4.95c0.12-0.53,0.27-1.05,0.43-1.57c0.53-1.71,1.06-3.42,1.61-5.13
		c0.56-1.73,1.16-3.44,1.72-5.17c0.79-2.44,1.43-4.93,1.9-7.45c0.3-1.61,0.49-3.25,0.75-4.87c0.08-0.51,0.16-1.03,0.32-1.52
		c0.53-1.67,0.7-3.4,0.83-5.14c0.08-1.03,0.33-2.04,0.47-3.06c0.14-1.02,0.24-2.05,0.35-3.08c0.01-0.12-0.03-0.25,0.01-0.35
		c0.31-0.83,0.23-1.72,0.36-2.57c0.02-0.12,0.04-0.23,0.05-0.35c0.13-2.76,0.41-5.51,0.29-8.27c-0.02-0.37-0.09-0.75-0.11-1.12
		c-0.02-0.26,0.01-0.52,0.01-0.78c0-0.63,0-1.26,0-1.89c0-0.28,0.01-0.56,0.02-0.84c0-0.56,0-1.12-0.01-1.68
		c0-0.21-0.02-0.42-0.05-0.63c-0.13-1.17-0.3-2.33-0.37-3.5c-0.04-0.76-0.32-1.52-0.08-2.3c0.05-0.17,0.04-0.39-0.01-0.56
		c-0.53-1.83-0.58-3.76-1.12-5.59c-0.09-0.32-0.21-0.63-0.28-0.95c-0.11-0.45-0.17-0.92-0.29-1.37c-0.08-0.31-0.18-0.63-0.33-0.92
		c-0.21-0.4-0.39-0.79-0.39-1.27c0-0.26-0.12-0.53-0.23-0.79c-0.14-0.35-0.37-0.67-0.46-1.03c-0.41-1.5-1.31-2.76-2.01-4.12
		c-0.28-0.54-0.56-1.09-0.86-1.62c-0.12-0.23-0.26-0.45-0.43-0.64c-0.6-0.67-1.29-1.26-1.81-1.99c-1.03-1.46-2.52-2.5-3.53-3.96
		c-1.01-1.46-2.38-2.56-3.58-3.81c-0.6-0.63-1.31-1.15-1.96-1.73c-0.47-0.43-0.9-0.89-1.36-1.32c-0.86-0.81-1.68-1.66-2.59-2.42
		c-1.28-1.07-2.64-2.05-3.95-3.09c-2.33-1.86-4.84-3.45-7.31-5.09c-2.01-1.33-4.07-2.57-6.21-3.67c-0.84-0.43-1.65-0.91-2.47-1.38
		c-0.11-0.06-0.18-0.2-0.26-0.31c1.07,0.5,2.16,0.94,3.19,1.51c2.98,1.64,5.97,3.27,8.89,5.02c2.11,1.26,4.14,2.65,6.14,4.08
		c2.06,1.46,4.09,2.98,6.05,4.57c4.02,3.27,7.86,6.75,11.4,10.54c2.1,2.25,3.62,4.83,4.63,7.73c1.11,3.15,1.95,6.36,2.5,9.66
		c0.44,2.64,0.77,5.29,0.91,7.96c0.13,2.41,0.3,4.82,0.37,7.23c0.05,1.75,0.04,3.51-0.07,5.25c-0.23,3.51-0.48,7.03-0.85,10.53
		c-0.68,6.45-1.84,12.82-3.08,19.18c-1.18,6.03-2.31,12.07-3.46,18.11c-0.97,5.08-1.94,10.17-2.93,15.25
		c-0.55,2.85-1.06,5.72-1.71,8.55c-0.94,4.1-2.29,8.09-3.67,12.07c-1.67,4.82-3.86,9.4-6.26,13.88
		c-6.47,12.1-14.96,22.62-25.2,31.73c-6.85,6.1-14.33,11.29-22.45,15.56c-5.21,2.74-10.61,5.07-16.2,6.94
		c-4.87,1.63-9.84,2.83-14.88,3.79c-4.59,0.88-9.17,1.82-13.75,2.73c-4.68,0.93-9.35,1.87-14.03,2.8
		c-3.68,0.73-7.36,1.49-11.05,2.18c-3.71,0.69-7.43,1.35-11.17,1.92c-2.8,0.43-5.63,0.69-8.44,1.02c-0.87,0.1-1.74,0.18-2.61,0.27
		c-0.29,0.03-0.59,0.05-0.88,0.08c-3.95,0.21-7.9,0.31-11.85,0.15c-2.15-0.09-4.28-0.36-6.43-0.51c-2.76-0.19-5.48-0.68-8.19-1.16
		c-1.07-0.19-2.12-0.46-3.18-0.69C719.04,309.2,718.94,309.13,718.84,309.08z"/>
	<path fill="#E49C98" d="M748.8,311.44c0.29-0.03,0.59-0.05,0.88-0.08C749.38,311.38,749.09,311.41,748.8,311.44z"/>
	<path fill="#CF4841" d="M867.39,81.32c-0.17,0.01-0.36,0.07-0.42-0.18C867.1,81.2,867.25,81.26,867.39,81.32z"/>
	<path fill="#CF4841" d="M718.43,309.03c0.16-0.12,0.31-0.15,0.42,0.07C718.71,309.07,718.57,309.05,718.43,309.03z"/>
	<path fill="#CF4841" d="M866.7,81c-0.07,0-0.14,0-0.22,0c0.02-0.03,0.03-0.07,0.05-0.1C866.58,80.93,866.64,80.97,866.7,81z"/>
	<path fill="#CF4841" d="M866.97,81.15c-0.1-0.05-0.19-0.1-0.29-0.15C866.78,81.05,866.87,81.1,866.97,81.15z"/>
	<path fill="#9E89BB" d="M797.59,277.52c-88.18,15.3-137.61-79.25-77.46-143.96c30.74-35.67,90.07-40.8,125.22-8.37
		c14.64,14.19,6.48,40.24,21.16,54.3C795.7,111.67,705.87,234.54,797.59,277.52z"/>
	<path fill="#DB9243" d="M851.71,248.74c-0.17-2.37,1.81-4.63,4.29-4.82c-0.73,0.89-1.44,1.79-2.19,2.66
		c-0.52,0.61-1.07,1.18-1.62,1.76C852.05,248.49,851.88,248.61,851.71,248.74z"/>
	<path fill="#DB9243" d="M840.78,258.8c0.2-2.39,2.58-4.3,4.86-4.08c-0.56,0.53-1.1,1.08-1.69,1.57c-0.98,0.83-1.99,1.62-2.99,2.42
		C840.92,258.75,840.84,258.77,840.78,258.8z"/>
	<path fill="#CF4841" d="M866.79,179.75c-0.06-0.05-0.12-0.1-0.19-0.16C866.67,179.64,866.73,179.69,866.79,179.75z"/>
	<path fill="#CF4841" d="M866.84,179.87c-0.02-0.04-0.05-0.08-0.07-0.13C866.79,179.79,866.82,179.83,866.84,179.87z"/>
	<path fill="#E49C98" d="M820.38,159.3c-0.48,0.03-0.96,0.05-1.44,0.08C819.41,159.35,819.9,159.32,820.38,159.3z"/>
	<g>
		<path fill="#796696" d="M813.52,69.28c0.27,0,0.53,0,0.8,0.01c2.79,0.05,5.58,0.11,8.36,0.31c4.1,0.28,8.18,0.8,12.23,1.48
			c3.26,0.55,6.49,1.23,9.7,2.02c5.16,1.27,10.2,2.94,15.15,4.88c2.11,0.83,4.18,1.76,6.26,2.65c0.17,0.07,0.33,0.18,0.49,0.27
			c0.06,0.03,0.11,0.07,0.17,0.1c0,0-0.01,0-0.01,0c0.1,0.05,0.19,0.1,0.29,0.15c0,0-0.01-0.01-0.01-0.01
			c0.14,0.06,0.28,0.12,0.42,0.18c0,0-0.01-0.02-0.01-0.02c1.07,0.5,2.16,0.94,3.19,1.51c2.98,1.64,5.97,3.27,8.89,5.02
			c2.11,1.26,4.14,2.65,6.14,4.08c2.06,1.46,4.09,2.98,6.05,4.57c4.02,3.27,7.86,6.75,11.4,10.54c2.1,2.25,3.62,4.83,4.63,7.73
			c1.11,3.15,1.95,6.36,2.5,9.66c0.44,2.64,0.77,5.29,0.91,7.96c0.13,2.41,0.3,4.82,0.37,7.23c0.05,1.75,0.04,3.51-0.07,5.25
			c-0.23,3.51-0.48,7.03-0.85,10.53c-0.68,6.45-1.84,12.82-3.08,19.18c-1.18,6.03-2.31,12.07-3.46,18.11
			c-0.97,5.08-1.94,10.17-2.93,15.25c-0.55,2.85-1.06,5.72-1.71,8.55c-0.94,4.1-2.29,8.09-3.67,12.07
			c-1.67,4.82-3.86,9.4-6.26,13.88c-6.47,12.1-14.95,22.62-25.2,31.73c-6.85,6.1-14.33,11.29-22.45,15.56
			c-5.21,2.74-10.61,5.07-16.2,6.94c-4.87,1.63-9.84,2.83-14.88,3.79c-4.59,0.88-9.17,1.82-13.75,2.73
			c-4.68,0.93-9.35,1.87-14.03,2.8c-3.68,0.73-7.36,1.49-11.05,2.18c-3.71,0.69-7.43,1.35-11.17,1.92c-2.8,0.43-5.63,0.69-8.44,1.02
			c-0.87,0.1-1.74,0.18-2.61,0.27c-0.29,0.03-0.59,0.05-0.88,0.08c-2.6,0.14-5.19,0.23-7.79,0.23c-1.35,0-2.7-0.03-4.06-0.08
			c-2.15-0.09-4.28-0.36-6.43-0.51c-2.76-0.19-5.48-0.68-8.19-1.16c-1.07-0.19-2.12-0.46-3.18-0.69c-0.11-0.02-0.2-0.1-0.3-0.15
			l0.01,0.02c-0.14-0.02-0.28-0.05-0.42-0.07c-2.43-0.68-4.85-1.41-7.12-2.54c-1.87-0.93-3.57-2.13-5.1-3.56
			c-3.3-3.07-6.27-6.45-9.13-9.91c-3.41-4.12-6.55-8.44-9.36-13c-4.54-7.37-8.32-15.11-11.21-23.28c-1.21-3.41-2.32-6.85-3.22-10.35
			c-0.94-3.66-1.76-7.35-2.36-11.09c-0.4-2.52-0.75-5.05-1.05-7.58c-0.74-6.14-0.89-12.32-0.68-18.49c0.11-3.12,0.39-6.23,0.66-9.34
			c0.4-4.74,1.18-9.43,2.16-14.08c1-4.74,2.18-9.44,3.69-14.05c2.85-8.64,6.27-17.03,10.7-24.99c1.64-2.95,3.4-5.84,5.11-8.76
			c0.04-0.06,0.07-0.12,0.11-0.18c1.15-1.73,2.27-3.48,3.47-5.17c1.66-2.33,3.33-4.66,5.1-6.91c1.99-2.52,4.08-4.97,6.18-7.4
			c1.43-1.64,2.93-3.21,4.46-4.77c1.59-1.62,3.2-3.23,4.86-4.76c1.95-1.79,3.93-3.54,5.97-5.24c2.47-2.05,4.98-4.06,7.53-6.02
			c1.46-1.12,3.01-2.12,4.54-3.15c1.84-1.24,3.67-2.5,5.57-3.66c2.4-1.47,4.82-2.9,7.29-4.23c2.79-1.49,5.63-2.89,8.48-4.25
			c3.22-1.53,6.52-2.89,9.86-4.13c4.83-1.79,9.73-3.34,14.73-4.6c3.94-0.99,7.9-1.88,11.92-2.45c2.59-0.37,5.19-0.77,7.79-1.07
			c1.59-0.19,3.21-0.22,4.81-0.32c1.75-0.11,3.49-0.23,5.24-0.3C810.79,69.35,812.16,69.28,813.52,69.28 M797.59,277.52
			c0.98-0.14,1.96-0.25,2.94-0.43c4.32-0.81,8.56-1.9,12.72-3.32c8.32-2.83,16.08-6.77,23.27-11.83c1.45-1.02,2.85-2.1,4.28-3.15
			c0.19-2.26,2.34-4.1,4.5-4.1c0.12,0,0.24,0.01,0.36,0.02c-0.56,0.53-1.1,1.08-1.69,1.57c0.59-0.5,1.13-1.04,1.69-1.57
			c2.15-1.86,4.19-3.84,6.07-5.98c-0.17-2.37,1.81-4.63,4.29-4.82c0.83-1.03,1.7-2.03,2.5-3.08c4.32-5.77,8.01-11.91,10.93-18.52
			c1.41-3.2,2.77-6.42,3.76-9.78c1.46-4.92,2.67-9.89,3.32-14.99c0.03-0.27,0.01-0.57-0.08-0.82c-1.61-4.42-3.69-8.59-6.34-12.48
			c-1.02-1.5-2.16-2.92-3.25-4.38c-0.02-0.04-0.05-0.08-0.07-0.13l0.02,0c-0.06-0.05-0.12-0.1-0.19-0.16
			c-0.03-0.04-0.06-0.07-0.09-0.11v0c-0.15-0.15-0.31-0.29-0.45-0.45c-1.91-2.2-3.96-4.26-6.2-6.13c-3.81-3.19-7.92-5.89-12.42-8.01
			c-6.65-3.14-13.65-4.94-20.98-5.44c-2.03-0.14-4.06-0.11-6.1-0.15c-0.48,0.03-0.96,0.05-1.44,0.08c-2.34,0.14-4.66,0.37-6.97,0.77
			c-3.24,0.57-6.41,1.36-9.53,2.41c-4.41,1.48-8.59,3.43-12.57,5.83c-5.82,3.51-10.97,7.83-15.43,12.95
			c-5.13,5.89-9.07,12.5-11.81,19.82c-1.87,4.98-3.07,10.11-3.6,15.4c-0.14,1.41-0.23,2.83-0.28,4.25
			c-0.15,4.36,0.17,8.7,0.98,12.99c1.48,7.84,4.35,15.11,8.85,21.71c4.73,6.94,10.63,12.66,17.91,16.91c2.69,1.58,5.46,3,8.4,4.08
			C795.78,276.83,796.68,277.18,797.59,277.52 M866.96,81.14C866.96,81.14,866.96,81.14,866.96,81.14
			C866.96,81.14,866.96,81.14,866.96,81.14C866.96,81.14,866.96,81.14,866.96,81.14 M867.38,81.3L867.38,81.3L867.38,81.3
			 M813.52,66.85c-1.35,0-2.69,0.06-3.99,0.11l-0.21,0.01c-1.35,0.06-2.72,0.14-4.04,0.23l-1.25,0.08
			c-0.46,0.03-0.91,0.05-1.37,0.07c-1.16,0.06-2.36,0.12-3.57,0.26c-2.18,0.25-4.37,0.57-6.49,0.88l-1.37,0.2
			c-3.58,0.51-7.33,1.29-12.17,2.5c-4.91,1.24-9.95,2.81-14.98,4.67c-3.7,1.37-6.99,2.75-10.06,4.22c-3.38,1.61-6.11,2.98-8.59,4.31
			c-2.76,1.48-5.41,3.07-7.41,4.3c-1.6,0.98-3.16,2.04-4.67,3.06l-0.98,0.66l-0.87,0.58c-1.25,0.84-2.55,1.7-3.79,2.66
			c-2.58,1.98-5.13,4.03-7.6,6.08c-1.97,1.64-3.96,3.38-6.06,5.32c-1.85,1.71-3.62,3.49-4.95,4.85c-1.48,1.52-3.06,3.16-4.55,4.87
			c-2.58,2.97-4.51,5.28-6.25,7.49c-1.74,2.2-3.31,4.38-5.17,7c-0.86,1.21-1.68,2.45-2.47,3.65c-0.35,0.53-0.69,1.05-1.04,1.58
			c-0.06,0.09-0.12,0.19-0.18,0.29c-0.54,0.93-1.08,1.84-1.62,2.74c-1.17,1.98-2.38,4.03-3.53,6.09
			c-4.14,7.45-7.7,15.76-10.88,25.41c-1.4,4.25-2.63,8.93-3.76,14.31c-1.11,5.3-1.84,10-2.21,14.37l-0.09,1.1
			c-0.23,2.73-0.47,5.55-0.57,8.36c-0.23,6.87-0.01,13.04,0.69,18.86c0.33,2.71,0.67,5.22,1.06,7.67c0.55,3.47,1.34,7.17,2.41,11.31
			c0.83,3.24,1.88,6.59,3.28,10.56c2.86,8.08,6.71,16.06,11.44,23.74c2.77,4.5,5.99,8.97,9.56,13.28c2.42,2.92,5.67,6.71,9.35,10.14
			c1.72,1.6,3.63,2.93,5.68,3.95c2.47,1.23,5.08,2.01,7.55,2.7c0.08,0.02,0.17,0.04,0.26,0.06l0.08,0.01
			c0.14,0.06,0.31,0.12,0.5,0.16c0.28,0.06,0.56,0.13,0.83,0.19c0.79,0.18,1.61,0.38,2.46,0.53l0.28,0.05
			c2.64,0.46,5.37,0.94,8.16,1.14c0.84,0.06,1.67,0.14,2.51,0.21c1.3,0.12,2.64,0.24,3.99,0.3c1.33,0.06,2.73,0.08,4.16,0.08
			c2.4,0,4.92-0.07,7.92-0.23c0.03,0,0.06,0,0.09-0.01l0.44-0.04l0.44-0.04l0.85-0.09c0.61-0.06,1.22-0.12,1.82-0.19
			c0.81-0.09,1.62-0.18,2.43-0.27c2-0.22,4.06-0.45,6.1-0.76c3.99-0.61,7.92-1.32,11.24-1.94c2.69-0.5,5.41-1.05,8.04-1.58
			c1.01-0.2,2.02-0.41,3.04-0.61c3-0.6,6.01-1.2,9.01-1.8l5.02-1c1.38-0.27,2.76-0.55,4.13-0.83c3.15-0.63,6.4-1.29,9.6-1.9
			c5.68-1.09,10.65-2.36,15.19-3.88c5.6-1.88,11.17-4.26,16.56-7.09c8.22-4.32,15.93-9.66,22.94-15.89
			c10.63-9.45,19.28-20.36,25.73-32.4c2.88-5.38,4.92-9.9,6.42-14.23c1.43-4.12,2.78-8.16,3.74-12.32c0.5-2.18,0.92-4.4,1.33-6.54
			c0.13-0.7,0.26-1.4,0.4-2.09c0.83-4.28,1.65-8.56,2.47-12.84l0.46-2.41c0.38-2,0.76-3.99,1.14-5.99
			c0.77-4.04,1.54-8.08,2.32-12.11c1.13-5.82,2.4-12.59,3.11-19.39c0.38-3.61,0.64-7.24,0.86-10.63c0.11-1.67,0.13-3.47,0.08-5.48
			c-0.05-1.76-0.16-3.53-0.26-5.25c-0.04-0.68-0.08-1.36-0.12-2.04c-0.14-2.54-0.45-5.23-0.94-8.23c-0.55-3.33-1.43-6.71-2.61-10.07
			c-1.15-3.27-2.88-6.16-5.15-8.58c-3.38-3.61-7.19-7.13-11.64-10.76c-1.82-1.48-3.84-3.01-6.18-4.67c-1.7-1.21-3.95-2.78-6.3-4.18
			c-2.73-1.63-5.54-3.18-8.26-4.67l-0.71-0.39c-0.79-0.44-1.59-0.8-2.36-1.14c-0.32-0.15-0.65-0.29-0.97-0.44
			c-0.1-0.05-0.21-0.09-0.32-0.12l-0.13-0.05c0,0,0,0,0,0l-0.11-0.07l-0.05-0.03c-0.03-0.02-0.05-0.03-0.08-0.05l-0.09-0.05
			c-0.14-0.09-0.36-0.22-0.63-0.33c-0.6-0.26-1.2-0.52-1.8-0.78c-1.47-0.64-2.99-1.3-4.52-1.9c-5.4-2.12-10.45-3.75-15.46-4.98
			c-3.37-0.83-6.69-1.52-9.88-2.05c-4.38-0.74-8.46-1.23-12.47-1.51c-2.95-0.21-6.02-0.26-8.49-0.31
			C814.09,66.85,813.8,66.85,813.52,66.85L813.52,66.85z M867.38,83.74L867.38,83.74L867.38,83.74L867.38,83.74z M797.87,275.03
			l-0.27-0.1c-0.63-0.24-1.26-0.48-1.89-0.71c-2.48-0.91-5.02-2.15-8.01-3.9c-6.73-3.94-12.49-9.39-17.12-16.18
			c-4.16-6.12-7.01-13.11-8.47-20.79c-0.77-4.07-1.09-8.26-0.94-12.45c0.05-1.42,0.14-2.8,0.27-4.09c0.5-5.02,1.66-10,3.46-14.78
			c2.63-7.01,6.45-13.43,11.37-19.07c4.27-4.9,9.26-9.09,14.85-12.46c3.84-2.32,7.91-4.2,12.09-5.61c2.93-0.98,6.01-1.76,9.17-2.32
			c1.99-0.35,4.11-0.58,6.7-0.74l1.33-0.07c0.62,0.01,1.24,0.02,1.86,0.03c1.4,0.01,2.72,0.03,4.04,0.12
			c7.02,0.48,13.79,2.23,20.1,5.21c4.14,1.95,8.14,4.54,11.89,7.68c2.06,1.72,4,3.64,5.93,5.86c0.14,0.16,0.29,0.31,0.44,0.45
			l0.07,0.07l0.04,0.04c0.03,0.03,0.06,0.06,0.08,0.09c0.01,0.01,0.02,0.03,0.03,0.04c0.35,0.46,0.7,0.93,1.05,1.39
			c0.76,1,1.47,1.94,2.14,2.92c2.41,3.53,4.43,7.49,6,11.76c-0.56,4.34-1.58,8.95-3.22,14.47c-0.9,3.05-2.11,6-3.66,9.49
			c-2.72,6.17-6.31,12.24-10.65,18.04c-0.51,0.67-1.05,1.33-1.62,2.02c-0.08,0.09-0.15,0.18-0.23,0.27c-2.89,0.71-5.1,3.21-5.4,6.11
			c-1.4,1.54-2.94,3.05-4.58,4.51c-2.84,0.26-5.38,2.41-6.15,5.12c-0.2,0.15-0.4,0.3-0.6,0.45c-0.94,0.7-1.91,1.43-2.87,2.11
			c-6.96,4.9-14.58,8.77-22.65,11.52c-3.95,1.34-8.12,2.43-12.38,3.23c-0.6,0.11-1.22,0.2-1.88,0.28
			C798.08,275,797.98,275.01,797.87,275.03L797.87,275.03z"/>
	</g>
	<path fill="#695C7D" d="M758.67,258.74c-0.65-0.12-1.25-0.21-1.85-0.34c-3.4-0.7-6.81-1.42-10.21-2.13
		c-0.56-0.12-1.01-0.4-1.41-0.8c-1.6-1.59-3.22-3.34-4.55-5.16c-1.6-2.19-2.84-3.74-4.18-6.08c-1.21-2.12-2.28-4.31-3.19-6.57
		c-0.7-1.75-1.43-3.5-2.01-5.29c-0.74-2.31-1.4-4.66-1.75-7.07c-0.1-0.68-0.37-1.34-0.48-2.02c-0.2-1.27-0.35-2.54-0.51-3.82
		c-0.14-1.06-0.27-2.12-0.39-3.19c-0.03-0.24-0.02-0.48-0.04-0.72c-0.09-1.14-0.21-2.28-0.26-3.42c-0.03-0.86,0.04-1.72,0.07-2.58
		c0-0.09,0.03-0.19,0.04-0.28c0.05-1.07,0.11-2.15,0.15-3.22c0.06-1.72,0.16-3.43,0.42-5.13c0.12-0.82,0.19-1.65,0.3-2.48
		c0.24-1.97,0.64-3.9,1.16-5.81c0.61-2.18,1.13-4.39,1.85-6.54c0.91-2.69,1.88-5.37,3.15-7.92c0.58-1.18,1.07-2.41,1.66-3.58
		c1.21-2.36,2.45-4.71,3.97-6.9c1-1.45,1.89-2.99,2.92-4.42c0.99-1.37,1.98-2.75,3.16-3.97c0.48-0.49,0.88-1.07,1.34-1.58
		c0.67-0.75,1.35-1.48,2.05-2.21c1.26-1.32,2.5-2.65,3.79-3.92c0.8-0.78,1.67-1.49,2.54-2.21c1.43-1.19,2.88-2.36,4.33-3.52
		c0.32-0.25,0.64-0.5,0.98-0.72c1.88-1.26,3.75-2.57,5.67-3.77c2.39-1.5,4.83-2.91,7.44-4.01c2.05-0.86,4.08-1.76,6.13-2.62
		c0.53-0.22,1.09-0.36,1.63-0.53c1.73-0.56,3.44-1.16,5.18-1.66c1.67-0.48,3.35-0.97,5.07-1.23c1.65-0.25,3.28-0.6,4.92-0.9
		c0.54-0.1,1.09-0.1,1.63-0.17c1.01-0.13,2.03-0.27,3.04-0.4c0.09-0.01,0.19-0.02,0.29-0.03c0.83-0.05,1.67-0.15,2.5-0.12
		c0.93,0.03,1.85-0.08,2.78-0.02c1.5,0.09,3,0.18,4.5,0.27c0.29,0.02,0.58,0.03,0.86,0.01c1.23-0.08,2.42,0.15,3.63,0.32
		c0.99,0.14,1.98,0.26,2.97,0.4c0.49,0.07,0.98,0.17,1.47,0.27c1.47,0.29,2.94,0.57,4.41,0.9c0.64,0.14,1.26,0.38,1.9,0.58
		c1.17,1.92,13.71,16.31,14.08,17.55c-0.66-0.27-1.24-0.51-1.83-0.75c-1.15-0.46-2.31-0.92-3.46-1.37
		c-2.67-1.05-5.46-1.71-8.25-2.39c-0.99-0.24-2.01-0.37-3.02-0.55c-0.63-0.11-1.27-0.21-1.9-0.31c-0.66-0.1-1.32-0.2-1.98-0.26
		c-0.78-0.07-1.57-0.08-2.35-0.17c-2.44-0.28-4.88-0.15-7.32-0.11c-2.04,0.03-4.09,0.19-6.12,0.5c-1.81,0.28-3.63,0.5-5.42,0.91
		c-1.55,0.36-3.1,0.76-4.65,1.14c-2.51,0.61-4.92,1.55-7.33,2.46c-1.07,0.4-2.12,0.89-3.15,1.38c-1.7,0.82-3.4,1.64-5.07,2.54
		c-1.3,0.7-2.57,1.49-3.8,2.3c-1.83,1.21-3.64,2.46-5.42,3.75c-0.98,0.71-1.91,1.51-2.81,2.33c-1.68,1.53-3.36,3.06-4.96,4.67
		c-1.66,1.68-3.2,3.48-4.68,5.33c-1.62,2.02-3.11,4.12-4.52,6.27c-1.85,2.83-3.43,5.81-4.85,8.87c-1.42,3.08-2.62,6.26-3.57,9.53
		c-0.62,2.15-1.23,4.31-1.59,6.53c-0.15,0.94-0.39,1.87-0.53,2.81c-0.15,0.96-0.21,1.94-0.34,2.91c-0.2,1.52-0.21,3.05-0.33,4.56
		c-0.13,1.68-0.1,3.35-0.08,5.02c0.02,1.45,0.13,2.91,0.28,4.35c0.32,3.11,0.83,6.18,1.56,9.22c0.75,3.12,1.77,6.15,2.93,9.13
		c0.5,1.27,1.11,2.49,1.69,3.72c1.57,3.34,3.51,6.47,5.62,9.48c0.74,1.05,1.59,2.03,2.39,3.04c0.4,0.5,0.98,0.19,1.36,0.72
		C758.55,257.87,758.8,258.19,758.67,258.74z"/>
	<g>
		<path fill="#796696" d="M760.25,259.1c-0.64-0.12-1.24-0.21-1.83-0.33c-3.36-0.7-6.72-1.4-10.08-2.1c-0.55-0.11-1-0.4-1.4-0.79
			c-1.58-1.57-2.96-3.29-4.28-5.08c-1.58-2.16-2.86-4.49-4.19-6.81c-1.2-2.09-2.25-4.26-3.15-6.49c-0.7-1.73-1.41-3.45-1.98-5.22
			c-0.73-2.28-1.38-4.6-1.73-6.98c-0.1-0.67-0.36-1.32-0.47-1.99c-0.2-1.25-0.35-2.51-0.51-3.77c-0.13-1.05-0.26-2.1-0.39-3.15
			c-0.03-0.23-0.02-0.47-0.04-0.71c-0.09-1.13-0.21-2.25-0.25-3.38c-0.03-0.85,0.04-1.7,0.07-2.54c0-0.09,0.03-0.19,0.04-0.28
			c0.05-1.06,0.11-2.12,0.15-3.18c0.06-1.69,0.16-3.38,0.41-5.06c0.12-0.81,0.19-1.63,0.29-2.45c0.24-1.94,0.63-3.85,1.15-5.74
			c0.6-2.16,1.12-4.34,1.83-6.46c0.9-2.66,1.86-5.3,3.11-7.82c0.58-1.16,1.05-2.38,1.64-3.53c1.19-2.33,2.42-4.65,3.92-6.81
			c0.99-1.43,1.87-2.95,2.89-4.36c0.98-1.36,1.95-2.72,3.12-3.92c0.47-0.49,0.87-1.06,1.32-1.56c0.66-0.74,1.34-1.46,2.02-2.18
			c1.24-1.3,2.46-2.61,3.74-3.87c0.79-0.77,1.65-1.47,2.51-2.18c1.41-1.17,2.84-2.33,4.27-3.48c0.31-0.25,0.63-0.49,0.97-0.71
			c1.86-1.25,3.7-2.54,5.6-3.73c2.36-1.48,4.77-2.88,7.35-3.96c2.02-0.85,4.03-1.74,6.05-2.59c0.52-0.22,1.07-0.35,1.61-0.53
			c1.7-0.55,3.39-1.15,5.11-1.64c1.65-0.47,3.31-0.96,5-1.22c1.63-0.25,3.24-0.59,4.85-0.89c0.53-0.1,1.08-0.1,1.61-0.16
			c1-0.12,2-0.26,3-0.4c0.09-0.01,0.19-0.02,0.28-0.03c0.82-0.05,1.65-0.15,2.47-0.12c0.92,0.03,1.83-0.08,2.74-0.02
			c1.48,0.09,2.96,0.18,4.44,0.27c0.28,0.02,0.57,0.03,0.85,0.01c1.21-0.08,2.39,0.15,3.58,0.32c0.98,0.14,1.96,0.26,2.93,0.4
			c0.49,0.07,0.97,0.17,1.45,0.26c1.45,0.29,2.91,0.56,4.35,0.88c0.63,0.14,1.25,0.38,1.88,0.58c1.16,1.89,13.54,16.1,13.9,17.33
			c-0.65-0.27-1.23-0.51-1.81-0.74c-1.14-0.45-2.28-0.91-3.42-1.35c-2.64-1.04-5.4-1.69-8.14-2.36c-0.98-0.24-1.99-0.37-2.98-0.54
			c-0.63-0.11-1.25-0.21-1.88-0.3c-0.65-0.1-1.3-0.19-1.96-0.26c-0.77-0.07-1.55-0.08-2.32-0.16c-2.41-0.27-4.82-0.15-7.22-0.11
			c-2.02,0.03-4.03,0.19-6.04,0.49c-1.79,0.27-3.59,0.49-5.35,0.9c-1.54,0.36-3.06,0.75-4.59,1.13c-2.48,0.6-4.86,1.53-7.24,2.43
			c-1.06,0.4-2.09,0.87-3.11,1.37c-1.68,0.81-3.36,1.62-5,2.51c-1.28,0.7-2.53,1.47-3.75,2.28c-1.81,1.2-3.6,2.43-5.35,3.7
			c-0.97,0.7-1.88,1.49-2.77,2.3c-1.66,1.51-3.32,3.02-4.89,4.62c-1.64,1.66-3.16,3.43-4.62,5.26c-1.6,1.99-3.07,4.06-4.46,6.2
			c-1.83,2.79-3.39,5.74-4.79,8.76c-1.41,3.04-2.59,6.19-3.52,9.41c-0.62,2.12-1.21,4.26-1.57,6.45c-0.15,0.93-0.38,1.84-0.52,2.77
			c-0.14,0.95-0.21,1.92-0.33,2.87c-0.2,1.5-0.21,3.01-0.32,4.51c-0.13,1.66-0.09,3.31-0.08,4.96c0.02,1.43,0.13,2.87,0.28,4.3
			c0.31,3.07,0.82,6.1,1.54,9.1c0.74,3.08,1.74,6.07,2.89,9.01c0.49,1.25,1.1,2.46,1.67,3.67c1.55,3.3,3.47,6.39,5.55,9.37
			c0.73,1.04,1.57,2,2.36,3c0.4,0.5,0.81,0.98,1.18,1.5C760.13,258.25,760.37,258.57,760.25,259.1z"/>
	</g>
</g>
<g>
	<g>
		<path fill="#D2B7F9" d="M617.5,183.77c-0.3,25.94-9.13,51.5-27.23,73.62c-18.57,22.7-42.41,37.01-71.25,42.27
			c-34.24,6.24-65.6-1.16-93.9-21.47c-2.57-1.84-4.56-4.14-6.02-6.95c-7.23-13.89-12.04-28.57-14.54-44.01
			c-1.83-11.29-2.24-22.65-1.29-34.02c2.36-28.09,12.01-53.47,29.15-75.89c14.88-19.47,33.58-34.16,55.98-44.13
			c9.99-4.45,20.36-7.73,31.13-9.71c2.42-0.44,4.74,0.09,7.04,0.68c17.87,4.6,33.96,12.73,48.01,24.69
			c21.2,18.05,34.69,40.76,40.45,68.04C616.72,164.9,617.43,173,617.5,183.77z M574.7,181.19c0-43.06-34.75-77.95-77.68-77.98
			c-43.09-0.03-78.08,34.78-78.12,77.73c-0.03,43.16,34.6,77.9,77.85,78.1C539.66,259.22,574.7,224.23,574.7,181.19z"/>
	</g>
</g>
<g>
	<path fill="#D2B7F9" d="M352.04,774.46c-5.55,7.98-13.66,14.06-23.93,17.12c-10.53,3.14-20.94,2.57-30.99-1.87
		c-11.93-5.26-20.11-14.15-24.62-26.4c-0.41-1.11-0.54-2.24-0.41-3.42c0.68-5.83,2.27-11.39,4.74-16.71
		c1.81-3.89,4.07-7.5,6.75-10.82c6.64-8.22,14.97-14.06,25-17.42c8.71-2.91,17.6-3.54,26.64-1.92c4.04,0.72,7.94,1.88,11.7,3.53
		c0.85,0.37,1.45,1.02,2.04,1.69c4.58,5.18,7.86,11.09,9.7,17.75c2.78,10.06,2.19,19.94-1.75,29.61
		C355.76,768.44,354.28,771.1,352.04,774.46z"/>
	<path fill="#D2B7F9" d="M913,945.38v-68.81c-0.02-2.09-0.22-3.96-0.33-5.95c-9.91-20.14-24.54-38.32-43.84-52.58
		c-6.99-5.17-14.33-9.55-21.85-13.29c-6.52-0.7-13.39-1.16-20.95-1.16c-29.85,0-62.07,3.77-96.64,11.3
		c-1.48,0.32-2.44,1.78-2.13,3.27l6.35,31.15c0.31,1.52,1.82,2.48,3.34,2.14c15.79-3.56,29.67-6.19,41.65-7.88
		c12.67-1.78,25.14-2.68,37.42-2.68c13.52,0,23.98,1.79,31.36,5.36c6.22,3.02,10.05,7.97,11.46,14.85c0.4,1.94-1.32,3.66-3.27,3.28
		c-21.26-4.15-41.21-6.23-59.84-6.23c-22.85,0-41.97,3.61-57.36,10.84c-15.39,7.23-23.08,19.55-23.08,36.95
		c0,15.7,5.83,27.05,17.49,34.04c11.66,7,27.36,10.49,47.1,10.49c13.21,0,26.85-1.71,40.92-5.13c12.43-3.02,23.92-7.5,34.47-13.44
		c1.84-1.04,4.11,0.29,4.11,2.41v11.06c0,1.53,1.24,2.77,2.77,2.77h48.09C911.76,948.14,913,946.9,913,945.38z M859.37,903.83
		c0,1.36-0.99,2.51-2.33,2.73c-26.78,4.41-46.37,6.61-58.76,6.61c-9.95,0-16.94-0.82-20.98-2.45c-4.04-1.63-6.06-4.47-6.06-8.51
		c0-4.2,2.45-7.15,7.34-8.86c4.9-1.71,13.25-2.56,25.07-2.56c14.82,0,32.59,1.44,53.32,4.32c1.37,0.19,2.4,1.37,2.4,2.75V903.83z"/>
	<path fill="#D2B7F9" d="M268.58,891.02h-49.61c-1.06,0-2.05,0.6-2.49,1.57c-5.54,12.17-20.17,18.25-43.88,18.25
		c-15.39,0-26.93-2.64-34.62-7.93c-7.69-5.28-11.54-13.52-11.54-24.71c0-11.19,3.85-19.43,11.54-24.71
		c7.69-5.28,19.24-7.93,34.62-7.93c23.72,0,38.34,6.09,43.88,18.25c0.44,0.97,1.43,1.57,2.49,1.57h49.61c1.76,0,3.07-1.63,2.72-3.35
		c-3.93-19-13.86-33.35-29.8-43.05c-16.87-10.26-39.83-15.39-68.9-15.39c-22.09,0-40.53,3.01-55.51,8.89
		c-17.57,16.44-28.61,39.76-28.61,65.72c0,25.96,11.04,49.28,28.61,65.72c14.98,5.88,33.42,8.89,55.51,8.89
		c29.06,0,52.03-5.13,68.9-15.39c15.94-9.7,25.87-24.04,29.8-43.05C271.65,892.65,270.34,891.02,268.58,891.02z"/>
	<path fill="#D2B7F9" d="M508.49,809.86c-5.14-2.11-10.09-3.66-14.85-4.64c-5.29-1.09-11.12-1.63-17.49-1.63
		c-12.59,0-23.51,2.72-32.76,8.16c-7.16,4.21-13.68,10.51-19.58,18.91c-1.55,2.2-5.02,1.08-5.02-1.61v-18.03
		c0-1.53-1.24-2.77-2.77-2.77h-48.09c-1.53,0-2.77,1.24-2.77,2.77v115.51c9.02,9.65,19.69,16.84,31.17,21.61h19.68
		c1.53,0,2.77-1.24,2.77-2.77v-64.8c0-0.64,0.22-1.26,0.62-1.76c8.66-10.77,17.47-18.21,26.43-22.31c9.17-4.2,18.57-6.3,28.21-6.3
		c6.06,0,11.73,0.51,17.02,1.52c4.4,0.84,9.55,2.25,15.46,4.22c1.79,0.6,3.66-0.73,3.66-2.62v-40.91
		C510.2,811.31,509.52,810.29,508.49,809.86z"/>
	<path fill="#D2B7F9" d="M311.86,808.25h-8.99v0h-10.69c-1.53,0-2.77,1.24-2.77,2.77v134.35c0,1.53,1.24,2.77,2.77,2.77h10.69h37.4
		h0c0.64,0,1.2-0.25,1.67-0.62c0.09-0.07,0.2-0.11,0.29-0.19c0.25-0.25,0.45-0.55,0.59-0.88c0.14-0.33,0.22-0.7,0.22-1.08v0V833
		v-3.14C334.01,820.21,323.34,813.02,311.86,808.25z"/>
	<path fill="#D2B7F9" d="M702.62,891.02h-49.61c-1.06,0-2.05,0.6-2.49,1.57c-5.54,12.17-20.17,18.25-43.88,18.25
		c-15.39,0-26.93-2.64-34.62-7.93c-7.69-5.28-11.54-13.52-11.54-24.72c0-11.19,3.85-19.43,11.54-24.71
		c7.69-5.28,19.23-7.93,34.62-7.93c23.72,0,38.34,6.09,43.88,18.25c0.44,0.97,1.43,1.57,2.49,1.57h49.61c1.76,0,3.07-1.63,2.72-3.35
		c-3.93-19-13.86-33.35-29.8-43.05c-16.87-10.26-39.83-15.39-68.9-15.39c-22.09,0-40.53,3.01-55.51,8.89
		c-17.57,16.44-28.61,39.76-28.61,65.72c0,25.96,11.04,49.28,28.61,65.72c14.98,5.88,33.42,8.89,55.51,8.89
		c29.06,0,52.03-5.13,68.9-15.39c15.94-9.7,25.87-24.04,29.8-43.05C705.69,892.65,704.38,891.02,702.62,891.02z"/>
</g>
</svg>
