<?xml version="1.0" encoding="utf-8"?>
<!-- Generator: Adobe Illustrator 25.0.0, SVG Export Plug-In . SVG Version: 6.00 Build 0)  -->
<svg version="1.1" id="Layer_1" xmlns="http://www.w3.org/2000/svg" xmlns:xlink="http://www.w3.org/1999/xlink" x="0px" y="0px"
	 viewBox="0 0 1920 1280" enable-background="new 0 0 1920 1280" xml:space="preserve">
<g>
	<g>
		<path fill="#FCCF8A" d="M170.06,1010.01v-63.84h21.22c6.47,0,12.11,1.39,16.9,4.18c4.8,2.79,8.47,6.61,11.02,11.46
			c2.55,4.86,3.82,10.28,3.82,16.28c0,6-1.27,11.42-3.82,16.28c-2.55,4.86-6.22,8.68-11.02,11.46c-4.8,2.79-10.43,4.18-16.9,4.18
			H170.06z M191.29,1000.48c4.26,0,7.99-0.88,11.19-2.65c3.21-1.77,5.69-4.33,7.46-7.69c1.77-3.36,2.65-7.37,2.65-12.05
			s-0.89-8.69-2.65-12.05c-1.77-3.36-4.26-5.92-7.46-7.69c-3.21-1.77-6.94-2.65-11.19-2.65h-10.7v44.78H191.29z"/>
		<path fill="#FCCF8A" d="M232.83,955.74c-1.2-1.17-1.8-2.59-1.8-4.27c0-1.74,0.58-3.19,1.75-4.36s2.62-1.75,4.36-1.75
			c1.68,0,3.1,0.6,4.27,1.8c1.17,1.2,1.75,2.64,1.75,4.32c0,1.68-0.58,3.1-1.75,4.27c-1.17,1.17-2.59,1.75-4.27,1.75
			C235.47,957.49,234.03,956.91,232.83,955.74z M231.93,963.34h10.34v46.67h-10.34V963.34z"/>
		<path fill="#FCCF8A" d="M256.12,1007.04c-3.9-2.58-5.97-6.41-6.2-11.51l10.07-0.36c0.24,2.4,1.38,4.27,3.42,5.62
			c2.04,1.35,4.59,2.02,7.64,2.02c2.58,0,4.66-0.5,6.25-1.48c1.59-0.99,2.38-2.35,2.38-4.09c0-1.8-0.87-3.15-2.61-4.05
			c-1.74-0.9-4.47-1.83-8.18-2.79c-3.6-0.96-6.5-1.89-8.72-2.79c-2.22-0.9-4.14-2.26-5.75-4.09c-1.62-1.83-2.43-4.27-2.43-7.33
			c0-4.2,1.69-7.54,5.08-10.03c3.39-2.49,7.63-3.73,12.72-3.73c3.48,0,6.61,0.63,9.4,1.89s4.99,2.97,6.61,5.13
			c1.62,2.16,2.49,4.59,2.61,7.28l-9.8,0.27c-0.3-2.04-1.23-3.67-2.79-4.9c-1.56-1.23-3.6-1.84-6.11-1.84
			c-2.22,0-4.06,0.48-5.53,1.44c-1.47,0.96-2.2,2.22-2.2,3.78c0,1.74,0.85,3.04,2.56,3.91c1.71,0.87,4.39,1.75,8.05,2.65
			c3.6,0.9,6.56,1.81,8.9,2.74c2.34,0.93,4.35,2.37,6.02,4.32c1.68,1.95,2.52,4.51,2.52,7.69c0,4.44-1.77,7.9-5.31,10.39
			c-3.54,2.49-8.21,3.73-14.03,3.73C264.87,1010.91,260.01,1009.62,256.12,1007.04z"/>
		<path fill="#FCCF8A" d="M312.23,963.34h10.34v8.09h-10.34v38.58h-10.25v-38.58h-7.28v-8.09h7.28v-13.58h10.25V963.34z"/>
		<path fill="#FCCF8A" d="M339.92,970.35c2.46-4.86,6.5-7.28,12.14-7.28c1.26,0,2.25,0.06,2.97,0.18l-0.09,8.9
			c-1.26-0.18-2.4-0.27-3.42-0.27c-3.48,0-6.19,0.81-8.14,2.43c-1.95,1.62-2.98,3.96-3.1,7.01l0.09,28.68h-10.34v-46.67h8.45
			L339.92,970.35z"/>
		<path fill="#FCCF8A" d="M363.39,955.74c-1.2-1.17-1.8-2.59-1.8-4.27c0-1.74,0.58-3.19,1.75-4.36s2.62-1.75,4.36-1.75
			c1.68,0,3.1,0.6,4.27,1.8c1.17,1.2,1.75,2.64,1.75,4.32c0,1.68-0.58,3.1-1.75,4.27c-1.17,1.17-2.59,1.75-4.27,1.75
			C366.03,957.49,364.59,956.91,363.39,955.74z M362.49,963.34h10.34v46.67h-10.34V963.34z"/>
		<path fill="#FCCF8A" d="M393.15,1007.85c-3.78-2.1-6.7-4.99-8.77-8.68c-2.07-3.69-3.1-7.87-3.1-12.54c0-4.62,1.03-8.77,3.1-12.45
			c2.07-3.69,4.99-6.58,8.77-8.68c3.78-2.1,8.12-3.15,13.04-3.15c5.81,0,10.67,1.68,14.57,5.04v9.98c-3.9-3.78-8.42-5.67-13.58-5.67
			c-2.94,0-5.59,0.66-7.96,1.98c-2.37,1.32-4.24,3.12-5.62,5.4c-1.38,2.28-2.07,4.83-2.07,7.64c0,2.82,0.69,5.37,2.07,7.64
			c1.38,2.28,3.25,4.06,5.62,5.35c2.37,1.29,5.02,1.93,7.96,1.93c5.15,0,9.68-1.89,13.58-5.67v9.98c-3.9,3.36-8.75,5.04-14.57,5.04
			C401.27,1011,396.93,1009.95,393.15,1007.85z"/>
		<path fill="#FCCF8A" d="M443.24,963.34h10.34v8.09h-10.34v38.58h-10.25v-38.58h-7.28v-8.09h7.28v-13.58h10.25V963.34z"/>
		<path fill="#FCCF8A" d="M516.34,1010.01h-38.58v-9.26h14.03v-42.8l-13.31,3.78v-9.53l23.83-6.02v54.58h14.03V1010.01z"/>
	</g>
	<g>
		<path fill="#FCCF8A" d="M651.75,1010.02v-63.84h21.22c6.47,0,12.11,1.39,16.9,4.18c4.8,2.79,8.47,6.61,11.02,11.46
			c2.55,4.86,3.82,10.28,3.82,16.28c0,6-1.27,11.42-3.82,16.28c-2.55,4.86-6.22,8.68-11.02,11.46c-4.8,2.79-10.43,4.18-16.9,4.18
			H651.75z M672.97,1000.49c4.26,0,7.99-0.88,11.19-2.65c3.21-1.77,5.69-4.33,7.46-7.69c1.77-3.36,2.65-7.37,2.65-12.05
			s-0.89-8.69-2.65-12.05c-1.77-3.36-4.26-5.92-7.46-7.69c-3.21-1.77-6.94-2.65-11.19-2.65h-10.7v44.78H672.97z"/>
		<path fill="#FCCF8A" d="M714.51,955.75c-1.2-1.17-1.8-2.59-1.8-4.27c0-1.74,0.58-3.19,1.75-4.36s2.62-1.75,4.36-1.75
			c1.68,0,3.1,0.6,4.27,1.8c1.17,1.2,1.75,2.64,1.75,4.32c0,1.68-0.58,3.1-1.75,4.27c-1.17,1.17-2.59,1.75-4.27,1.75
			C717.15,957.51,715.71,956.92,714.51,955.75z M713.61,963.35h10.34v46.67h-10.34V963.35z"/>
		<path fill="#FCCF8A" d="M737.8,1007.05c-3.9-2.58-5.97-6.41-6.2-11.51l10.07-0.36c0.24,2.4,1.38,4.27,3.42,5.62
			c2.04,1.35,4.59,2.02,7.64,2.02c2.58,0,4.66-0.5,6.25-1.48c1.59-0.99,2.38-2.35,2.38-4.09c0-1.8-0.87-3.15-2.61-4.05
			c-1.74-0.9-4.47-1.83-8.18-2.79c-3.6-0.96-6.5-1.89-8.72-2.79c-2.22-0.9-4.14-2.26-5.75-4.09c-1.62-1.83-2.43-4.27-2.43-7.33
			c0-4.2,1.69-7.54,5.08-10.03c3.39-2.49,7.63-3.73,12.72-3.73c3.48,0,6.61,0.63,9.4,1.89s4.99,2.97,6.61,5.13
			c1.62,2.16,2.49,4.59,2.61,7.28l-9.8,0.27c-0.3-2.04-1.23-3.67-2.79-4.9c-1.56-1.23-3.6-1.84-6.11-1.84
			c-2.22,0-4.06,0.48-5.53,1.44c-1.47,0.96-2.2,2.22-2.2,3.78c0,1.74,0.85,3.04,2.56,3.91c1.71,0.87,4.39,1.75,8.05,2.65
			c3.6,0.9,6.56,1.81,8.9,2.74c2.34,0.93,4.35,2.37,6.02,4.32c1.68,1.95,2.52,4.51,2.52,7.69c0,4.44-1.77,7.9-5.31,10.39
			c-3.54,2.49-8.21,3.73-14.03,3.73C746.55,1010.92,741.69,1009.63,737.8,1007.05z"/>
		<path fill="#FCCF8A" d="M793.91,963.35h10.34v8.09h-10.34v38.58h-10.25v-38.58h-7.28v-8.09h7.28v-13.58h10.25V963.35z"/>
		<path fill="#FCCF8A" d="M821.6,970.36c2.46-4.86,6.5-7.28,12.14-7.28c1.26,0,2.25,0.06,2.97,0.18l-0.09,8.9
			c-1.26-0.18-2.4-0.27-3.42-0.27c-3.48,0-6.19,0.81-8.14,2.43c-1.95,1.62-2.98,3.96-3.1,7.01l0.09,28.68h-10.34v-46.67h8.45
			L821.6,970.36z"/>
		<path fill="#FCCF8A" d="M845.07,955.75c-1.2-1.17-1.8-2.59-1.8-4.27c0-1.74,0.58-3.19,1.75-4.36s2.62-1.75,4.36-1.75
			c1.68,0,3.1,0.6,4.27,1.8c1.17,1.2,1.75,2.64,1.75,4.32c0,1.68-0.58,3.1-1.75,4.27c-1.17,1.17-2.59,1.75-4.27,1.75
			C847.71,957.51,846.27,956.92,845.07,955.75z M844.17,963.35h10.34v46.67h-10.34V963.35z"/>
		<path fill="#FCCF8A" d="M874.83,1007.86c-3.78-2.1-6.7-4.99-8.77-8.68c-2.07-3.69-3.1-7.87-3.1-12.54c0-4.62,1.03-8.77,3.1-12.45
			c2.07-3.69,4.99-6.58,8.77-8.68c3.78-2.1,8.12-3.15,13.04-3.15c5.81,0,10.67,1.68,14.57,5.04v9.98c-3.9-3.78-8.42-5.67-13.58-5.67
			c-2.94,0-5.59,0.66-7.96,1.98c-2.37,1.32-4.24,3.12-5.62,5.4c-1.38,2.28-2.07,4.83-2.07,7.64c0,2.82,0.69,5.37,2.07,7.64
			c1.38,2.28,3.25,4.06,5.62,5.35c2.37,1.29,5.02,1.93,7.96,1.93c5.15,0,9.68-1.89,13.58-5.67v9.98c-3.9,3.36-8.75,5.04-14.57,5.04
			C882.96,1011.01,878.61,1009.96,874.83,1007.86z"/>
		<path fill="#FCCF8A" d="M924.92,963.35h10.34v8.09h-10.34v38.58h-10.25v-38.58h-7.28v-8.09h7.28v-13.58h10.25V963.35z"/>
		<path fill="#FCCF8A" d="M1002.43,982.37c1.62,2.67,2.43,5.68,2.43,9.04c0,3.78-0.96,7.15-2.88,10.12
			c-1.92,2.97-4.6,5.28-8.05,6.92c-3.45,1.65-7.33,2.47-11.64,2.47s-8.18-0.83-11.6-2.47c-3.42-1.65-6.08-3.96-8-6.92
			c-1.92-2.97-2.88-6.34-2.88-10.12c0-3.36,0.79-6.37,2.38-9.04c1.59-2.67,3.91-4.81,6.97-6.43c-2.22-1.5-3.91-3.36-5.08-5.58
			c-1.17-2.22-1.75-4.71-1.75-7.46c0-3.48,0.88-6.55,2.65-9.22c1.77-2.67,4.18-4.74,7.24-6.21c3.06-1.47,6.44-2.2,10.16-2.2
			s7.09,0.74,10.12,2.2c3.03,1.47,5.42,3.54,7.19,6.21c1.77,2.67,2.65,5.74,2.65,9.22c0,2.76-0.58,5.26-1.75,7.51
			c-1.17,2.25-2.86,4.12-5.08,5.62C998.5,977.59,1000.81,979.7,1002.43,982.37z M991.05,998.6c2.31-1.98,3.46-4.53,3.46-7.64
			c0-3.18-1.16-5.75-3.46-7.73c-2.31-1.98-5.2-2.97-8.68-2.97s-6.37,0.99-8.68,2.97c-2.31,1.98-3.46,4.56-3.46,7.73
			c0,3.12,1.15,5.67,3.46,7.64c2.31,1.98,5.2,2.97,8.68,2.97S988.75,1000.58,991.05,998.6z M975.32,956.34
			c-1.95,1.62-2.92,3.84-2.92,6.65c0,2.76,0.97,4.98,2.92,6.65c1.95,1.68,4.3,2.52,7.06,2.52s5.14-0.84,7.15-2.52
			c2.01-1.68,3.01-3.9,3.01-6.65c0-2.82-1.01-5.04-3.01-6.65s-4.39-2.43-7.15-2.43S977.27,954.72,975.32,956.34z"/>
	</g>
	<g>
		<path fill="#FED18C" d="M95.34,936.79c-5.41,0-10.54-3.21-12.74-8.51c-1.44-3.47-1.41-7.27,0.07-10.69
			c1.42-3.28,4.1-5.94,7.37-7.29c1.67-0.69,3.44-1.04,5.28-1.04c0.01,0,0.02,0,0.03,0l15.63,0.03c1.38,0,2.5,1.12,2.5,2.51
			c0,1.38-1.12,2.5-2.5,2.5c0,0,0,0-0.01,0l-15.63-0.03c-0.01,0-0.01,0-0.02,0c-1.18,0-2.31,0.22-3.36,0.66
			c-2.07,0.86-3.78,2.55-4.69,4.65c-0.94,2.17-0.95,4.58-0.04,6.79c1.85,4.47,6.99,6.59,11.43,4.75c1.06-0.44,2.02-1.09,2.85-1.92
			l11-11.04c0.98-0.98,2.57-0.99,3.54-0.01c0.98,0.98,0.98,2.56,0.01,3.54l-11,11.04c-1.3,1.31-2.81,2.32-4.48,3.02
			C98.86,936.46,97.09,936.79,95.34,936.79z"/>
		<path fill="#FED18C" d="M168.07,906.67c-0.04,0-0.09,0-0.13,0l-15.5-0.13c-1.38-0.01-2.49-1.14-2.48-2.53
			c0.01-1.37,1.13-2.48,2.5-2.48c0.01,0,0.01,0,0.02,0l15.5,0.13c0.03,0,0.05,0,0.08,0c1.15,0,2.26-0.21,3.3-0.63
			c2.16-0.88,3.85-2.55,4.76-4.71c0.91-2.16,0.92-4.54,0.04-6.7c-0.88-2.17-2.55-3.86-4.71-4.78c-2.16-0.91-4.53-0.93-6.69-0.05
			c-1.06,0.43-2.02,1.08-2.87,1.91l-11.05,10.94c-0.98,0.97-2.57,0.96-3.54-0.02c-0.97-0.98-0.97-2.57,0.02-3.54l11.05-10.94
			c1.31-1.3,2.83-2.3,4.5-2.99c3.4-1.38,7.14-1.35,10.53,0.08c3.39,1.43,6.01,4.1,7.39,7.5c1.39,3.4,1.36,7.14-0.07,10.53
			c-1.43,3.39-4.09,6.02-7.49,7.4C171.62,906.34,169.87,906.67,168.07,906.67z"/>
		<path fill="#FED18C" d="M95.3,906.65c-4.66,0-8.83-2.22-11.43-6.1c-2.6-3.88-3.07-8.59-1.28-12.92c1.41-3.4,4.04-6.04,7.41-7.44
			c5.19-2.15,11.1-0.97,15.05,2.99l11.07,11.11c0.97,0.98,0.97,2.57-0.01,3.54c-0.98,0.98-2.56,0.97-3.54-0.01l-11.07-11.12
			c-2.51-2.52-6.28-3.26-9.58-1.9c-2.14,0.88-3.81,2.56-4.7,4.72c-1.14,2.75-0.84,5.75,0.81,8.22c1.65,2.47,4.3,3.88,7.27,3.88
			c0.01,0,0.01,0,0.02,0l15.66-0.03c0,0,0.01,0,0.01,0c1.38,0,2.5,1.12,2.5,2.5c0,1.39-1.12,2.51-2.5,2.51l-15.66,0.03
			C95.33,906.65,95.32,906.65,95.3,906.65z"/>
		<path fill="#FED18C" d="M127.84,921.58c-0.27,0-0.55-0.04-0.82-0.14c-5.74-1.99-9.6-7.41-9.6-13.48c0-6.08,3.86-11.5,9.62-13.49
			c1.3-0.45,2.73,0.24,3.18,1.55c0.45,1.31-0.24,2.73-1.55,3.18c-3.73,1.29-6.24,4.81-6.24,8.76c0,3.94,2.51,7.46,6.24,8.75
			c1.31,0.45,2,1.88,1.54,3.18C129.84,920.93,128.87,921.58,127.84,921.58z"/>
		<path fill="#FED18C" d="M135.49,921.6c-1.04,0-2.01-0.65-2.37-1.69c-0.45-1.31,0.25-2.73,1.55-3.18c3.75-1.29,6.27-4.81,6.27-8.77
			c0-3.96-2.52-7.48-6.27-8.77c-1.31-0.45-2-1.87-1.55-3.18c0.45-1.3,1.88-2.01,3.18-1.55c5.77,1.98,9.65,7.41,9.65,13.5
			s-3.88,11.52-9.65,13.5C136.03,921.56,135.76,921.6,135.49,921.6z"/>
		<path fill="#FED18C" d="M168.03,936.78c-3.59,0-7.1-1.4-9.73-4.06l-10.9-10.94c-0.97-0.98-0.97-2.57,0.01-3.54
			c0.98-0.98,2.57-0.97,3.54,0.01l10.9,10.94c2.51,2.52,6.27,3.27,9.58,1.9c2.14-0.88,3.8-2.56,4.7-4.72
			c1.14-2.75,0.84-5.75-0.81-8.22c-1.65-2.47-4.3-3.88-7.27-3.88c-0.01,0-0.01,0-0.02,0l-15.46,0.03c0,0-0.01,0-0.01,0
			c-1.38,0-2.5-1.12-2.5-2.5c0-1.39,1.12-2.51,2.5-2.51l15.46-0.03c0.01,0,0.02,0,0.03,0c4.67,0,8.83,2.22,11.43,6.1
			c2.6,3.88,3.07,8.59,1.28,12.92c-1.41,3.4-4.04,6.04-7.41,7.44C171.62,936.44,169.82,936.78,168.03,936.78z"/>
		<path fill="#FED18C" d="M146.7,958.11c-2.66,0-5.28-0.79-7.61-2.35c-3.89-2.61-6.12-6.78-6.1-11.46v-25.2c0-1.38,1.12-2.5,2.5-2.5
			s2.5,1.12,2.5,2.5v25.21c-0.01,2.98,1.41,5.64,3.88,7.3c2.47,1.65,5.47,1.95,8.22,0.81c2.75-1.14,4.66-3.46,5.23-6.38
			c0.58-2.92-0.3-5.8-2.41-7.9l-10.94-10.9c-0.98-0.98-0.98-2.56-0.01-3.54c0.98-0.98,2.57-0.99,3.54-0.01l10.94,10.9
			c3.31,3.3,4.69,7.83,3.79,12.42c-0.91,4.59-3.91,8.25-8.23,10.04C150.28,957.75,148.48,958.11,146.7,958.11z"/>
		<path fill="#FED18C" d="M116.63,958.09c-1.79,0-3.57-0.35-5.28-1.06c-4.32-1.79-7.32-5.45-8.23-10.04
			c-0.91-4.59,0.47-9.12,3.79-12.42l11.01-10.97c0.98-0.98,2.56-0.97,3.54,0.01c0.97,0.98,0.97,2.56-0.01,3.54l-11.01,10.97
			c-2.11,2.1-2.98,4.98-2.4,7.9c0.58,2.92,2.48,5.25,5.24,6.39c2.16,0.9,4.53,0.9,6.67,0.02c3.31-1.37,5.44-4.56,5.43-8.12
			l-0.04-25.23c0-1.38,1.12-2.5,2.5-2.51h0c1.38,0,2.5,1.12,2.5,2.5l0.04,25.23c0.01,5.59-3.33,10.6-8.52,12.75
			C120.17,957.75,118.4,958.09,116.63,958.09z"/>
		<path fill="#DD553E" d="M127.85,899.34C127.85,899.34,127.85,899.34,127.85,899.34c-1.39,0-2.51-1.12-2.5-2.51l0.02-25.23
			c0-2.98-1.41-5.64-3.88-7.29c-2.47-1.65-5.47-1.95-8.22-0.81c-2.75,1.14-4.66,3.46-5.23,6.38c-0.58,2.92,0.3,5.8,2.41,7.9
			l11.12,11.07c0.98,0.98,0.98,2.56,0.01,3.54c-0.98,0.99-2.56,0.98-3.54,0.01l-11.11-11.07c-3.31-3.3-4.69-7.83-3.79-12.42
			c0.91-4.59,3.91-8.25,8.23-10.04c4.32-1.79,9.03-1.32,12.92,1.28c3.89,2.61,6.11,6.78,6.1,11.46l-0.02,25.23
			C130.36,898.22,129.24,899.34,127.85,899.34z"/>
		<path fill="#FED18C" d="M135.49,899.33c-1.38,0-2.5-1.12-2.5-2.5v-25.22c-0.01-5.59,3.34-10.6,8.52-12.75
			c3.37-1.4,7.1-1.39,10.5,0.02c4.32,1.79,7.32,5.45,8.23,10.04c0.91,4.59-0.47,9.11-3.78,12.42l-11.05,11.01
			c-0.98,0.97-2.56,0.98-3.54-0.01c-0.97-0.98-0.97-2.56,0.01-3.54l11.05-11.01c2.1-2.1,2.98-4.98,2.4-7.9
			c-0.58-2.92-2.48-5.25-5.23-6.38c-2.17-0.9-4.54-0.9-6.67-0.02c-3.31,1.37-5.44,4.55-5.44,8.11v25.23
			C137.99,898.21,136.87,899.33,135.49,899.33z"/>
	</g>
	<g>
		<path fill="#FED18C" d="M577.03,936.81c-1.79,0-3.58-0.35-5.28-1.06c-3.4-1.41-6.04-4.06-7.45-7.45
			c-1.44-3.47-1.42-7.26,0.06-10.69c1.42-3.28,4.1-5.94,7.37-7.29c1.66-0.69,3.44-1.04,5.28-1.04c0.01,0,0.02,0,0.03,0l15.63,0.03
			c1.38,0,2.5,1.13,2.5,2.51c0,1.38-1.12,2.5-2.5,2.5c0,0,0,0-0.01,0l-15.63-0.03c-1.12,0.1-2.32,0.22-3.37,0.66
			c-2.08,0.86-3.78,2.56-4.69,4.65c-0.94,2.17-0.95,4.58-0.04,6.79c0.89,2.16,2.58,3.85,4.74,4.74c2.16,0.9,4.53,0.9,6.69,0.01
			c1.06-0.44,2.02-1.08,2.85-1.92l11-11.04c0.98-0.98,2.56-0.99,3.54-0.01c0.98,0.98,0.98,2.56,0.01,3.54l-11,11.04
			c-1.31,1.31-2.82,2.33-4.49,3.02C580.59,936.46,578.81,936.81,577.03,936.81z"/>
		<path fill="#FED18C" d="M649.75,906.69c-0.04,0-0.07,0-0.11,0l-15.5-0.13c-1.38-0.01-2.49-1.14-2.48-2.53
			c0.01-1.37,1.13-2.48,2.5-2.48c0.01,0,0.01,0,0.02,0l15.5,0.13c0.02,0,0.04,0,0.07,0c1.16,0,2.28-0.22,3.31-0.64
			c2.16-0.88,3.85-2.55,4.75-4.71c0.91-2.16,0.92-4.54,0.04-6.7c-1.82-4.48-6.93-6.65-11.4-4.83c-1.06,0.43-2.02,1.07-2.87,1.91
			l-11.05,10.94c-0.98,0.97-2.57,0.96-3.54-0.02c-0.97-0.98-0.97-2.57,0.02-3.54l11.05-10.94c1.31-1.3,2.83-2.31,4.5-2.99
			c7.02-2.86,15.06,0.55,17.92,7.58c1.39,3.4,1.36,7.14-0.07,10.54c-1.43,3.39-4.09,6.02-7.49,7.4
			C653.31,906.35,651.56,906.69,649.75,906.69z"/>
		<path fill="#DD553E" d="M577.02,906.66c-4.67,0-8.84-2.22-11.44-6.1c-2.6-3.89-3.07-8.6-1.28-12.92c1.4-3.4,4.04-6.04,7.41-7.44
			c5.2-2.15,11.1-0.97,15.05,2.99l11.07,11.11c0.97,0.98,0.97,2.57-0.01,3.54c-0.98,0.98-2.57,0.97-3.54-0.01l-11.07-11.12
			c-2.51-2.52-6.28-3.27-9.58-1.9c-2.14,0.89-3.81,2.57-4.7,4.73c-1.14,2.75-0.84,5.74,0.81,8.22c1.65,2.47,4.31,3.88,7.27,3.88
			c0,0,0.01,0,0.01,0l15.65-0.03c0,0,0.01,0,0.01,0c1.38,0,2.5,1.12,2.5,2.5c0,1.39-1.12,2.51-2.5,2.51l-15.65,0.03
			C577.03,906.66,577.02,906.66,577.02,906.66z"/>
		<path fill="#FED18C" d="M609.54,921.6c-0.27,0-0.55-0.04-0.82-0.14c-5.74-1.99-9.6-7.41-9.6-13.48c0-6.08,3.86-11.5,9.62-13.49
			c1.3-0.45,2.73,0.24,3.18,1.55c0.45,1.31-0.24,2.73-1.55,3.18c-3.73,1.29-6.25,4.81-6.25,8.76c0,3.94,2.51,7.46,6.24,8.75
			c1.31,0.45,2,1.88,1.55,3.19C611.55,920.95,610.58,921.6,609.54,921.6z"/>
		<path fill="#FED18C" d="M617.19,921.61c-1.04,0-2.01-0.65-2.37-1.69c-0.45-1.31,0.25-2.73,1.56-3.18
			c3.75-1.29,6.27-4.81,6.27-8.77s-2.52-7.48-6.27-8.77c-1.31-0.45-2.01-1.87-1.56-3.18c0.45-1.31,1.89-2.01,3.18-1.56
			c5.78,1.98,9.65,7.41,9.65,13.5s-3.88,11.52-9.65,13.5C617.73,921.57,617.46,921.61,617.19,921.61z"/>
		<path fill="#FED18C" d="M649.74,936.8c-3.59,0-7.1-1.4-9.74-4.05l-10.9-10.94c-0.97-0.98-0.97-2.56,0.01-3.54
			c0.98-0.98,2.56-0.97,3.54,0.01l10.9,10.94c2.51,2.52,6.27,3.26,9.58,1.9c2.14-0.89,3.81-2.57,4.7-4.73
			c1.14-2.75,0.84-5.74-0.81-8.22c-1.65-2.47-4.31-3.88-7.27-3.88c0,0-0.01,0-0.01,0l-15.46,0.03c0,0-0.01,0-0.01,0
			c-1.38,0-2.5-1.12-2.5-2.5c0-1.39,1.12-2.51,2.5-2.51l15.46-0.03c0.01,0,0.02,0,0.02,0c4.67,0,8.84,2.22,11.44,6.1
			c2.6,3.89,3.07,8.6,1.28,12.92c-1.4,3.4-4.04,6.04-7.41,7.44C653.33,936.45,651.52,936.8,649.74,936.8z"/>
		<path fill="#FED18C" d="M628.4,958.12c-2.66,0-5.28-0.79-7.61-2.35c-3.89-2.6-6.12-6.78-6.11-11.46v-25.2c0-1.38,1.12-2.5,2.5-2.5
			s2.5,1.12,2.5,2.5v25.21c0,2.98,1.41,5.64,3.89,7.29c2.47,1.65,5.47,1.95,8.22,0.81c2.75-1.14,4.65-3.47,5.24-6.38
			c0.58-2.92-0.3-5.8-2.41-7.9l-10.94-10.9c-0.98-0.98-0.98-2.56-0.01-3.54c0.98-0.98,2.56-0.99,3.54-0.01l10.94,10.9
			c3.31,3.3,4.69,7.83,3.79,12.42c-0.91,4.59-3.91,8.25-8.23,10.04C631.98,957.77,630.18,958.12,628.4,958.12z"/>
		<path fill="#FED18C" d="M598.33,958.11c-1.79,0-3.57-0.35-5.28-1.06c-4.32-1.79-7.32-5.45-8.23-10.04
			c-0.91-4.59,0.47-9.11,3.79-12.42l11-10.97c0.98-0.98,2.56-0.97,3.54,0.01c0.97,0.98,0.97,2.56-0.01,3.54l-11,10.97
			c-2.11,2.1-2.99,4.98-2.41,7.9c0.58,2.92,2.48,5.25,5.23,6.39c2.17,0.9,4.53,0.9,6.67,0.02c3.31-1.37,5.44-4.55,5.43-8.12
			l-0.03-25.23c0-1.38,1.12-2.5,2.5-2.51h0c1.38,0,2.5,1.12,2.5,2.5l0.03,25.22c0.01,5.6-3.34,10.6-8.52,12.75
			C601.87,957.76,600.1,958.11,598.33,958.11z"/>
		<path fill="#FED18C" d="M609.55,899.35C609.55,899.35,609.55,899.35,609.55,899.35c-1.39,0-2.51-1.12-2.5-2.51l0.02-25.23
			c0.01-2.98-1.41-5.63-3.88-7.29c-2.47-1.66-5.47-1.96-8.22-0.82c-2.75,1.14-4.65,3.47-5.24,6.39c-0.58,2.92,0.3,5.8,2.41,7.9
			l11.11,11.07c0.98,0.98,0.98,2.56,0.01,3.54c-0.98,0.98-2.56,0.99-3.54,0.01l-11.12-11.07c-3.31-3.3-4.69-7.83-3.79-12.42
			c0.91-4.59,3.91-8.25,8.23-10.04c4.33-1.8,9.04-1.32,12.92,1.28c3.89,2.6,6.12,6.78,6.1,11.46l-0.02,25.23
			C612.06,898.24,610.94,899.35,609.55,899.35z"/>
		<path fill="#FED18C" d="M617.19,899.34L617.19,899.34c-1.38,0-2.5-1.12-2.5-2.5l0-25.22c-0.01-5.6,3.34-10.6,8.52-12.75
			c3.37-1.4,7.1-1.39,10.5,0.02c4.32,1.79,7.32,5.45,8.23,10.04c0.91,4.59-0.47,9.12-3.79,12.42l-11.05,11.01
			c-0.98,0.97-2.56,0.98-3.54-0.01c-0.97-0.98-0.97-2.56,0.01-3.54l11.05-11.01c2.11-2.1,2.98-4.98,2.4-7.9
			c-0.58-2.92-2.48-5.25-5.23-6.39c-2.17-0.9-4.54-0.9-6.67-0.02c-3.31,1.37-5.44,4.55-5.43,8.12l0,25.22
			C619.69,898.22,618.57,899.34,617.19,899.34z"/>
	</g>
	<g>
		<path fill="#B9B3F2" d="M224.99,330.47v63.86h-9.8l-33.55-47.13c0.45,5.04,0.54,15.47,0.54,47.13h-10.34v-63.86h9.9l33.55,47.49
			c-0.54-5.12-0.54-15.56-0.54-47.49H224.99z"/>
		<path fill="#B9B3F2" d="M234.69,370.94c0-13.94,10.61-24.29,25-24.29c14.48,0,25,10.34,25,24.29c0,14.03-10.52,24.28-25,24.28
			C245.3,395.23,234.69,384.97,234.69,370.94z M274.72,370.94c0-8.64-6.39-15.02-15.02-15.02c-8.55,0-15.02,6.38-15.02,15.02
			c0,8.54,6.47,15.02,15.02,15.02C268.33,385.96,274.72,379.49,274.72,370.94z"/>
		<path fill="#B9B3F2" d="M303.03,354.66c2.52-4.95,7.11-8.18,15.11-7.1l-0.09,8.9c-8.99-1.17-14.3,1.98-14.66,9.17l0.09,28.69
			h-10.34v-46.68h8.45L303.03,354.66z"/>
		<path fill="#B9B3F2" d="M350.33,347.65v8.09h-10.34v38.58h-10.25v-38.58h-7.29v-8.09h7.29v-13.58h10.25v13.58H350.33z"/>
		<path fill="#B9B3F2" d="M402.31,366.99v27.34h-10.43v-25.81c0-9.99-5.67-12.95-11.51-12.95c-7.47,0-12.23,4.77-12.23,13.67v25.09
			h-10.34v-67.46h10.34v28.24c2.97-5.4,8.09-8.46,15.29-8.46C393.32,346.66,402.31,352.68,402.31,366.99z"/>
		<path fill="#B9B3F2" d="M185.42,477.13v-54.32h-17.36v-9.53h45.15v9.53h-17.27v54.32H185.42z"/>
		<path fill="#B9B3F2" d="M209.87,453.75c0-13.94,10.61-24.29,25-24.29c14.48,0,25,10.34,25,24.29c0,14.03-10.52,24.28-25,24.28
			C220.49,478.03,209.87,467.78,209.87,453.75z M249.9,453.75c0-8.64-6.38-15.02-15.02-15.02c-8.55,0-15.02,6.38-15.02,15.02
			c0,8.54,6.47,15.02,15.02,15.02C243.51,468.77,249.9,462.29,249.9,453.75z"/>
		<path fill="#B9B3F2" d="M333.08,430.45l-14.84,46.68h-10.43c-8.18-26.08-9.44-30.94-10.16-36.7c-0.81,5.76-2.25,10.61-10.52,36.7
			H276.6l-14.66-46.68h10.7c7.73,25.9,8.99,30.76,9.8,36.97c0.9-6.3,2.34-11.24,10.25-36.97h10.26c7.55,24.73,8.9,29.59,9.89,36.25
			c0.81-5.67,2.25-10.79,9.71-36.25H333.08z"/>
		<path fill="#B9B3F2" d="M382.89,457.17h-37.51c0.63,7.28,6.66,12.32,14.39,12.32c6.65,0,10.97-3.42,12.95-7.47l9.08,0.99
			c-2.52,8.36-11.15,15.02-22.13,15.02c-14.21,0-24.64-9.62-24.64-24.19c0-13.85,9.98-24.37,23.92-24.37
			C373.18,429.46,383.34,439.36,382.89,457.17z M345.39,449.34h26.89c-0.27-6.57-5.67-11.51-13.31-11.51
			C351.59,437.83,345.93,442.69,345.39,449.34z"/>
		<path fill="#B9B3F2" d="M401.23,437.47c2.52-4.95,7.11-8.18,15.11-7.1l-0.09,8.9c-8.99-1.17-14.3,1.98-14.66,9.17l0.09,28.69
			h-10.34v-46.68h8.45L401.23,437.47z"/>
	</g>
	<g>
		<path fill="#BBB5F4" d="M169.35,289.89c-0.01,0-0.02,0-0.03,0l-15.63-0.03c-1.4,0-2.53-1.14-2.53-2.54c0-1.4,1.13-2.53,2.53-2.53
			c0,0,0,0,0.01,0l15.63,0.03c1.15,0.08,2.31-0.22,3.36-0.66c2.07-0.86,3.77-2.55,4.68-4.64c0.94-2.16,0.95-4.57,0.04-6.77
			c-0.89-2.16-2.57-3.83-4.73-4.73c-2.15-0.89-4.52-0.9-6.67-0.01c-1.06,0.44-2.01,1.08-2.84,1.92l-11,11.04
			c-0.99,0.99-2.59,1-3.58,0.01c-0.99-0.99-0.99-2.59-0.01-3.58l11-11.04c1.3-1.31,2.81-2.32,4.49-3.02
			c3.4-1.41,7.14-1.41,10.55,0.01c3.4,1.41,6.05,4.07,7.46,7.47c1.44,3.47,1.42,7.28-0.06,10.71c-1.42,3.29-4.11,5.95-7.38,7.3
			C172.97,289.54,171.19,289.89,169.35,289.89z"/>
		<path fill="#BBB5F4" d="M96.62,320.01c-5.45,0-10.62-3.25-12.8-8.61c-2.86-7.05,0.53-15.11,7.57-17.97c1.67-0.68,3.51-1,5.32-1
			l15.5,0.13c1.4,0.01,2.52,1.15,2.51,2.55c-0.01,1.39-1.14,2.51-2.53,2.51c-0.01,0-0.01,0-0.02,0l-15.5-0.13c-0.02,0-0.04,0-0.07,0
			c-1.15,0-2.27,0.21-3.3,0.63c-4.45,1.81-6.6,6.91-4.78,11.38c1.81,4.46,6.91,6.62,11.37,4.81c1.06-0.43,2.02-1.07,2.85-1.89
			l11.05-10.95c0.99-0.98,2.59-0.98,3.58,0.02c0.98,0.99,0.97,2.59-0.02,3.58l-11.05,10.94c-1.31,1.3-2.83,2.31-4.51,2.99
			C100.1,319.68,98.35,320.01,96.62,320.01z"/>
		<path fill="#BBB5F4" d="M169.33,320.02c-3.59,0-7.11-1.41-9.75-4.06l-11.07-11.11c-0.99-0.99-0.98-2.59,0.01-3.58
			c0.99-0.99,2.59-0.98,3.58,0.01l11.07,11.11c2.51,2.51,6.25,3.26,9.55,1.89c2.13-0.88,3.79-2.56,4.69-4.71
			c1.13-2.74,0.84-5.73-0.81-8.19c-1.65-2.46-4.29-3.87-7.24-3.87c-0.01,0-0.01,0-0.02,0l-15.66,0.02h0c-1.4,0-2.53-1.13-2.53-2.53
			c0-1.4,1.13-2.53,2.53-2.53l15.65-0.02c0.01,0,0.02,0,0.03,0c4.68,0,8.85,2.23,11.45,6.12c2.61,3.89,3.07,8.61,1.28,12.95
			c-1.41,3.4-4.04,6.05-7.42,7.45C172.93,319.68,171.12,320.02,169.33,320.02z"/>
		<path fill="#BBB5F4" d="M136.81,304.82c-1.05,0-2.03-0.66-2.39-1.71c-0.46-1.32,0.24-2.76,1.57-3.22c3.72-1.29,6.23-4.8,6.23-8.73
			c0-3.93-2.5-7.44-6.22-8.73c-1.32-0.46-2.02-1.9-1.56-3.22c0.46-1.32,1.9-2.02,3.22-1.56c5.75,2,9.62,7.43,9.62,13.51
			c0,6.09-3.87,11.53-9.64,13.52C137.36,304.78,137.08,304.82,136.81,304.82z"/>
		<path fill="#BBB5F4" d="M129.17,304.83c-0.27,0-0.55-0.04-0.82-0.14c-5.78-1.98-9.67-7.42-9.67-13.53
			c0-6.11,3.89-11.55,9.67-13.53c1.33-0.45,2.76,0.25,3.22,1.57c0.45,1.32-0.25,2.76-1.57,3.22c-3.74,1.28-6.25,4.79-6.25,8.74
			s2.51,7.46,6.25,8.74c1.32,0.45,2.02,1.89,1.57,3.22C131.2,304.17,130.22,304.83,129.17,304.83z"/>
		<path fill="#BBB5F4" d="M96.61,289.89c-4.68,0-8.85-2.23-11.46-6.12c-2.61-3.89-3.08-8.61-1.28-12.94
			c1.41-3.4,4.05-6.05,7.42-7.45c5.2-2.15,11.12-0.97,15.08,2.99l10.9,10.94c0.99,0.99,0.98,2.59-0.01,3.58
			c-0.99,0.99-2.59,0.99-3.58-0.01l-10.9-10.94c-2.5-2.51-6.25-3.25-9.55-1.89c-2.13,0.88-3.79,2.56-4.69,4.71
			c-1.13,2.74-0.84,5.73,0.81,8.19c1.65,2.46,4.29,3.87,7.25,3.87c0,0,0.01,0,0.01,0l15.46-0.03c0,0,0.01,0,0.01,0
			c1.4,0,2.53,1.13,2.53,2.53c0,1.4-1.13,2.53-2.53,2.54l-15.46,0.03C96.63,289.89,96.62,289.89,96.61,289.89z"/>
		<path fill="#42164C" d="M129.17,282.56c-1.4,0-2.53-1.13-2.53-2.53v-25.21c0.01-2.97-1.41-5.62-3.87-7.27
			c-2.46-1.65-5.44-1.94-8.19-0.81c-2.74,1.13-4.64,3.46-5.22,6.37c-0.57,2.91,0.3,5.78,2.4,7.87l10.94,10.9
			c0.99,0.99,0.99,2.59,0.01,3.58c-0.99,0.99-2.59,0.99-3.58,0.01l-10.94-10.9c-3.32-3.31-4.7-7.84-3.79-12.44
			c0.91-4.6,3.92-8.27,8.25-10.06c4.33-1.79,9.05-1.33,12.94,1.28c3.89,2.61,6.12,6.79,6.12,11.48v25.2
			C131.7,281.43,130.57,282.56,129.17,282.56z"/>
		<path fill="#42164C" d="M136.82,282.58c-1.4,0-2.53-1.13-2.53-2.53l-0.04-25.22c-0.01-5.61,3.34-10.62,8.54-12.78
			c3.37-1.4,7.11-1.4,10.52,0.02c4.33,1.79,7.34,5.46,8.25,10.06c0.91,4.6-0.47,9.13-3.79,12.44l-11,10.97
			c-0.99,0.99-2.59,0.99-3.58-0.01c-0.99-0.99-0.98-2.59,0.01-3.58l11-10.97c2.1-2.09,2.97-4.96,2.4-7.87
			c-0.58-2.91-2.48-5.23-5.22-6.37c-2.15-0.89-4.52-0.9-6.65-0.02c-3.3,1.37-5.42,4.54-5.42,8.09l0.04,25.23
			C139.36,281.44,138.22,282.58,136.82,282.58L136.82,282.58z"/>
		<path fill="#BBB5F4" d="M148,341.35c-2.66,0-5.29-0.79-7.63-2.36c-3.89-2.61-6.13-6.79-6.12-11.48l0.02-25.23
			c0-1.4,1.13-2.53,2.53-2.53c0,0,0,0,0,0c1.4,0,2.53,1.13,2.53,2.53l-0.02,25.23c-0.01,2.97,1.4,5.62,3.87,7.27
			c2.47,1.65,5.46,1.95,8.19,0.81c2.74-1.13,4.64-3.46,5.22-6.37c0.57-2.91-0.3-5.78-2.4-7.88l-11.11-11.07
			c-0.99-0.99-0.99-2.59-0.01-3.58c0.99-0.99,2.59-1,3.58-0.01l11.12,11.07c3.32,3.31,4.7,7.84,3.79,12.45
			c-0.91,4.6-3.92,8.27-8.25,10.06C151.58,340.99,149.78,341.35,148,341.35z"/>
		<path fill="#BBB5F4" d="M117.93,341.33c-1.79,0-3.58-0.35-5.29-1.06c-4.33-1.79-7.34-5.46-8.25-10.06
			c-0.91-4.6,0.47-9.14,3.79-12.45l11.05-11.01c0.99-0.99,2.59-0.98,3.58,0.01c0.99,0.99,0.98,2.59-0.01,3.58l-11.05,11.01
			c-2.1,2.09-2.97,4.96-2.4,7.88c0.58,2.91,2.48,5.23,5.22,6.36c2.15,0.89,4.52,0.9,6.65,0.02c3.3-1.37,5.42-4.54,5.42-8.09V302.3
			c0-1.4,1.13-2.53,2.53-2.53c1.4,0,2.53,1.13,2.53,2.53v25.22c0.01,5.6-3.34,10.62-8.54,12.77
			C121.48,340.99,119.7,341.33,117.93,341.33z"/>
	</g>
	<g>
		<path fill="#B9B3F2" d="M693.27,340.31h-29.23v17.36h23.74v9.26h-23.74v18.17h29.23v9.53h-39.75v-63.86h39.75V340.31z"/>
		<path fill="#B9B3F2" d="M741.29,347.96h8.72v46.68h-10.34v-9.53c-2.61,6.38-9.08,10.43-17.63,10.43
			c-14.21,0-22.94-10.88-22.94-24.37c0-13.85,9.08-24.2,23.47-24.2c7.02,0,13.49,3.42,17.09,9.53v0.36L741.29,347.96z
			 M739.58,371.25c0-8.46-6.21-14.93-14.93-14.93c-8.82,0-15.11,6.21-15.11,14.93c0,8.81,6.3,15.02,15.11,15.02
			C733.37,386.27,739.58,379.8,739.58,371.25z"/>
		<path fill="#B9B3F2" d="M757.73,380.16l10.07-0.36c0.54,4.86,5.04,7.65,11.06,7.65c5.13,0,8.64-2.07,8.64-5.58
			c0-9.35-27.7-4.05-27.7-21.05c0-8.54,7.91-13.76,17.81-13.76c10.7,0,18.26,6.21,18.62,14.3l-9.8,0.27
			c-0.54-3.96-3.78-6.75-8.9-6.75c-4.32,0-7.73,1.98-7.73,5.22c0,9.17,28.06,3.6,28.06,21.32c0,9.08-8,14.12-19.34,14.12
			C767.72,395.54,758.28,390.86,757.73,380.16z"/>
		<path fill="#B9B3F2" d="M830.4,347.96v8.09h-10.34v38.58H809.8v-38.58h-7.29v-8.09h7.29v-13.58h10.25v13.58H830.4z"/>
		<path fill="#B9B3F2" d="M667.1,477.44v-54.32h-17.36v-9.53h45.15v9.53h-17.27v54.32H667.1z"/>
		<path fill="#B9B3F2" d="M691.56,454.06c0-13.94,10.61-24.29,25-24.29c14.48,0,25,10.34,25,24.29c0,14.03-10.52,24.28-25,24.28
			C702.17,478.34,691.56,468.09,691.56,454.06z M731.58,454.06c0-8.64-6.38-15.02-15.02-15.02c-8.55,0-15.02,6.38-15.02,15.02
			c0,8.54,6.47,15.02,15.02,15.02C725.19,469.08,731.58,462.6,731.58,454.06z"/>
		<path fill="#B9B3F2" d="M814.76,430.76l-14.84,46.68h-10.43c-8.18-26.08-9.44-30.94-10.16-36.7c-0.81,5.76-2.25,10.61-10.52,36.7
			h-10.52l-14.66-46.68h10.7c7.73,25.9,8.99,30.76,9.8,36.97c0.9-6.3,2.34-11.24,10.25-36.97h10.26c7.55,24.73,8.9,29.59,9.89,36.25
			c0.81-5.67,2.25-10.79,9.71-36.25H814.76z"/>
		<path fill="#B9B3F2" d="M864.57,457.48h-37.51c0.63,7.28,6.66,12.32,14.39,12.32c6.65,0,10.97-3.42,12.95-7.47l9.08,0.99
			c-2.52,8.36-11.15,15.02-22.13,15.02c-14.21,0-24.64-9.62-24.64-24.19c0-13.85,9.98-24.37,23.92-24.37
			C854.86,429.77,865.02,439.67,864.57,457.48z M827.07,449.65h26.89c-0.27-6.57-5.67-11.51-13.31-11.51
			C833.27,438.14,827.61,443,827.07,449.65z"/>
		<path fill="#B9B3F2" d="M882.91,437.78c2.52-4.95,7.11-8.18,15.11-7.1l-0.09,8.9c-8.99-1.17-14.3,1.98-14.66,9.17l0.09,28.69
			h-10.34v-46.68h8.45L882.91,437.78z"/>
	</g>
	<g>
		<path fill="#BBB5F4" d="M578.32,320.35c-5.41,0-10.56-3.21-12.76-8.52c-1.44-3.48-1.42-7.28,0.06-10.72
			c1.42-3.29,4.11-5.95,7.38-7.31c1.67-0.69,3.45-1.04,5.29-1.04c0.01,0,0.02,0,0.03,0l15.63,0.03c1.4,0,2.53,1.14,2.53,2.54
			c0,1.4-1.13,2.53-2.53,2.53c0,0,0,0-0.01,0l-15.63-0.03c-0.01,0-0.01,0-0.02,0c-1.17,0-2.3,0.22-3.35,0.66
			c-2.06,0.85-3.77,2.54-4.67,4.64c-0.94,2.16-0.95,4.57-0.04,6.77c1.85,4.45,6.96,6.58,11.4,4.74c1.06-0.44,2.01-1.08,2.85-1.92
			l11-11.04c0.99-0.99,2.59-1,3.58-0.01c0.99,0.99,0.99,2.59,0.01,3.58l-11,11.04c-1.31,1.31-2.82,2.32-4.49,3.02
			C581.85,320.01,580.07,320.35,578.32,320.35z"/>
		<path fill="#42164C" d="M651.05,290.23c-0.04,0-0.08,0-0.13,0l-15.5-0.13c-1.4-0.01-2.52-1.15-2.51-2.55
			c0.01-1.39,1.14-2.51,2.53-2.51c0.01,0,0.01,0,0.02,0l15.5,0.13c1.07,0.01,2.31-0.2,3.37-0.63c2.15-0.88,3.84-2.54,4.74-4.69
			c0.91-2.15,0.92-4.53,0.04-6.68c-0.88-2.16-2.54-3.85-4.69-4.76c-2.14-0.91-4.52-0.93-6.67-0.05c-1.05,0.43-2.01,1.06-2.86,1.9
			l-11.04,10.94c-0.99,0.98-2.59,0.98-3.58-0.02c-0.98-0.99-0.97-2.6,0.02-3.58l11.05-10.95c1.33-1.31,2.84-2.31,4.52-2.99
			c3.41-1.38,7.16-1.35,10.55,0.08c3.39,1.44,6.03,4.11,7.41,7.52c1.39,3.41,1.36,7.16-0.07,10.55c-1.43,3.4-4.09,6.03-7.5,7.42
			C654.6,289.89,652.86,290.23,651.05,290.23z"/>
		<path fill="#BBB5F4" d="M578.28,290.2c-4.67,0-8.85-2.23-11.45-6.12c-2.61-3.9-3.07-8.61-1.28-12.95c1.41-3.4,4.05-6.05,7.42-7.45
			c5.21-2.16,11.12-0.98,15.08,2.99l11.07,11.12c0.99,0.99,0.98,2.59-0.01,3.58c-0.99,0.99-2.59,0.99-3.58-0.01l-11.07-11.11
			c-2.51-2.52-6.25-3.26-9.55-1.89c-2.13,0.88-3.8,2.56-4.69,4.71c-1.13,2.74-0.84,5.73,0.81,8.19c1.65,2.46,4.29,3.87,7.24,3.87
			c0.01,0,0.01,0,0.02,0l15.65-0.03c0,0,0,0,0.01,0c1.4,0,2.53,1.13,2.53,2.53c0,1.4-1.13,2.53-2.53,2.54l-15.65,0.03
			C578.31,290.2,578.3,290.2,578.28,290.2z"/>
		<path fill="#BBB5F4" d="M610.82,305.13c-0.27,0-0.55-0.04-0.83-0.14c-5.76-1.99-9.62-7.42-9.62-13.51
			c0-6.09,3.87-11.52,9.64-13.52c1.33-0.45,2.76,0.24,3.22,1.56c0.46,1.32-0.24,2.76-1.56,3.22c-3.73,1.29-6.23,4.8-6.23,8.73
			c0,3.93,2.5,7.44,6.22,8.73c1.32,0.46,2.02,1.9,1.56,3.22C612.84,304.48,611.86,305.13,610.82,305.13z"/>
		<path fill="#BBB5F4" d="M618.47,305.15c-1.05,0-2.04-0.66-2.4-1.71c-0.45-1.32,0.25-2.76,1.58-3.21c3.74-1.28,6.25-4.79,6.25-8.74
			s-2.51-7.46-6.25-8.74c-1.32-0.45-2.03-1.89-1.58-3.21c0.45-1.32,1.88-2.03,3.21-1.58c5.79,1.98,9.67,7.42,9.67,13.53
			c0,6.11-3.89,11.55-9.67,13.53C619.01,305.11,618.74,305.15,618.47,305.15z"/>
		<path fill="#42164C" d="M651.01,320.33c-3.59,0-7.11-1.41-9.75-4.06l-10.9-10.94c-0.99-0.99-0.98-2.59,0.01-3.58
			s2.59-0.98,3.58,0.01l10.9,10.94c2.5,2.51,6.26,3.26,9.55,1.89c2.13-0.88,3.8-2.56,4.69-4.71c1.13-2.74,0.84-5.73-0.81-8.19
			c-1.65-2.46-4.29-3.87-7.24-3.87c-0.01,0-0.01,0-0.02,0l-15.46,0.03c0,0-0.01,0-0.01,0c-1.4,0-2.53-1.13-2.53-2.53
			c0-1.4,1.13-2.53,2.53-2.54l15.46-0.03c0.01,0,0.02,0,0.03,0c4.67,0,8.85,2.23,11.45,6.12c2.61,3.89,3.07,8.61,1.28,12.95
			c-1.41,3.4-4.05,6.05-7.43,7.45C654.61,319.99,652.8,320.33,651.01,320.33z"/>
		<path fill="#BBB5F4" d="M629.68,341.66c-2.66,0-5.29-0.79-7.62-2.35c-3.9-2.61-6.13-6.8-6.12-11.48v-25.2
			c0-1.4,1.13-2.53,2.53-2.53s2.53,1.13,2.53,2.53v25.21c-0.01,2.97,1.41,5.62,3.88,7.27c2.46,1.65,5.44,1.95,8.19,0.81
			c2.74-1.13,4.64-3.46,5.22-6.36c0.57-2.91-0.3-5.78-2.4-7.88l-10.94-10.9c-0.99-0.99-0.99-2.59-0.01-3.58
			c0.99-0.99,2.59-1,3.58-0.01l10.94,10.9c3.32,3.31,4.71,7.85,3.79,12.45c-0.91,4.6-3.92,8.26-8.25,10.06
			C633.26,341.3,631.46,341.66,629.68,341.66z"/>
		<path fill="#BBB5F4" d="M599.61,341.65c-1.79,0-3.58-0.35-5.3-1.06c-4.33-1.79-7.34-5.46-8.24-10.06
			c-0.91-4.59,0.47-9.13,3.79-12.44l11.01-10.97c0.99-0.99,2.59-0.98,3.58,0.01c0.99,0.99,0.98,2.59-0.01,3.58l-11,10.97
			c-2.1,2.1-2.97,4.96-2.4,7.87c0.57,2.91,2.48,5.23,5.22,6.37c2.16,0.89,4.52,0.9,6.65,0.02c3.3-1.36,5.42-4.54,5.42-8.09
			l-0.03-25.23c0-1.4,1.13-2.53,2.53-2.53h0c1.4,0,2.53,1.13,2.53,2.53l0.03,25.23c0.01,5.61-3.34,10.62-8.54,12.77
			C603.16,341.3,601.39,341.65,599.61,341.65z"/>
		<path fill="#BBB5F4" d="M610.83,282.9L610.83,282.9c-1.4,0-2.53-1.13-2.53-2.53l0.02-25.23c0.01-2.97-1.41-5.62-3.88-7.27
			c-2.46-1.65-5.45-1.94-8.19-0.81c-2.74,1.13-4.64,3.45-5.22,6.37c-0.57,2.91,0.3,5.78,2.4,7.88l11.11,11.07
			c0.99,0.99,0.99,2.59,0.01,3.58c-0.98,0.99-2.59,1-3.58,0.01l-11.12-11.07c-3.32-3.31-4.7-7.85-3.79-12.45
			c0.91-4.6,3.92-8.27,8.25-10.06c4.33-1.8,9.05-1.33,12.94,1.28c3.9,2.61,6.13,6.8,6.12,11.48l-0.02,25.23
			C613.36,281.76,612.23,282.9,610.83,282.9z"/>
		<path fill="#BBB5F4" d="M618.47,282.89L618.47,282.89c-1.4,0-2.53-1.13-2.53-2.53l0-25.22c-0.01-5.6,3.34-10.62,8.54-12.77
			c3.37-1.4,7.11-1.39,10.52,0.02c4.33,1.8,7.33,5.46,8.24,10.06c0.91,4.6-0.47,9.13-3.79,12.44l-11.04,11.01
			c-0.99,0.99-2.59,0.98-3.58-0.01c-0.99-0.99-0.98-2.59,0.01-3.58l11.04-11.01c2.1-2.09,2.98-4.96,2.4-7.87
			c-0.58-2.91-2.48-5.23-5.22-6.37c-2.16-0.89-4.52-0.9-6.65-0.02c-3.3,1.37-5.42,4.54-5.42,8.09l0,25.23
			C621,281.75,619.87,282.89,618.47,282.89z"/>
	</g>
	<g>
		<path fill="#B9B3F2" d="M167.7,681.54h10.88c0.27,7.73,5.94,11.6,12.5,11.6c6.75,0,10.88-3.51,10.88-8.46
			c0-13.22-31.84-10.25-31.84-31.12c0-10.25,8.36-17.18,20.06-17.18c12.5,0,20.69,7.82,21.14,19.25l-10.61,0.27
			c-0.36-6.65-4.32-10.61-10.34-10.61c-5.31,0-9.44,2.97-9.44,7.91c0,14.3,32.11,9.62,32.11,30.85c0,11.15-9.35,17.99-21.95,17.99
			C176.78,702.05,168.06,692.79,167.7,681.54z"/>
		<path fill="#B9B3F2" d="M219.05,677.77c0-13.94,10.61-24.29,25-24.29c14.48,0,25,10.34,25,24.29c0,14.03-10.52,24.28-25,24.28
			C229.66,702.05,219.05,691.8,219.05,677.77z M259.07,677.77c0-8.64-6.38-15.02-15.02-15.02c-8.55,0-15.02,6.38-15.02,15.02
			c0,8.54,6.47,15.02,15.02,15.02C252.68,692.79,259.07,686.31,259.07,677.77z"/>
		<path fill="#B9B3F2" d="M310.95,654.47h10.43v46.68h-8.82l-1.26-8.27c-2.88,5.85-8.18,9.26-15.74,9.26
			c-9.8,0-18.71-6.03-18.71-20.33v-27.34h10.26v25.81c0,9.98,5.76,13.04,11.6,13.04c7.38,0,12.23-4.86,12.23-13.76V654.47z"/>
		<path fill="#B9B3F2" d="M356.72,654.47v8.09h-10.34v38.58h-10.25v-38.58h-7.29v-8.09h7.29v-13.58h10.25v13.58H356.72z"/>
		<path fill="#B9B3F2" d="M408.69,673.81v27.34h-10.43v-25.81c0-9.99-5.67-12.95-11.51-12.95c-7.47,0-12.23,4.77-12.23,13.67v25.09
			h-10.34v-67.46h10.34v28.24c2.97-5.4,8.09-8.46,15.29-8.46C399.7,653.48,408.69,659.51,408.69,673.81z"/>
		<path fill="#B9B3F2" d="M185.42,783.95v-54.32h-17.36v-9.53h45.15v9.53h-17.27v54.32H185.42z"/>
		<path fill="#B9B3F2" d="M209.87,760.57c0-13.94,10.61-24.29,25-24.29c14.48,0,25,10.34,25,24.29c0,14.03-10.52,24.28-25,24.28
			C220.49,784.85,209.87,774.6,209.87,760.57z M249.9,760.57c0-8.64-6.38-15.02-15.02-15.02c-8.55,0-15.02,6.38-15.02,15.02
			c0,8.54,6.47,15.02,15.02,15.02C243.51,775.59,249.9,769.11,249.9,760.57z"/>
		<path fill="#B9B3F2" d="M333.08,737.28l-14.84,46.68h-10.43c-8.18-26.08-9.44-30.94-10.16-36.7c-0.81,5.76-2.25,10.61-10.52,36.7
			H276.6l-14.66-46.68h10.7c7.73,25.9,8.99,30.76,9.8,36.97c0.9-6.3,2.34-11.24,10.25-36.97h10.26c7.55,24.73,8.9,29.59,9.89,36.25
			c0.81-5.67,2.25-10.79,9.71-36.25H333.08z"/>
		<path fill="#B9B3F2" d="M382.89,763.99h-37.51c0.63,7.28,6.66,12.32,14.39,12.32c6.65,0,10.97-3.42,12.95-7.47l9.08,0.99
			c-2.52,8.36-11.15,15.02-22.13,15.02c-14.21,0-24.64-9.62-24.64-24.19c0-13.85,9.98-24.37,23.92-24.37
			C373.18,736.29,383.34,746.18,382.89,763.99z M345.39,756.16h26.89c-0.27-6.57-5.67-11.51-13.31-11.51
			C351.59,744.65,345.93,749.51,345.39,756.16z"/>
		<path fill="#B9B3F2" d="M401.23,744.29c2.52-4.95,7.11-8.18,15.11-7.1l-0.09,8.9c-8.99-1.17-14.3,1.98-14.66,9.17l0.09,28.69
			h-10.34v-46.68h8.45L401.23,744.29z"/>
	</g>
	<g>
		<path fill="#BBB5F4" d="M96.64,626.86c-5.42,0-10.57-3.21-12.76-8.52c-1.44-3.48-1.42-7.28,0.07-10.72
			c1.42-3.29,4.11-5.95,7.38-7.3c1.67-0.69,3.44-1.04,5.29-1.04c0.01,0,0.02,0,0.03,0l15.63,0.03c1.4,0,2.53,1.14,2.53,2.54
			c0,1.4-1.13,2.53-2.53,2.53c0,0,0,0-0.01,0l-15.63-0.03c-0.01,0-0.01,0-0.02,0c-1.17,0-2.3,0.22-3.34,0.66
			c-2.07,0.85-3.77,2.54-4.68,4.64c-0.94,2.16-0.95,4.57-0.04,6.77c1.84,4.45,6.97,6.58,11.4,4.74c1.05-0.44,2.01-1.08,2.84-1.92
			l11-11.04c0.99-0.99,2.59-1,3.58-0.01c0.99,0.99,0.99,2.59,0.01,3.58l-11,11.04c-1.31,1.31-2.82,2.33-4.49,3.02
			C100.17,626.52,98.39,626.86,96.64,626.86z"/>
		<path fill="#BBB5F4" d="M169.35,596.74c-0.04,0-0.07,0-0.11,0l-15.5-0.13c-1.4-0.01-2.52-1.15-2.51-2.55
			c0.01-1.4,1.21-2.53,2.55-2.51l15.5,0.13c0.02,0,0.04,0,0.07,0c1.15,0,2.27-0.21,3.3-0.63c2.15-0.87,3.83-2.54,4.74-4.69
			c0.91-2.15,0.92-4.53,0.04-6.69c-0.88-2.16-2.54-3.85-4.69-4.76c-2.15-0.91-4.52-0.93-6.67-0.05c-1.06,0.43-2.02,1.07-2.85,1.89
			l-11.06,10.95c-0.99,0.98-2.6,0.97-3.58-0.02c-0.98-0.99-0.97-2.59,0.02-3.58l11.05-10.94c1.31-1.3,2.83-2.31,4.51-2.99
			c3.4-1.38,7.15-1.36,10.55,0.08c3.4,1.44,6.03,4.1,7.41,7.51c1.39,3.41,1.36,7.16-0.07,10.55c-1.43,3.4-4.09,6.03-7.5,7.42
			C172.92,596.4,171.16,596.74,169.35,596.74z"/>
		<path fill="#BBB5F4" d="M96.6,596.72c-4.67,0-8.85-2.23-11.45-6.12c-2.61-3.89-3.08-8.61-1.28-12.94c1.41-3.4,4.05-6.05,7.43-7.45
			c5.21-2.16,11.12-0.97,15.08,3l11.07,11.11c0.99,0.99,0.98,2.59-0.01,3.58c-0.99,0.99-2.59,0.99-3.58-0.01l-11.07-11.11
			c-2.5-2.51-6.25-3.26-9.55-1.89c-2.13,0.88-3.8,2.56-4.69,4.71c-1.13,2.74-0.84,5.73,0.81,8.19c1.65,2.46,4.28,3.87,7.24,3.87
			c0.01,0,0.01,0,0.02,0l15.66-0.02h0c1.4,0,2.53,1.13,2.53,2.53c0,1.4-1.13,2.53-2.53,2.53l-15.66,0.02
			C96.62,596.72,96.61,596.72,96.6,596.72z"/>
		<path fill="#BBB5F4" d="M129.13,611.65c-0.27,0-0.55-0.04-0.83-0.14c-5.76-1.99-9.62-7.42-9.62-13.51
			c0-6.09,3.87-11.53,9.63-13.52c1.33-0.46,2.76,0.24,3.22,1.56s-0.24,2.76-1.56,3.22c-3.73,1.29-6.23,4.8-6.23,8.73
			c0,3.93,2.5,7.44,6.22,8.73c1.32,0.46,2.02,1.9,1.56,3.22C131.16,610.99,130.18,611.65,129.13,611.65z"/>
		<path fill="#BBB5F4" d="M136.79,611.67c-1.05,0-2.03-0.66-2.4-1.71c-0.45-1.32,0.25-2.76,1.57-3.22c3.74-1.28,6.25-4.79,6.25-8.74
			s-2.51-7.46-6.25-8.74c-1.32-0.45-2.02-1.89-1.57-3.22c0.45-1.32,1.89-2.02,3.22-1.57c5.78,1.98,9.67,7.42,9.67,13.53
			s-3.88,11.55-9.67,13.53C137.34,611.62,137.06,611.67,136.79,611.67z"/>
		<path fill="#BBB5F4" d="M169.33,626.85c-3.59,0-7.11-1.4-9.75-4.06l-10.9-10.94c-0.99-0.99-0.98-2.59,0.01-3.58
			c0.99-0.99,2.6-0.98,3.58,0.01l10.9,10.94c2.5,2.51,6.25,3.26,9.55,1.89c2.13-0.88,3.79-2.56,4.69-4.71
			c1.13-2.74,0.84-5.73-0.81-8.19c-1.65-2.46-4.29-3.87-7.25-3.87c0,0-0.01,0-0.01,0l-15.45,0.03c0,0,0,0-0.01,0
			c-1.4,0-2.53-1.13-2.53-2.53c0-1.4,1.13-2.53,2.53-2.54l15.46-0.03c0.01,0,0.02,0,0.02,0c4.68,0,8.86,2.23,11.46,6.12
			c2.61,3.89,3.08,8.61,1.28,12.94c-1.41,3.41-4.05,6.05-7.43,7.45C172.93,626.5,171.12,626.85,169.33,626.85z"/>
		<path fill="#42164C" d="M148,648.17c-2.66,0-5.29-0.79-7.62-2.35c-3.89-2.61-6.12-6.79-6.12-11.48v-25.2
			c0-1.4,1.13-2.53,2.53-2.53s2.53,1.13,2.53,2.53v25.21c-0.01,2.97,1.41,5.62,3.87,7.27c2.47,1.65,5.45,1.94,8.19,0.81
			c2.74-1.13,4.64-3.46,5.22-6.37c0.57-2.91-0.3-5.78-2.4-7.87l-10.94-10.9c-0.99-0.99-0.99-2.59-0.01-3.58
			c0.99-0.99,2.59-1,3.58-0.01l10.94,10.9c3.32,3.31,4.71,7.84,3.79,12.44c-0.91,4.6-3.92,8.27-8.25,10.06
			C151.58,647.82,149.78,648.17,148,648.17z"/>
		<path fill="#42164C" d="M117.93,648.16c-1.79,0-3.58-0.35-5.29-1.06c-4.33-1.8-7.34-5.47-8.25-10.06
			c-0.91-4.6,0.47-9.13,3.79-12.44l11.01-10.97c0.99-0.99,2.59-0.98,3.58,0.01c0.99,0.99,0.98,2.59-0.01,3.58l-11.01,10.97
			c-2.1,2.09-2.97,4.96-2.4,7.87c0.58,2.91,2.48,5.23,5.22,6.37c2.16,0.89,4.52,0.9,6.65,0.02c3.3-1.37,5.42-4.55,5.42-8.09
			l-0.04-25.23c0-1.4,1.13-2.53,2.53-2.53h0c1.4,0,2.53,1.13,2.53,2.53l0.04,25.23c0.01,5.6-3.34,10.62-8.54,12.78
			C121.48,647.81,119.71,648.16,117.93,648.16z"/>
		<path fill="#BBB5F4" d="M129.15,589.41C129.15,589.41,129.15,589.41,129.15,589.41c-1.4,0-2.53-1.13-2.53-2.53l0.02-25.23
			c0.01-2.97-1.41-5.62-3.87-7.27c-2.46-1.65-5.45-1.94-8.19-0.81c-2.74,1.13-4.64,3.46-5.22,6.37c-0.57,2.91,0.3,5.78,2.4,7.88
			l11.12,11.07c0.99,0.99,0.99,2.59,0.01,3.58c-0.99,0.99-2.59,1-3.58,0.01l-11.11-11.07c-3.32-3.31-4.71-7.84-3.79-12.45
			c0.91-4.6,3.92-8.27,8.25-10.06c4.33-1.79,9.05-1.33,12.94,1.28c3.89,2.61,6.12,6.8,6.12,11.48l-0.02,25.23
			C131.68,588.28,130.55,589.41,129.15,589.41z"/>
		<path fill="#BBB5F4" d="M136.79,589.4c-1.4,0-2.53-1.13-2.53-2.53v-25.22c-0.01-5.6,3.34-10.62,8.54-12.77
			c3.38-1.4,7.11-1.39,10.52,0.02c4.33,1.79,7.34,5.46,8.25,10.06c0.91,4.6-0.47,9.14-3.79,12.45l-11.05,11.01
			c-0.99,0.99-2.59,0.99-3.58-0.01c-0.99-0.99-0.98-2.59,0.01-3.58l11.05-11.01c2.1-2.09,2.97-4.96,2.4-7.88
			c-0.58-2.91-2.48-5.23-5.22-6.36c-2.15-0.89-4.52-0.9-6.65-0.02c-3.3,1.37-5.42,4.54-5.42,8.09v25.23
			C139.32,588.26,138.19,589.4,136.79,589.4z"/>
	</g>
	<g>
		<path fill="#B9B3F2" d="M732.4,637.37l-17.63,63.86h-12.05c-8.99-34.18-11.42-44.61-12.23-51.63c-0.81,7.2-3.42,17.45-12.77,51.63
			h-11.78l-17.54-63.86h11.06c8.99,34.18,11.87,45.78,12.95,53.06c0.99-8,3.69-18.8,12.59-53.06h11.42
			c8.72,32.74,11.6,44.79,12.77,52.08c1.08-7.65,3.87-19.07,12.59-52.08H732.4z"/>
		<path fill="#B9B3F2" d="M780.05,681.27h-37.51c0.63,7.28,6.65,12.32,14.39,12.32c6.65,0,10.97-3.42,12.95-7.47l9.08,0.99
			c-2.52,8.36-11.15,15.02-22.13,15.02c-14.21,0-24.64-9.62-24.64-24.19c0-13.85,9.98-24.37,23.92-24.37
			C770.34,653.56,780.5,663.45,780.05,681.27z M742.54,673.44h26.89c-0.27-6.57-5.67-11.51-13.31-11.51
			C748.75,661.93,743.08,666.78,742.54,673.44z"/>
		<path fill="#B9B3F2" d="M785.52,686.75l10.07-0.36c0.54,4.86,5.04,7.65,11.06,7.65c5.13,0,8.64-2.07,8.64-5.58
			c0-9.35-27.7-4.05-27.7-21.05c0-8.54,7.91-13.76,17.81-13.76c10.7,0,18.26,6.21,18.62,14.3l-9.8,0.27
			c-0.54-3.96-3.78-6.75-8.9-6.75c-4.32,0-7.74,1.98-7.74,5.22c0,9.17,28.06,3.6,28.06,21.32c0,9.08-8,14.12-19.34,14.12
			C795.5,702.13,786.06,697.45,785.52,686.75z"/>
		<path fill="#B9B3F2" d="M858.18,654.55v8.09h-10.34v38.58h-10.25v-38.58h-7.29v-8.09h7.29v-13.58h10.25v13.58H858.18z"/>
		<path fill="#B9B3F2" d="M667.1,784.04v-54.32h-17.36v-9.53h45.15v9.53h-17.27v54.32H667.1z"/>
		<path fill="#B9B3F2" d="M691.56,760.65c0-13.94,10.61-24.29,25-24.29c14.48,0,25,10.34,25,24.29c0,14.03-10.52,24.28-25,24.28
			C702.17,784.93,691.56,774.68,691.56,760.65z M731.58,760.65c0-8.64-6.38-15.02-15.02-15.02c-8.55,0-15.02,6.38-15.02,15.02
			c0,8.54,6.47,15.02,15.02,15.02C725.19,775.67,731.58,769.2,731.58,760.65z"/>
		<path fill="#B9B3F2" d="M814.76,737.36l-14.84,46.68h-10.43c-8.18-26.08-9.44-30.94-10.16-36.7c-0.81,5.76-2.25,10.61-10.52,36.7
			h-10.52l-14.66-46.68h10.7c7.73,25.9,8.99,30.76,9.8,36.97c0.9-6.3,2.34-11.24,10.25-36.97h10.26c7.55,24.73,8.9,29.59,9.89,36.25
			c0.81-5.67,2.25-10.79,9.71-36.25H814.76z"/>
		<path fill="#B9B3F2" d="M864.57,764.07h-37.51c0.63,7.28,6.66,12.32,14.39,12.32c6.65,0,10.97-3.42,12.95-7.47l9.08,0.99
			c-2.52,8.36-11.15,15.02-22.13,15.02c-14.21,0-24.64-9.62-24.64-24.19c0-13.85,9.98-24.37,23.92-24.37
			C854.86,736.37,865.02,746.26,864.57,764.07z M827.07,756.25h26.89c-0.27-6.57-5.67-11.51-13.31-11.51
			C833.27,744.73,827.61,749.59,827.07,756.25z"/>
		<path fill="#B9B3F2" d="M882.91,744.37c2.52-4.95,7.11-8.18,15.11-7.1l-0.09,8.9c-8.99-1.17-14.3,1.98-14.66,9.17l0.09,28.69
			h-10.34v-46.68h8.45L882.91,744.37z"/>
	</g>
	<g>
		<path fill="#42164C" d="M578.31,626.94c-1.79,0-3.58-0.35-5.29-1.06c-3.4-1.41-6.06-4.06-7.46-7.47
			c-1.44-3.47-1.42-7.28,0.06-10.72c1.42-3.29,4.11-5.95,7.38-7.3c1.67-0.69,3.45-1.04,5.29-1.04c0.01,0,0.02,0,0.03,0l15.63,0.03
			c1.4,0,2.53,1.14,2.53,2.54c0,1.4-1.13,2.53-2.53,2.53c0,0,0,0-0.01,0l-15.63-0.03c-0.01,0-0.01,0-0.02,0
			c-1.17,0-2.3,0.22-3.35,0.66c-2.07,0.86-3.77,2.55-4.67,4.64c-0.94,2.16-0.95,4.57-0.04,6.77c0.89,2.16,2.57,3.83,4.73,4.73
			c2.15,0.89,4.52,0.9,6.67,0.01c1.06-0.44,2.01-1.08,2.85-1.92l11-11.04c0.99-0.99,2.59-1,3.58-0.01c0.99,0.99,0.99,2.59,0.01,3.58
			l-11,11.04c-1.31,1.31-2.82,2.32-4.49,3.02C581.87,626.59,580.09,626.94,578.31,626.94z"/>
		<path fill="#BBB5F4" d="M651.03,596.82c-0.04,0-0.07,0-0.11,0l-15.5-0.13c-1.4-0.01-2.52-1.15-2.51-2.55
			c0.01-1.4,1.07-2.61,2.55-2.51l15.5,0.13c0.02,0,0.04,0,0.07,0c1.15,0,2.27-0.21,3.3-0.63c2.15-0.87,3.83-2.54,4.74-4.69
			c0.91-2.15,0.92-4.53,0.04-6.69c-1.81-4.46-6.9-6.62-11.36-4.81c-1.06,0.43-2.02,1.07-2.86,1.9l-11.05,10.94
			c-0.99,0.98-2.59,0.98-3.58-0.02c-0.98-0.99-0.97-2.59,0.02-3.58l11.05-10.94c1.32-1.3,2.84-2.31,4.51-2.99
			c7.03-2.85,15.09,0.54,17.96,7.6c1.39,3.41,1.36,7.16-0.07,10.55c-1.43,3.4-4.09,6.03-7.5,7.42
			C654.59,596.48,652.84,596.82,651.03,596.82z"/>
		<path fill="#42164C" d="M578.28,596.8c-4.67,0-8.84-2.23-11.45-6.11c-2.61-3.9-3.07-8.62-1.28-12.95c1.41-3.4,4.04-6.05,7.42-7.45
			c5.2-2.16,11.12-0.97,15.08,2.99l11.07,11.12c0.99,0.99,0.98,2.59-0.01,3.58c-0.99,0.99-2.59,0.99-3.58-0.01l-11.07-11.11
			c-2.5-2.51-6.25-3.26-9.55-1.89c-2.13,0.88-3.8,2.56-4.69,4.71c-1.13,2.74-0.84,5.73,0.81,8.19c1.65,2.46,4.29,3.87,7.24,3.87
			c0.01,0,0.01,0,0.02,0l15.66-0.02h0c1.4,0,2.53,1.13,2.53,2.53c0,1.4-1.13,2.53-2.53,2.53l-15.65,0.02
			C578.31,596.8,578.3,596.8,578.28,596.8z"/>
		<path fill="#BBB5F4" d="M610.82,611.73c-0.27,0-0.56-0.04-0.83-0.14c-5.75-2-9.62-7.43-9.62-13.51c0-6.09,3.87-11.53,9.64-13.52
			c1.33-0.46,2.76,0.24,3.22,1.56c0.46,1.32-0.24,2.76-1.56,3.22c-3.73,1.29-6.23,4.8-6.23,8.73c0,3.93,2.5,7.44,6.22,8.73
			c1.32,0.46,2.02,1.9,1.56,3.22C612.84,611.07,611.86,611.73,610.82,611.73z"/>
		<path fill="#BBB5F4" d="M618.47,611.75c-1.05,0-2.03-0.66-2.4-1.71c-0.45-1.32,0.25-2.76,1.57-3.22c3.74-1.28,6.25-4.79,6.25-8.74
			s-2.51-7.46-6.25-8.74c-1.32-0.45-2.02-1.89-1.57-3.22c0.46-1.32,1.9-2.02,3.22-1.57c5.78,1.98,9.67,7.42,9.67,13.53
			c0,6.11-3.89,11.55-9.67,13.53C619.02,611.7,618.74,611.75,618.47,611.75z"/>
		<path fill="#BBB5F4" d="M651.01,626.93c-3.59,0-7.11-1.41-9.75-4.06l-10.9-10.94c-0.99-0.99-0.98-2.59,0.01-3.58
			c0.99-0.99,2.59-0.98,3.58,0.01l10.9,10.94c2.51,2.51,6.25,3.25,9.55,1.89c2.13-0.88,3.8-2.56,4.69-4.71
			c1.13-2.74,0.84-5.73-0.81-8.19c-1.65-2.46-4.29-3.87-7.25-3.87c0,0-0.01,0-0.01,0l-15.46,0.03c0,0-0.01,0-0.01,0
			c-1.4,0-2.53-1.13-2.53-2.53c0-1.4,1.13-2.53,2.53-2.54l15.46-0.03c0.01,0,0.02,0,0.02,0c4.68,0,8.85,2.23,11.46,6.12
			c2.61,3.9,3.07,8.62,1.28,12.95c-1.41,3.4-4.05,6.05-7.43,7.45C654.61,626.58,652.8,626.93,651.01,626.93z"/>
		<path fill="#BBB5F4" d="M629.68,648.25c-2.66,0-5.29-0.79-7.62-2.35c-3.9-2.61-6.13-6.79-6.12-11.48v-25.2
			c0-1.4,1.13-2.53,2.53-2.53s2.53,1.13,2.53,2.53v25.21c-0.01,2.97,1.41,5.62,3.87,7.27c2.47,1.65,5.45,1.94,8.19,0.81
			c2.74-1.13,4.64-3.46,5.22-6.37c0.57-2.91-0.3-5.78-2.4-7.87l-10.94-10.9c-0.99-0.99-0.99-2.59-0.01-3.58
			c0.99-0.99,2.59-1,3.58-0.01l10.94,10.9c3.32,3.31,4.71,7.85,3.79,12.44c-0.91,4.6-3.92,8.27-8.25,10.06
			C633.26,647.9,631.46,648.25,629.68,648.25z"/>
		<path fill="#BBB5F4" d="M599.61,648.24c-1.79,0-3.58-0.35-5.29-1.06c-4.33-1.79-7.34-5.46-8.24-10.06
			c-0.91-4.59,0.47-9.13,3.79-12.44l11-10.97c0.99-0.99,2.59-0.98,3.58,0.01c0.99,0.99,0.98,2.59-0.01,3.58l-11,10.97
			c-2.1,2.09-2.97,4.96-2.4,7.87c0.57,2.91,2.48,5.23,5.22,6.37c2.15,0.89,4.52,0.9,6.65,0.02c3.3-1.37,5.42-4.54,5.42-8.09
			l-0.03-25.23c0-1.4,1.13-2.53,2.53-2.53h0c1.4,0,2.53,1.13,2.53,2.53l0.03,25.22c0.01,5.61-3.34,10.62-8.54,12.78
			C603.16,647.89,601.39,648.24,599.61,648.24z"/>
		<path fill="#BBB5F4" d="M610.83,589.49L610.83,589.49c-1.4,0-2.53-1.13-2.53-2.53l0.02-25.23c0.01-2.97-1.41-5.62-3.87-7.27
			c-2.46-1.65-5.44-1.95-8.19-0.81c-2.74,1.13-4.64,3.46-5.22,6.37c-0.57,2.91,0.3,5.78,2.4,7.87l11.11,11.07
			c0.99,0.99,0.99,2.59,0.01,3.58c-0.98,0.99-2.59,1-3.58,0.01l-11.12-11.07c-3.32-3.31-4.71-7.85-3.79-12.45s3.92-8.27,8.25-10.06
			c4.34-1.8,9.06-1.32,12.95,1.28c3.89,2.61,6.12,6.79,6.12,11.48l-0.02,25.23C613.36,588.36,612.23,589.49,610.83,589.49z"/>
		<path fill="#BBB5F4" d="M618.47,589.48L618.47,589.48c-1.4,0-2.53-1.13-2.53-2.53l0-25.22c-0.01-5.61,3.34-10.62,8.54-12.77
			c3.38-1.4,7.11-1.39,10.52,0.02c4.33,1.79,7.33,5.46,8.24,10.06c0.91,4.6-0.47,9.13-3.79,12.45l-11.05,11.01
			c-0.99,0.99-2.59,0.99-3.58-0.01c-0.99-0.99-0.98-2.59,0.01-3.58l11.04-11.01c2.1-2.1,2.97-4.96,2.4-7.87
			c-0.58-2.91-2.48-5.23-5.22-6.37c-2.15-0.89-4.52-0.9-6.65-0.02c-3.3,1.36-5.42,4.54-5.42,8.09l0,25.22
			C621,588.35,619.87,589.48,618.47,589.48z"/>
	</g>
</g>
<g>
	<g>
		<path fill="#FED18C" d="M1393.93,429.57c-10.94,0-21.34-6.49-25.79-17.22c-2.91-7.02-2.86-14.72,0.13-21.65
			c2.88-6.64,8.31-12.02,14.91-14.76c3.37-1.4,6.96-2.1,10.68-2.1c0.02,0,0.03,0,0.06,0l31.64,0.06c2.8,0.01,5.06,2.28,5.06,5.08
			c-0.01,2.79-2.28,5.06-5.07,5.06c-0.01,0-0.01,0-0.01,0l-31.64-0.06c-0.01,0-0.02,0-0.03,0c-2.38,0-4.67,0.45-6.79,1.33
			c-4.2,1.74-7.66,5.17-9.49,9.42c-1.9,4.39-1.93,9.28-0.08,13.75c3.75,9.05,14.14,13.33,23.15,9.62c2.14-0.89,4.08-2.2,5.77-3.9
			l22.26-22.34c1.98-1.99,5.2-1.99,7.17-0.02c1.98,1.98,1.99,5.18,0.02,7.17l-22.26,22.35c-2.64,2.65-5.69,4.7-9.07,6.1
			C1401.06,428.89,1397.46,429.57,1393.93,429.57z"/>
		<path fill="#FED18C" d="M1541.16,368.6c-0.09,0-0.18,0-0.26,0l-31.37-0.26c-2.8-0.02-5.05-2.31-5.02-5.11
			c0.02-2.78,2.29-5.02,5.07-5.02c0.01,0,0.03,0,0.04,0l31.37,0.26c0.06,0,0.11,0,0.17,0c2.34,0,4.58-0.43,6.67-1.28
			c4.37-1.78,7.79-5.16,9.63-9.53c1.83-4.37,1.87-9.19,0.09-13.57c-1.79-4.39-5.17-7.82-9.54-9.67c-4.36-1.85-9.17-1.87-13.54-0.11
			c-2.14,0.88-4.1,2.18-5.8,3.86l-22.37,22.15c-1.99,1.96-5.2,1.95-7.17-0.04s-1.96-5.2,0.04-7.17l22.37-22.15
			c2.66-2.63,5.72-4.66,9.11-6.04c6.89-2.8,14.46-2.74,21.32,0.17s12.18,8.29,14.97,15.18c2.8,6.89,2.75,14.46-0.13,21.32
			c-2.89,6.86-8.28,12.19-15.16,14.98C1548.34,367.92,1544.81,368.6,1541.16,368.6z"/>
		<path fill="#FED18C" d="M1393.85,368.56c-9.44,0-17.87-4.5-23.13-12.36c-5.27-7.86-6.21-17.4-2.59-26.15
			c2.85-6.88,8.18-12.23,15.01-15.05c10.51-4.35,22.47-1.97,30.46,6.06l22.42,22.49c1.97,1.98,1.97,5.2-0.01,7.17
			c-1.98,1.98-5.19,1.97-7.17-0.01l-22.42-22.5c-5.09-5.11-12.7-6.61-19.39-3.84c-4.33,1.79-7.71,5.19-9.52,9.56
			c-2.3,5.57-1.7,11.63,1.65,16.63c3.34,5,8.71,7.86,14.71,7.86c0.01,0,0.03,0,0.04,0l31.7-0.06c0.01,0,0.01,0,0.01,0
			c2.79,0,5.06,2.26,5.07,5.06c0.01,2.8-2.26,5.07-5.06,5.08l-31.7,0.06C1393.9,368.56,1393.88,368.56,1393.85,368.56z"/>
		<path fill="#FED18C" d="M1459.71,398.78c-0.55,0-1.11-0.09-1.66-0.28c-11.63-4.02-19.44-14.99-19.44-27.29
			c0-12.31,7.82-23.29,19.47-27.31c2.63-0.91,5.53,0.49,6.45,3.14c0.91,2.64-0.49,5.53-3.14,6.45c-7.56,2.61-12.64,9.74-12.64,17.72
			c0,7.98,5.07,15.1,12.62,17.72c2.64,0.91,4.04,3.8,3.12,6.45C1463.78,397.47,1461.81,398.78,1459.71,398.78z"/>
		<path fill="#FED18C" d="M1475.2,398.82c-2.1,0-4.07-1.32-4.79-3.42c-0.91-2.65,0.5-5.53,3.15-6.44
			c7.59-2.61,12.69-9.74,12.69-17.75s-5.1-15.14-12.69-17.75c-2.64-0.91-4.06-3.79-3.15-6.44c0.91-2.64,3.8-4.06,6.44-3.15
			c11.68,4.01,19.53,14.99,19.53,27.33c0,12.34-7.85,23.33-19.53,27.33C1476.31,398.73,1475.75,398.82,1475.2,398.82z"/>
		<path fill="#FED18C" d="M1541.09,429.56c-7.26,0-14.36-2.84-19.7-8.21l-22.07-22.14c-1.97-1.98-1.97-5.2,0.01-7.17
			c1.99-1.98,5.2-1.97,7.17,0.01l22.07,22.14c5.09,5.11,12.68,6.62,19.39,3.85c4.32-1.79,7.7-5.18,9.52-9.56
			c2.31-5.57,1.71-11.63-1.64-16.63c-3.34-5-8.71-7.86-14.72-7.86c-0.01,0-0.03,0-0.04,0l-31.29,0.06c-0.01,0-0.01,0-0.01,0
			c-2.79,0-5.06-2.26-5.07-5.06c-0.01-2.8,2.26-5.07,5.06-5.08l31.29-0.06c0.02,0,0.04,0,0.07,0c9.45,0,17.88,4.5,23.13,12.36
			c5.27,7.86,6.21,17.39,2.58,26.15c-2.85,6.88-8.18,12.23-15,15.05C1548.35,428.85,1544.7,429.56,1541.09,429.56z"/>
		<path fill="#FED18C" d="M1497.9,472.72c-5.38,0-10.69-1.6-15.4-4.75c-7.87-5.28-12.38-13.74-12.36-23.21v-51.02
			c0-2.8,2.27-5.07,5.07-5.07s5.07,2.27,5.07,5.07v51.03c-0.01,6.03,2.85,11.42,7.86,14.77c5,3.34,11.07,3.95,16.63,1.64
			c5.56-2.3,9.43-7.01,10.59-12.93c1.17-5.91-0.61-11.74-4.88-15.99l-22.14-22.06c-1.98-1.98-1.99-5.18-0.02-7.17
			c1.98-1.99,5.2-1.99,7.17-0.02l22.14,22.06c6.71,6.69,9.5,15.86,7.67,25.15c-1.84,9.29-7.92,16.69-16.67,20.32
			C1505.14,472.01,1501.5,472.72,1497.9,472.72z"/>
		<path fill="#FED18C" d="M1437.03,472.7c-3.61,0-7.23-0.71-10.69-2.14c-8.75-3.63-14.83-11.04-16.67-20.32
			c-1.84-9.29,0.95-18.46,7.66-25.14l22.28-22.2c1.98-1.98,5.19-1.97,7.17,0.02c1.97,1.98,1.97,5.19-0.02,7.17l-22.28,22.2
			c-4.26,4.25-6.04,10.07-4.86,15.98c1.17,5.91,5.03,10.62,10.6,12.93c4.37,1.81,9.17,1.81,13.49,0.03
			c6.69-2.78,11.01-9.23,11-16.43l-0.07-51.07c-0.01-2.8,2.26-5.07,5.06-5.07h0.01c2.8,0,5.06,2.26,5.07,5.06l0.07,51.07
			c0.02,11.32-6.75,21.45-17.25,25.81C1444.2,472,1440.61,472.7,1437.03,472.7z"/>
		<path fill="#FED18C" d="M1459.74,353.76C1459.74,353.76,1459.74,353.76,1459.74,353.76c-2.8,0-5.07-2.28-5.07-5.07l0.04-51.07
			c0.01-6.03-2.86-11.41-7.86-14.77c-5-3.34-11.07-3.95-16.63-1.64c-5.56,2.3-9.43,7.01-10.59,12.93
			c-1.17,5.91,0.61,11.75,4.87,15.99l22.5,22.42c1.98,1.98,1.98,5.19,0.01,7.17c-1.98,1.99-5.18,1.99-7.17,0.02l-22.5-22.42
			c-6.71-6.68-9.5-15.85-7.66-25.15c1.84-9.29,7.92-16.69,16.67-20.32c8.75-3.63,18.28-2.67,26.15,2.58
			c7.87,5.28,12.37,13.74,12.36,23.2l-0.04,51.07C1464.81,351.5,1462.54,353.76,1459.74,353.76z"/>
		<path fill="#DD553E" d="M1475.2,353.74c-2.8,0-5.07-2.27-5.07-5.07v-51.06c-0.02-11.32,6.75-21.45,17.26-25.8
			c6.82-2.84,14.37-2.82,21.26,0.03c8.75,3.63,14.83,11.03,16.67,20.32c1.83,9.29-0.95,18.45-7.66,25.14l-22.37,22.29
			c-1.98,1.97-5.19,1.98-7.17-0.02c-1.97-1.98-1.97-5.19,0.02-7.17l22.36-22.28c4.26-4.25,6.04-10.08,4.86-15.99
			c-1.17-5.91-5.03-10.62-10.59-12.93c-4.39-1.82-9.18-1.83-13.49-0.03c-6.7,2.77-11.01,9.22-11,16.42v51.07
			C1480.27,351.47,1478,353.74,1475.2,353.74z"/>
	</g>
	<g>
		<path fill="#FED18C" d="M1654.85,429.57c-10.94,0-21.34-6.49-25.79-17.22c-2.91-7.02-2.86-14.72,0.13-21.65
			c2.88-6.64,8.31-12.02,14.91-14.76c3.37-1.4,6.96-2.1,10.68-2.1c0.02,0,0.03,0,0.06,0l31.64,0.06c2.8,0.01,5.06,2.28,5.06,5.08
			c-0.01,2.79-2.28,5.06-5.07,5.06c-0.01,0-0.01,0-0.01,0l-31.64-0.06c-0.01,0-0.02,0-0.03,0c-2.38,0-4.67,0.45-6.79,1.33
			c-4.2,1.74-7.66,5.17-9.49,9.42c-1.9,4.39-1.93,9.28-0.08,13.75c3.75,9.05,14.14,13.33,23.15,9.62c2.14-0.89,4.08-2.2,5.77-3.9
			l22.26-22.34c1.98-1.99,5.2-1.99,7.17-0.02c1.98,1.98,1.99,5.18,0.02,7.17l-22.26,22.35c-2.64,2.65-5.69,4.7-9.07,6.1
			C1661.99,428.89,1658.39,429.57,1654.85,429.57z"/>
		<path fill="#DD553E" d="M1802.08,368.6c-0.09,0-0.18,0-0.26,0l-31.37-0.26c-2.8-0.02-5.05-2.31-5.02-5.11
			c0.02-2.78,2.29-5.02,5.07-5.02c0.01,0,0.03,0,0.04,0l31.37,0.26c0.06,0,0.11,0,0.17,0c2.34,0,4.58-0.43,6.67-1.28
			c4.37-1.78,7.79-5.16,9.63-9.53c1.83-4.37,1.87-9.19,0.09-13.57c-1.79-4.39-5.17-7.82-9.54-9.67c-4.36-1.85-9.17-1.87-13.54-0.11
			c-2.14,0.88-4.1,2.18-5.8,3.86l-22.37,22.15c-1.99,1.96-5.2,1.95-7.17-0.04c-1.97-1.99-1.96-5.2,0.04-7.17l22.37-22.15
			c2.66-2.63,5.72-4.66,9.11-6.04c6.89-2.8,14.46-2.74,21.32,0.17s12.18,8.29,14.97,15.18c2.8,6.89,2.75,14.46-0.13,21.32
			c-2.89,6.86-8.28,12.19-15.16,14.98C1809.26,367.92,1805.73,368.6,1802.08,368.6z"/>
		<path fill="#FED18C" d="M1654.78,368.56c-9.44,0-17.87-4.5-23.13-12.36c-5.27-7.86-6.21-17.4-2.59-26.15
			c2.85-6.88,8.18-12.23,15.01-15.05c10.51-4.35,22.47-1.97,30.46,6.06l22.42,22.49c1.97,1.98,1.97,5.2-0.01,7.17
			c-1.98,1.98-5.19,1.97-7.17-0.01l-22.42-22.5c-5.09-5.11-12.71-6.61-19.39-3.84c-4.32,1.79-7.71,5.19-9.52,9.56
			c-2.3,5.57-1.7,11.63,1.65,16.63c3.34,5,8.71,7.86,14.71,7.86c0.01,0,0.03,0,0.04,0l31.7-0.06c0.01,0,0.01,0,0.01,0
			c2.79,0,5.06,2.26,5.07,5.06c0.01,2.8-2.26,5.07-5.06,5.08l-31.7,0.06C1654.82,368.56,1654.8,368.56,1654.78,368.56z"/>
		<path fill="#FED18C" d="M1720.64,398.78c-0.55,0-1.11-0.09-1.66-0.28c-11.63-4.02-19.44-14.99-19.44-27.29
			c0-12.31,7.82-23.29,19.47-27.31c2.63-0.91,5.53,0.49,6.45,3.14c0.91,2.64-0.49,5.53-3.14,6.45c-7.56,2.61-12.64,9.74-12.64,17.72
			c0,7.98,5.07,15.1,12.62,17.72c2.64,0.91,4.04,3.8,3.12,6.45C1724.7,397.47,1722.74,398.78,1720.64,398.78z"/>
		<path fill="#FED18C" d="M1736.13,398.82c-2.1,0-4.07-1.32-4.79-3.42c-0.91-2.65,0.5-5.53,3.15-6.44
			c7.59-2.61,12.69-9.74,12.69-17.75s-5.1-15.14-12.69-17.75c-2.64-0.91-4.06-3.79-3.15-6.44c0.91-2.64,3.8-4.06,6.44-3.15
			c11.68,4.01,19.53,14.99,19.53,27.33c0,12.34-7.85,23.33-19.53,27.33C1737.23,398.73,1736.67,398.82,1736.13,398.82z"/>
		<path fill="#FED18C" d="M1802.01,429.56c-7.26,0-14.36-2.84-19.7-8.21l-22.07-22.14c-1.97-1.98-1.97-5.2,0.01-7.17
			c1.99-1.98,5.2-1.97,7.17,0.01l22.07,22.14c5.09,5.11,12.68,6.62,19.39,3.85c4.32-1.79,7.7-5.18,9.52-9.56
			c2.31-5.57,1.71-11.63-1.64-16.63c-3.34-5-8.71-7.86-14.72-7.86c-0.01,0-0.03,0-0.04,0l-31.29,0.06c-0.01,0-0.01,0-0.01,0
			c-2.79,0-5.06-2.26-5.07-5.06c-0.01-2.8,2.26-5.07,5.06-5.08l31.29-0.06c0.02,0,0.04,0,0.07,0c9.45,0,17.88,4.5,23.13,12.36
			c5.27,7.86,6.21,17.39,2.58,26.15c-2.85,6.88-8.18,12.23-15,15.05C1809.27,428.85,1805.62,429.56,1802.01,429.56z"/>
		<path fill="#FED18C" d="M1758.82,472.72c-5.38,0-10.69-1.6-15.4-4.75c-7.87-5.28-12.38-13.74-12.36-23.21v-51.02
			c0-2.8,2.27-5.07,5.07-5.07c2.8,0,5.07,2.27,5.07,5.07v51.03c-0.01,6.03,2.85,11.42,7.86,14.77c5,3.34,11.07,3.95,16.63,1.64
			c5.56-2.3,9.43-7.01,10.59-12.93c1.17-5.91-0.61-11.74-4.88-15.99l-22.14-22.06c-1.98-1.98-1.99-5.18-0.02-7.17
			c1.98-1.99,5.2-1.99,7.17-0.02l22.14,22.06c6.71,6.69,9.5,15.86,7.67,25.15c-1.84,9.29-7.92,16.69-16.67,20.32
			C1766.06,472.01,1762.43,472.72,1758.82,472.72z"/>
		<path fill="#FED18C" d="M1697.95,472.7c-3.61,0-7.23-0.71-10.69-2.14c-8.75-3.63-14.83-11.04-16.67-20.32
			c-1.84-9.29,0.95-18.46,7.66-25.14l22.28-22.2c1.98-1.98,5.19-1.97,7.17,0.02c1.97,1.98,1.97,5.19-0.02,7.17l-22.28,22.2
			c-4.26,4.25-6.04,10.07-4.86,15.98c1.17,5.91,5.03,10.62,10.6,12.93c4.37,1.81,9.17,1.81,13.49,0.03
			c6.69-2.78,11.01-9.23,11-16.43l-0.07-51.07c-0.01-2.8,2.26-5.07,5.06-5.07h0.01c2.8,0,5.06,2.26,5.07,5.06l0.07,51.07
			c0.02,11.32-6.75,21.45-17.25,25.81C1705.12,472,1701.54,472.7,1697.95,472.7z"/>
		<path fill="#FED18C" d="M1720.67,353.76C1720.67,353.76,1720.67,353.76,1720.67,353.76c-2.8,0-5.07-2.28-5.07-5.07l0.04-51.07
			c0.01-6.03-2.86-11.41-7.86-14.77c-5-3.34-11.07-3.95-16.63-1.64c-5.56,2.3-9.43,7.01-10.59,12.93
			c-1.17,5.91,0.61,11.75,4.87,15.99l22.5,22.42c1.98,1.98,1.98,5.19,0.01,7.17c-1.98,1.99-5.18,1.99-7.17,0.02l-22.5-22.42
			c-6.71-6.68-9.5-15.85-7.66-25.15c1.84-9.29,7.92-16.69,16.67-20.32c8.75-3.63,18.28-2.67,26.15,2.58
			c7.87,5.28,12.37,13.74,12.36,23.2l-0.04,51.07C1725.74,351.5,1723.47,353.76,1720.67,353.76z"/>
		<path fill="#FED18C" d="M1736.13,353.74c-2.8,0-5.07-2.27-5.07-5.07v-51.06c-0.02-11.32,6.75-21.45,17.26-25.8
			c6.82-2.84,14.37-2.82,21.26,0.03c8.75,3.63,14.83,11.03,16.67,20.32c1.83,9.29-0.95,18.45-7.66,25.14l-22.37,22.29
			c-1.98,1.97-5.19,1.98-7.17-0.02c-1.97-1.98-1.97-5.19,0.02-7.17l22.36-22.28c4.26-4.25,6.04-10.08,4.86-15.99
			c-1.17-5.91-5.03-10.62-10.59-12.93c-4.39-1.82-9.18-1.83-13.49-0.03c-6.7,2.77-11.01,9.22-11,16.42v51.07
			C1741.2,351.47,1738.93,353.74,1736.13,353.74z"/>
	</g>
	<g>
		<path fill="#FED18C" d="M1143.32,701.21c-10.94,0-21.34-6.49-25.79-17.22c-2.91-7.02-2.86-14.72,0.13-21.65
			c2.88-6.64,8.31-12.02,14.91-14.76c3.37-1.4,6.96-2.1,10.68-2.1c0.02,0,0.03,0,0.06,0l31.64,0.06c2.8,0.01,5.06,2.28,5.06,5.08
			c-0.01,2.79-2.28,5.06-5.07,5.06c-0.01,0-0.01,0-0.01,0l-31.64-0.06c-0.01,0-0.02,0-0.03,0c-2.38,0-4.67,0.45-6.79,1.33
			c-4.2,1.74-7.66,5.17-9.49,9.42c-1.9,4.39-1.93,9.28-0.08,13.75c3.75,9.05,14.14,13.33,23.15,9.62c2.14-0.89,4.08-2.2,5.77-3.9
			l22.26-22.34c1.98-1.99,5.2-1.99,7.17-0.02c1.98,1.98,1.99,5.18,0.02,7.17L1163,692.99c-2.64,2.65-5.69,4.7-9.07,6.1
			C1150.46,700.52,1146.86,701.21,1143.32,701.21z"/>
		<path fill="#FED18C" d="M1290.56,640.23c-0.09,0-0.18,0-0.26,0l-31.37-0.26c-2.8-0.02-5.05-2.31-5.02-5.11
			c0.02-2.78,2.29-5.02,5.07-5.02c0.01,0,0.03,0,0.04,0l31.37,0.26c0.06,0,0.11,0,0.17,0c2.34,0,4.58-0.43,6.67-1.28
			c4.37-1.78,7.79-5.16,9.63-9.53c1.83-4.37,1.87-9.19,0.09-13.57c-1.79-4.39-5.17-7.82-9.54-9.67c-4.36-1.85-9.17-1.87-13.54-0.11
			c-2.14,0.88-4.1,2.18-5.8,3.86l-22.37,22.15c-1.99,1.96-5.2,1.95-7.17-0.04s-1.96-5.2,0.04-7.17l22.37-22.15
			c2.66-2.63,5.72-4.66,9.11-6.04c6.89-2.8,14.46-2.74,21.32,0.17c6.85,2.9,12.18,8.29,14.97,15.18c2.8,6.89,2.75,14.46-0.13,21.32
			c-2.89,6.86-8.28,12.19-15.16,14.98C1297.73,639.55,1294.2,640.23,1290.56,640.23z"/>
		<path fill="#FED18C" d="M1143.25,640.19c-9.44,0-17.87-4.5-23.13-12.36c-5.27-7.86-6.21-17.4-2.59-26.15
			c2.85-6.88,8.18-12.23,15.01-15.05c10.51-4.35,22.47-1.97,30.46,6.05l22.42,22.49c1.97,1.98,1.97,5.2-0.01,7.17
			c-1.98,1.98-5.19,1.97-7.17-0.01l-22.42-22.5c-5.09-5.11-12.71-6.61-19.39-3.84c-4.32,1.79-7.71,5.19-9.52,9.56
			c-2.3,5.57-1.7,11.63,1.65,16.63c3.34,5,8.71,7.86,14.71,7.86c0.01,0,0.03,0,0.04,0l31.7-0.06c0.01,0,0.01,0,0.01,0
			c2.79,0,5.06,2.26,5.07,5.06c0.01,2.8-2.26,5.07-5.06,5.08l-31.7,0.06C1143.3,640.19,1143.27,640.19,1143.25,640.19z"/>
		<path fill="#FED18C" d="M1209.11,670.41c-0.55,0-1.11-0.09-1.66-0.28c-11.63-4.02-19.44-14.99-19.44-27.29
			c0-12.31,7.82-23.29,19.47-27.31c2.63-0.91,5.53,0.49,6.45,3.14c0.91,2.64-0.49,5.53-3.14,6.45c-7.56,2.61-12.64,9.74-12.64,17.72
			c0,7.98,5.07,15.1,12.62,17.72c2.64,0.91,4.04,3.8,3.12,6.45C1213.17,669.1,1211.21,670.41,1209.11,670.41z"/>
		<path fill="#FED18C" d="M1224.6,670.45c-2.1,0-4.07-1.32-4.79-3.42c-0.91-2.65,0.5-5.53,3.15-6.44
			c7.59-2.61,12.69-9.74,12.69-17.75c0-8.01-5.1-15.14-12.69-17.75c-2.64-0.91-4.06-3.79-3.15-6.44c0.91-2.64,3.8-4.06,6.44-3.15
			c11.68,4.01,19.53,14.99,19.53,27.33c0,12.34-7.85,23.33-19.53,27.33C1225.7,670.36,1225.15,670.45,1224.6,670.45z"/>
		<path fill="#DD553E" d="M1290.48,701.19c-7.26,0-14.36-2.84-19.7-8.21l-22.07-22.14c-1.97-1.98-1.97-5.2,0.01-7.17
			c1.99-1.98,5.2-1.97,7.17,0.01l22.07,22.14c5.09,5.11,12.68,6.62,19.39,3.85c4.33-1.79,7.7-5.18,9.52-9.56
			c2.31-5.57,1.71-11.63-1.64-16.63c-3.34-5-8.71-7.86-14.72-7.86c-0.01,0-0.03,0-0.04,0l-31.29,0.06c-0.01,0-0.01,0-0.01,0
			c-2.79,0-5.06-2.26-5.07-5.06c-0.01-2.8,2.26-5.07,5.06-5.08l31.29-0.06c0.02,0,0.04,0,0.07,0c9.45,0,17.88,4.5,23.13,12.36
			c5.27,7.86,6.21,17.39,2.58,26.15c-2.85,6.88-8.18,12.23-15,15.05C1297.75,700.48,1294.09,701.19,1290.48,701.19z"/>
		<path fill="#FED18C" d="M1247.29,744.36c-5.38,0-10.69-1.6-15.4-4.75c-7.87-5.28-12.38-13.74-12.36-23.21v-51.02
			c0-2.8,2.27-5.07,5.07-5.07s5.07,2.27,5.07,5.07v51.03c-0.01,6.03,2.85,11.42,7.86,14.77c5,3.34,11.07,3.95,16.63,1.64
			c5.56-2.3,9.43-7.01,10.59-12.93c1.17-5.91-0.61-11.74-4.88-15.99l-22.14-22.06c-1.98-1.98-1.99-5.18-0.02-7.17
			c1.98-1.99,5.2-1.99,7.17-0.02l22.14,22.06c6.71,6.69,9.5,15.86,7.67,25.15c-1.84,9.29-7.92,16.69-16.67,20.32
			C1254.53,743.64,1250.9,744.36,1247.29,744.36z"/>
		<path fill="#FED18C" d="M1186.42,744.33c-3.61,0-7.23-0.71-10.69-2.14c-8.75-3.63-14.83-11.04-16.67-20.32
			c-1.84-9.29,0.95-18.46,7.66-25.14l22.28-22.2c1.98-1.98,5.19-1.97,7.17,0.02c1.97,1.98,1.97,5.19-0.02,7.17l-22.28,22.2
			c-4.26,4.25-6.04,10.07-4.86,15.98c1.17,5.91,5.03,10.62,10.6,12.93c4.37,1.81,9.17,1.81,13.49,0.03
			c6.69-2.78,11.01-9.23,11-16.43l-0.07-51.07c-0.01-2.8,2.26-5.07,5.06-5.07h0.01c2.8,0,5.06,2.26,5.07,5.06l0.07,51.07
			c0.02,11.32-6.75,21.45-17.25,25.81C1193.59,743.63,1190.01,744.33,1186.42,744.33z"/>
		<path fill="#FED18C" d="M1209.14,625.39C1209.14,625.39,1209.14,625.39,1209.14,625.39c-2.8,0-5.07-2.28-5.07-5.07l0.04-51.07
			c0.01-6.03-2.86-11.41-7.86-14.77c-5-3.34-11.07-3.95-16.63-1.64c-5.56,2.3-9.43,7.01-10.59,12.93
			c-1.17,5.91,0.61,11.75,4.87,15.99l22.5,22.42c1.98,1.98,1.98,5.19,0.01,7.17c-1.98,1.99-5.18,1.99-7.17,0.02l-22.5-22.42
			c-6.71-6.68-9.5-15.85-7.66-25.15c1.84-9.29,7.92-16.69,16.67-20.32c8.75-3.63,18.28-2.67,26.15,2.58
			c7.87,5.28,12.37,13.74,12.36,23.2l-0.04,51.07C1214.21,623.13,1211.94,625.39,1209.14,625.39z"/>
		<path fill="#FED18C" d="M1224.6,625.37c-2.8,0-5.07-2.27-5.07-5.07v-51.06c-0.02-11.32,6.75-21.45,17.26-25.8
			c6.82-2.84,14.37-2.82,21.26,0.03c8.75,3.63,14.83,11.03,16.67,20.32c1.83,9.29-0.95,18.45-7.66,25.14l-22.37,22.29
			c-1.98,1.97-5.19,1.98-7.17-0.02c-1.97-1.98-1.97-5.19,0.02-7.17l22.36-22.28c4.26-4.25,6.04-10.08,4.86-15.99
			c-1.17-5.91-5.03-10.62-10.59-12.93c-4.39-1.82-9.18-1.83-13.49-0.03c-6.7,2.77-11.01,9.22-11,16.42v51.07
			C1229.67,623.1,1227.4,625.37,1224.6,625.37z"/>
	</g>
	<g>
		<path fill="#FED18C" d="M1139.69,967.18c-10.94,0-21.34-6.49-25.79-17.22c-2.91-7.02-2.86-14.72,0.13-21.65
			c2.88-6.64,8.31-12.02,14.91-14.76c3.37-1.4,6.96-2.1,10.68-2.1c0.02,0,0.03,0,0.06,0l31.64,0.06c2.8,0.01,5.06,2.28,5.06,5.08
			c-0.01,2.79-2.28,5.06-5.07,5.06c-0.01,0-0.01,0-0.01,0l-31.64-0.06c-0.01,0-0.02,0-0.03,0c-2.38,0-4.67,0.45-6.79,1.33
			c-4.2,1.74-7.66,5.17-9.49,9.42c-1.9,4.39-1.93,9.28-0.08,13.75c3.75,9.05,14.14,13.33,23.15,9.62c2.14-0.89,4.08-2.2,5.77-3.9
			l22.26-22.34c1.98-1.99,5.2-1.99,7.17-0.02c1.98,1.98,1.99,5.18,0.02,7.17l-22.26,22.35c-2.64,2.65-5.69,4.7-9.07,6.1
			C1146.83,966.5,1143.23,967.18,1139.69,967.18z"/>
		<path fill="#FED18C" d="M1286.92,906.2c-0.09,0-0.18,0-0.26,0l-31.37-0.26c-2.8-0.02-5.05-2.31-5.02-5.11
			c0.02-2.78,2.29-5.02,5.07-5.02c0.01,0,0.03,0,0.04,0l31.37,0.26c0.06,0,0.11,0,0.17,0c2.34,0,4.58-0.43,6.67-1.28
			c4.37-1.78,7.79-5.16,9.63-9.53c1.83-4.37,1.87-9.19,0.09-13.57c-1.79-4.39-5.17-7.82-9.54-9.67c-4.36-1.85-9.17-1.87-13.54-0.11
			c-2.14,0.88-4.1,2.18-5.8,3.86l-22.37,22.15c-1.99,1.96-5.2,1.95-7.17-0.04s-1.96-5.2,0.04-7.17l22.37-22.15
			c2.66-2.63,5.72-4.66,9.11-6.04c6.89-2.8,14.46-2.74,21.32,0.17c6.85,2.9,12.18,8.29,14.97,15.18c2.8,6.89,2.75,14.46-0.13,21.32
			c-2.89,6.86-8.28,12.19-15.16,14.98C1294.1,905.52,1290.57,906.2,1286.92,906.2z"/>
		<path fill="#FED18C" d="M1139.62,906.16c-9.44,0-17.87-4.5-23.13-12.36c-5.27-7.86-6.21-17.4-2.59-26.15
			c2.85-6.88,8.18-12.23,15.01-15.05c10.51-4.35,22.47-1.97,30.46,6.05l22.42,22.49c1.97,1.98,1.97,5.2-0.01,7.17
			c-1.98,1.98-5.19,1.97-7.17-0.01l-22.42-22.5c-5.09-5.11-12.71-6.61-19.39-3.84c-4.32,1.79-7.71,5.19-9.52,9.56
			c-2.3,5.57-1.7,11.63,1.65,16.63c3.34,5,8.71,7.86,14.71,7.86c0.01,0,0.03,0,0.04,0l31.7-0.06c0.01,0,0.01,0,0.01,0
			c2.79,0,5.06,2.26,5.07,5.06c0.01,2.8-2.26,5.07-5.06,5.08l-31.7,0.06C1139.66,906.16,1139.64,906.16,1139.62,906.16z"/>
		<path fill="#FED18C" d="M1205.47,936.39c-0.55,0-1.11-0.09-1.66-0.28c-11.63-4.02-19.44-14.99-19.44-27.29
			c0-12.31,7.82-23.29,19.47-27.31c2.63-0.91,5.53,0.49,6.45,3.14c0.91,2.64-0.49,5.53-3.14,6.45c-7.56,2.61-12.64,9.74-12.64,17.72
			c0,7.98,5.07,15.1,12.62,17.72c2.64,0.91,4.04,3.8,3.12,6.45C1209.54,935.07,1207.57,936.39,1205.47,936.39z"/>
		<path fill="#FED18C" d="M1220.97,936.42c-2.1,0-4.07-1.32-4.79-3.42c-0.91-2.65,0.5-5.53,3.15-6.44
			c7.59-2.61,12.69-9.74,12.69-17.75c0-8.01-5.1-15.14-12.69-17.75c-2.64-0.91-4.05-3.79-3.15-6.44c0.91-2.64,3.8-4.06,6.44-3.15
			c11.68,4.01,19.53,14.99,19.53,27.33s-7.85,23.33-19.53,27.33C1222.07,936.34,1221.51,936.42,1220.97,936.42z"/>
		<path fill="#FED18C" d="M1286.85,967.16c-7.26,0-14.36-2.84-19.7-8.21l-22.07-22.14c-1.97-1.98-1.97-5.2,0.01-7.17
			c1.99-1.98,5.2-1.97,7.17,0.01l22.07,22.14c5.09,5.11,12.68,6.62,19.39,3.85c4.33-1.79,7.7-5.18,9.52-9.56
			c2.31-5.57,1.71-11.63-1.64-16.63c-3.34-5-8.71-7.86-14.72-7.86c-0.01,0-0.03,0-0.04,0l-31.29,0.06c-0.01,0-0.01,0-0.01,0
			c-2.79,0-5.06-2.26-5.07-5.06c-0.01-2.8,2.26-5.07,5.06-5.08l31.29-0.06c0.02,0,0.04,0,0.07,0c9.45,0,17.88,4.5,23.13,12.36
			c5.27,7.86,6.21,17.39,2.58,26.15c-2.85,6.88-8.18,12.23-15,15.05C1294.11,966.46,1290.46,967.16,1286.85,967.16z"/>
		<path fill="#DD553E" d="M1243.66,1010.33c-5.38,0-10.69-1.6-15.4-4.75c-7.87-5.28-12.38-13.74-12.36-23.21v-51.02
			c0-2.8,2.27-5.07,5.07-5.07c2.8,0,5.07,2.27,5.07,5.07v51.03c-0.01,6.03,2.85,11.42,7.86,14.77c5,3.34,11.07,3.95,16.63,1.64
			c5.56-2.3,9.43-7.01,10.59-12.93c1.17-5.91-0.61-11.74-4.88-15.99l-22.14-22.06c-1.98-1.98-1.99-5.18-0.02-7.17
			c1.98-1.99,5.2-1.99,7.17-0.02l22.14,22.06c6.71,6.69,9.5,15.86,7.67,25.15c-1.84,9.29-7.92,16.69-16.67,20.32
			C1250.9,1009.61,1247.26,1010.33,1243.66,1010.33z"/>
		<path fill="#FED18C" d="M1182.79,1010.3c-3.61,0-7.23-0.71-10.69-2.14c-8.75-3.63-14.83-11.04-16.67-20.32
			c-1.84-9.29,0.95-18.46,7.66-25.14l22.28-22.2c1.98-1.98,5.19-1.97,7.17,0.02c1.97,1.98,1.97,5.19-0.02,7.17l-22.28,22.2
			c-4.26,4.25-6.04,10.07-4.86,15.98c1.17,5.91,5.03,10.62,10.6,12.93c4.37,1.81,9.17,1.81,13.49,0.03
			c6.69-2.78,11.01-9.23,11-16.43l-0.07-51.07c-0.01-2.8,2.26-5.07,5.06-5.07h0.01c2.8,0,5.06,2.26,5.07,5.06l0.07,51.07
			c0.02,11.32-6.75,21.45-17.25,25.81C1189.96,1009.6,1186.38,1010.3,1182.79,1010.3z"/>
		<path fill="#FED18C" d="M1205.51,891.37C1205.51,891.37,1205.51,891.37,1205.51,891.37c-2.8,0-5.07-2.28-5.07-5.07l0.04-51.07
			c0.01-6.03-2.86-11.41-7.86-14.77c-5-3.34-11.07-3.95-16.63-1.64c-5.56,2.3-9.43,7.01-10.59,12.93
			c-1.17,5.91,0.61,11.75,4.87,15.99l22.5,22.42c1.98,1.98,1.98,5.19,0.01,7.17c-1.98,1.99-5.18,1.99-7.17,0.02l-22.5-22.42
			c-6.71-6.68-9.5-15.85-7.66-25.15c1.84-9.29,7.92-16.69,16.67-20.32c8.75-3.63,18.28-2.67,26.15,2.58
			c7.87,5.28,12.37,13.74,12.36,23.2l-0.04,51.07C1210.58,889.1,1208.31,891.37,1205.51,891.37z"/>
		<path fill="#FED18C" d="M1220.97,891.35c-2.8,0-5.07-2.27-5.07-5.07v-51.06c-0.02-11.32,6.75-21.45,17.26-25.8
			c6.82-2.84,14.37-2.82,21.26,0.03c8.75,3.63,14.83,11.03,16.67,20.32c1.83,9.29-0.95,18.45-7.66,25.14l-22.37,22.29
			c-1.98,1.97-5.19,1.98-7.17-0.02c-1.97-1.98-1.97-5.19,0.02-7.17l22.36-22.28c4.26-4.25,6.04-10.08,4.86-15.99
			c-1.17-5.91-5.03-10.62-10.59-12.93c-4.39-1.82-9.18-1.83-13.49-0.03c-6.7,2.77-11.01,9.22-11,16.42v51.07
			C1226.04,889.08,1223.77,891.35,1220.97,891.35z"/>
	</g>
	<g>
		<path fill="#FED18C" d="M1393.54,967.18c-10.94,0-21.34-6.49-25.79-17.22c-2.91-7.02-2.86-14.72,0.13-21.65
			c2.88-6.64,8.31-12.02,14.91-14.76c3.37-1.4,6.96-2.1,10.68-2.1c0.02,0,0.03,0,0.06,0l31.64,0.06c2.8,0.01,5.06,2.28,5.06,5.08
			c-0.01,2.79-2.28,5.06-5.07,5.06c-0.01,0-0.01,0-0.01,0l-31.64-0.06c-0.01,0-0.02,0-0.03,0c-2.38,0-4.67,0.45-6.79,1.33
			c-4.2,1.74-7.66,5.17-9.49,9.42c-1.9,4.39-1.93,9.28-0.08,13.75c3.75,9.05,14.14,13.33,23.15,9.62c2.14-0.89,4.08-2.2,5.77-3.9
			l22.26-22.34c1.98-1.99,5.2-1.99,7.17-0.02c1.98,1.98,1.99,5.18,0.02,7.17l-22.26,22.35c-2.64,2.65-5.69,4.7-9.07,6.1
			C1400.68,966.5,1397.08,967.18,1393.54,967.18z"/>
		<path fill="#FED18C" d="M1540.77,906.2c-0.09,0-0.18,0-0.26,0l-31.37-0.26c-2.8-0.02-5.05-2.31-5.02-5.11
			c0.02-2.78,2.29-5.02,5.07-5.02c0.01,0,0.03,0,0.04,0l31.37,0.26c0.06,0,0.11,0,0.17,0c2.34,0,4.58-0.43,6.67-1.28
			c4.37-1.78,7.79-5.16,9.63-9.53c1.83-4.37,1.87-9.19,0.09-13.57c-1.79-4.39-5.17-7.82-9.54-9.67c-4.36-1.85-9.17-1.87-13.54-0.11
			c-2.14,0.88-4.1,2.18-5.8,3.86l-22.37,22.15c-1.99,1.96-5.2,1.95-7.17-0.04s-1.96-5.2,0.04-7.17l22.37-22.15
			c2.66-2.63,5.72-4.66,9.11-6.04c6.89-2.8,14.46-2.74,21.32,0.17c6.85,2.9,12.18,8.29,14.97,15.18c2.8,6.89,2.75,14.46-0.13,21.32
			c-2.89,6.86-8.28,12.19-15.16,14.98C1547.95,905.52,1544.42,906.2,1540.77,906.2z"/>
		<path fill="#FED18C" d="M1393.47,906.16c-9.44,0-17.87-4.5-23.13-12.36c-5.27-7.86-6.21-17.4-2.59-26.15
			c2.85-6.88,8.18-12.23,15.01-15.05c10.51-4.35,22.47-1.97,30.46,6.05l22.42,22.49c1.97,1.98,1.97,5.2-0.01,7.17
			c-1.98,1.98-5.19,1.97-7.17-0.01l-22.42-22.5c-5.09-5.11-12.71-6.61-19.39-3.84c-4.32,1.79-7.71,5.19-9.52,9.56
			c-2.3,5.57-1.7,11.63,1.65,16.63c3.34,5,8.71,7.86,14.71,7.86c0.01,0,0.03,0,0.04,0l31.7-0.06c0.01,0,0.01,0,0.01,0
			c2.79,0,5.06,2.26,5.07,5.06c0.01,2.8-2.26,5.07-5.06,5.08l-31.7,0.06C1393.51,906.16,1393.49,906.16,1393.47,906.16z"/>
		<path fill="#FED18C" d="M1459.33,936.39c-0.55,0-1.11-0.09-1.66-0.28c-11.63-4.02-19.44-14.99-19.44-27.29
			c0-12.31,7.82-23.29,19.47-27.31c2.63-0.91,5.53,0.49,6.45,3.14c0.91,2.64-0.49,5.53-3.14,6.45c-7.56,2.61-12.64,9.74-12.64,17.72
			c0,7.98,5.07,15.1,12.62,17.72c2.64,0.91,4.04,3.8,3.12,6.45C1463.39,935.07,1461.43,936.39,1459.33,936.39z"/>
		<path fill="#FED18C" d="M1474.82,936.42c-2.1,0-4.07-1.32-4.79-3.42c-0.91-2.65,0.5-5.53,3.15-6.44
			c7.59-2.61,12.69-9.74,12.69-17.75c0-8.01-5.1-15.14-12.69-17.75c-2.64-0.91-4.05-3.79-3.15-6.44c0.91-2.64,3.8-4.06,6.44-3.15
			c11.68,4.01,19.53,14.99,19.53,27.33s-7.85,23.33-19.53,27.33C1475.92,936.34,1475.36,936.42,1474.82,936.42z"/>
		<path fill="#FED18C" d="M1540.7,967.16c-7.26,0-14.36-2.84-19.7-8.21l-22.07-22.14c-1.97-1.98-1.97-5.2,0.01-7.17
			c1.99-1.98,5.2-1.97,7.17,0.01l22.07,22.14c5.09,5.11,12.68,6.62,19.39,3.85c4.33-1.79,7.7-5.18,9.52-9.56
			c2.31-5.57,1.71-11.63-1.64-16.63c-3.34-5-8.71-7.86-14.72-7.86c-0.01,0-0.03,0-0.04,0l-31.29,0.06c-0.01,0-0.01,0-0.01,0
			c-2.79,0-5.06-2.26-5.07-5.06c-0.01-2.8,2.26-5.07,5.06-5.08l31.29-0.06c0.02,0,0.04,0,0.07,0c9.45,0,17.88,4.5,23.13,12.36
			c5.27,7.86,6.21,17.39,2.58,26.15c-2.85,6.88-8.18,12.23-15,15.05C1547.96,966.46,1544.31,967.16,1540.7,967.16z"/>
		<path fill="#FED18C" d="M1497.51,1010.33c-5.38,0-10.69-1.6-15.4-4.75c-7.87-5.28-12.38-13.74-12.36-23.21v-51.02
			c0-2.8,2.27-5.07,5.07-5.07c2.8,0,5.07,2.27,5.07,5.07v51.03c-0.01,6.03,2.85,11.42,7.86,14.77c5,3.34,11.07,3.95,16.63,1.64
			c5.56-2.3,9.43-7.01,10.59-12.93c1.17-5.91-0.61-11.74-4.88-15.99l-22.14-22.06c-1.98-1.98-1.99-5.18-0.02-7.17
			c1.98-1.99,5.2-1.99,7.17-0.02l22.14,22.06c6.71,6.69,9.5,15.86,7.67,25.15c-1.84,9.29-7.92,16.69-16.67,20.32
			C1504.75,1009.61,1501.12,1010.33,1497.51,1010.33z"/>
		<path fill="#DD553E" d="M1436.64,1010.3c-3.61,0-7.23-0.71-10.69-2.14c-8.75-3.63-14.83-11.04-16.67-20.32
			c-1.84-9.29,0.95-18.46,7.66-25.14l22.28-22.2c1.98-1.98,5.19-1.97,7.17,0.02c1.97,1.98,1.97,5.19-0.02,7.17l-22.28,22.2
			c-4.26,4.25-6.04,10.07-4.86,15.98c1.17,5.91,5.03,10.62,10.6,12.93c4.37,1.81,9.17,1.81,13.49,0.03
			c6.69-2.78,11.01-9.23,11-16.43l-0.07-51.07c-0.01-2.8,2.26-5.07,5.06-5.07h0.01c2.8,0,5.06,2.26,5.07,5.06l0.07,51.07
			c0.02,11.32-6.75,21.45-17.25,25.81C1443.81,1009.6,1440.23,1010.3,1436.64,1010.3z"/>
		<path fill="#FED18C" d="M1459.36,891.37C1459.36,891.37,1459.36,891.37,1459.36,891.37c-2.8,0-5.07-2.28-5.07-5.07l0.04-51.07
			c0.01-6.03-2.86-11.41-7.86-14.77c-5-3.34-11.07-3.95-16.63-1.64c-5.56,2.3-9.43,7.01-10.59,12.93
			c-1.17,5.91,0.61,11.75,4.87,15.99l22.5,22.42c1.98,1.98,1.98,5.19,0.01,7.17c-1.98,1.99-5.18,1.99-7.17,0.02l-22.5-22.42
			c-6.71-6.68-9.5-15.85-7.66-25.15c1.84-9.29,7.92-16.69,16.67-20.32c8.75-3.63,18.28-2.67,26.15,2.58
			c7.87,5.28,12.37,13.74,12.36,23.2l-0.04,51.07C1464.43,889.1,1462.16,891.37,1459.36,891.37z"/>
		<path fill="#FED18C" d="M1474.82,891.35c-2.8,0-5.07-2.27-5.07-5.07v-51.06c-0.02-11.32,6.75-21.45,17.26-25.8
			c6.82-2.84,14.37-2.82,21.26,0.03c8.75,3.63,14.83,11.03,16.67,20.32c1.83,9.29-0.95,18.45-7.66,25.14l-22.37,22.29
			c-1.98,1.97-5.19,1.98-7.17-0.02c-1.97-1.98-1.97-5.19,0.02-7.17l22.36-22.28c4.26-4.25,6.04-10.08,4.86-15.99
			c-1.17-5.91-5.03-10.62-10.59-12.93c-4.39-1.82-9.18-1.83-13.49-0.03c-6.7,2.77-11.01,9.22-11,16.42v51.07
			C1479.89,889.08,1477.62,891.35,1474.82,891.35z"/>
	</g>
	<g>
		<path fill="#DD553E" d="M1653.05,967.18c-10.94,0-21.34-6.49-25.79-17.22c-2.91-7.02-2.86-14.72,0.13-21.65
			c2.88-6.64,8.31-12.02,14.91-14.76c3.37-1.4,6.96-2.1,10.68-2.1c0.02,0,0.03,0,0.06,0l31.64,0.06c2.8,0.01,5.06,2.28,5.06,5.08
			c-0.01,2.79-2.28,5.06-5.07,5.06c-0.01,0-0.01,0-0.01,0l-31.64-0.06c-0.01,0-0.02,0-0.03,0c-2.38,0-4.67,0.45-6.79,1.33
			c-4.2,1.74-7.66,5.17-9.49,9.42c-1.9,4.39-1.93,9.28-0.08,13.75c3.75,9.05,14.14,13.33,23.15,9.62c2.14-0.89,4.08-2.2,5.77-3.9
			l22.26-22.34c1.98-1.99,5.2-1.99,7.17-0.02c1.98,1.98,1.99,5.18,0.02,7.17l-22.26,22.35c-2.64,2.65-5.69,4.7-9.07,6.1
			C1660.19,966.5,1656.59,967.18,1653.05,967.18z"/>
		<path fill="#FED18C" d="M1800.29,906.2c-0.09,0-0.18,0-0.26,0l-31.37-0.26c-2.8-0.02-5.05-2.31-5.02-5.11
			c0.02-2.78,2.29-5.02,5.07-5.02c0.01,0,0.03,0,0.04,0l31.37,0.26c0.06,0,0.11,0,0.17,0c2.34,0,4.58-0.43,6.67-1.28
			c4.37-1.78,7.79-5.16,9.63-9.53c1.83-4.37,1.87-9.19,0.09-13.57c-1.79-4.39-5.17-7.82-9.54-9.67c-4.36-1.85-9.17-1.87-13.54-0.11
			c-2.14,0.88-4.1,2.18-5.8,3.86l-22.37,22.15c-1.99,1.96-5.2,1.95-7.17-0.04s-1.96-5.2,0.04-7.17l22.37-22.15
			c2.66-2.63,5.72-4.66,9.11-6.04c6.89-2.8,14.46-2.74,21.32,0.17c6.85,2.9,12.18,8.29,14.97,15.18c2.8,6.89,2.75,14.46-0.13,21.32
			c-2.89,6.86-8.28,12.19-15.16,14.98C1807.46,905.52,1803.93,906.2,1800.29,906.2z"/>
		<path fill="#FED18C" d="M1652.98,906.16c-9.44,0-17.87-4.5-23.13-12.36c-5.27-7.86-6.21-17.4-2.59-26.15
			c2.85-6.88,8.18-12.23,15.01-15.05c10.51-4.35,22.47-1.97,30.46,6.05l22.42,22.49c1.97,1.98,1.97,5.2-0.01,7.17
			c-1.98,1.98-5.19,1.97-7.17-0.01l-22.42-22.5c-5.09-5.11-12.71-6.61-19.39-3.84c-4.33,1.79-7.71,5.19-9.52,9.56
			c-2.3,5.57-1.7,11.63,1.65,16.63c3.34,5,8.71,7.86,14.71,7.86c0.01,0,0.03,0,0.04,0l31.7-0.06c0.01,0,0.01,0,0.01,0
			c2.79,0,5.06,2.26,5.07,5.06c0.01,2.8-2.26,5.07-5.06,5.08l-31.7,0.06C1653.03,906.16,1653,906.16,1652.98,906.16z"/>
		<path fill="#FED18C" d="M1718.84,936.39c-0.55,0-1.11-0.09-1.66-0.28c-11.63-4.02-19.44-14.99-19.44-27.29
			c0-12.31,7.82-23.29,19.47-27.31c2.63-0.91,5.53,0.49,6.45,3.14c0.91,2.64-0.49,5.53-3.14,6.45c-7.56,2.61-12.64,9.74-12.64,17.72
			c0,7.98,5.07,15.1,12.62,17.72c2.64,0.91,4.04,3.8,3.12,6.45C1722.9,935.07,1720.94,936.39,1718.84,936.39z"/>
		<path fill="#FED18C" d="M1734.33,936.42c-2.1,0-4.07-1.32-4.79-3.42c-0.91-2.65,0.5-5.53,3.15-6.44
			c7.59-2.61,12.69-9.74,12.69-17.75c0-8.01-5.1-15.14-12.69-17.75c-2.64-0.91-4.06-3.79-3.15-6.44c0.91-2.64,3.8-4.06,6.44-3.15
			c11.68,4.01,19.53,14.99,19.53,27.33s-7.85,23.33-19.53,27.33C1735.43,936.34,1734.88,936.42,1734.33,936.42z"/>
		<path fill="#FED18C" d="M1800.21,967.16c-7.26,0-14.36-2.84-19.7-8.21l-22.07-22.14c-1.97-1.98-1.97-5.2,0.01-7.17
			c1.99-1.98,5.2-1.97,7.17,0.01l22.07,22.14c5.09,5.11,12.68,6.62,19.39,3.85c4.32-1.79,7.7-5.18,9.52-9.56
			c2.31-5.57,1.71-11.63-1.64-16.63c-3.34-5-8.71-7.86-14.72-7.86c-0.01,0-0.03,0-0.04,0l-31.29,0.06c-0.01,0-0.01,0-0.01,0
			c-2.79,0-5.06-2.26-5.07-5.06c-0.01-2.8,2.26-5.07,5.06-5.08l31.29-0.06c0.02,0,0.04,0,0.07,0c9.45,0,17.88,4.5,23.13,12.36
			c5.27,7.86,6.21,17.39,2.58,26.15c-2.85,6.88-8.18,12.23-15,15.05C1807.48,966.46,1803.82,967.16,1800.21,967.16z"/>
		<path fill="#FED18C" d="M1757.02,1010.33c-5.38,0-10.69-1.6-15.4-4.75c-7.87-5.28-12.38-13.74-12.36-23.21v-51.02
			c0-2.8,2.27-5.07,5.07-5.07s5.07,2.27,5.07,5.07v51.03c-0.01,6.03,2.85,11.42,7.86,14.77c5,3.34,11.07,3.95,16.63,1.64
			c5.56-2.3,9.43-7.01,10.59-12.93c1.17-5.91-0.61-11.74-4.88-15.99l-22.14-22.06c-1.98-1.98-1.99-5.18-0.02-7.17
			c1.98-1.99,5.2-1.99,7.17-0.02l22.14,22.06c6.71,6.69,9.5,15.86,7.67,25.15c-1.84,9.29-7.92,16.69-16.67,20.32
			C1764.26,1009.61,1760.63,1010.33,1757.02,1010.33z"/>
		<path fill="#FED18C" d="M1696.15,1010.3c-3.61,0-7.23-0.71-10.69-2.14c-8.75-3.63-14.83-11.04-16.67-20.32
			c-1.84-9.29,0.95-18.46,7.66-25.14l22.28-22.2c1.98-1.98,5.19-1.97,7.17,0.02c1.97,1.98,1.97,5.19-0.02,7.17l-22.28,22.2
			c-4.26,4.25-6.04,10.07-4.86,15.98c1.17,5.91,5.03,10.62,10.6,12.93c4.37,1.81,9.17,1.81,13.49,0.03
			c6.69-2.78,11.01-9.23,11-16.43l-0.07-51.07c-0.01-2.8,2.26-5.07,5.06-5.07h0.01c2.8,0,5.06,2.26,5.07,5.06l0.07,51.07
			c0.02,11.32-6.75,21.45-17.25,25.81C1703.32,1009.6,1699.74,1010.3,1696.15,1010.3z"/>
		<path fill="#FED18C" d="M1718.87,891.37C1718.87,891.37,1718.87,891.37,1718.87,891.37c-2.8,0-5.07-2.28-5.07-5.07l0.04-51.07
			c0.01-6.03-2.86-11.41-7.86-14.77c-5-3.34-11.07-3.95-16.63-1.64c-5.56,2.3-9.43,7.01-10.59,12.93
			c-1.17,5.91,0.61,11.75,4.87,15.99l22.5,22.42c1.98,1.98,1.98,5.19,0.01,7.17c-1.98,1.99-5.18,1.99-7.17,0.02l-22.5-22.42
			c-6.71-6.68-9.5-15.85-7.66-25.15c1.84-9.29,7.92-16.69,16.67-20.32c8.75-3.63,18.28-2.67,26.15,2.58
			c7.87,5.28,12.37,13.74,12.36,23.2l-0.04,51.07C1723.94,889.1,1721.67,891.37,1718.87,891.37z"/>
		<path fill="#FED18C" d="M1734.33,891.35c-2.8,0-5.07-2.27-5.07-5.07v-51.06c-0.02-11.32,6.75-21.45,17.26-25.8
			c6.82-2.84,14.37-2.82,21.26,0.03c8.75,3.63,14.83,11.03,16.67,20.32c1.83,9.29-0.95,18.45-7.66,25.14l-22.37,22.29
			c-1.98,1.97-5.19,1.98-7.17-0.02c-1.97-1.98-1.97-5.19,0.02-7.17l22.36-22.28c4.26-4.25,6.04-10.08,4.86-15.99
			c-1.17-5.91-5.03-10.62-10.59-12.93c-4.39-1.82-9.18-1.83-13.49-0.03c-6.7,2.77-11.01,9.22-11,16.42v51.07
			C1739.4,889.08,1737.13,891.35,1734.33,891.35z"/>
	</g>
	<g>
		<path fill="#FED18C" d="M1657.91,698.38c-10.94,0-21.34-6.49-25.79-17.22c-2.91-7.02-2.86-14.72,0.13-21.65
			c2.88-6.64,8.31-12.02,14.91-14.76c3.37-1.4,6.96-2.1,10.68-2.1c0.02,0,0.03,0,0.06,0l31.64,0.06c2.8,0.01,5.06,2.28,5.06,5.08
			c-0.01,2.79-2.28,5.06-5.07,5.06c-0.01,0-0.01,0-0.01,0l-31.64-0.06c-0.01,0-0.02,0-0.03,0c-2.38,0-4.67,0.45-6.79,1.33
			c-4.2,1.74-7.66,5.17-9.49,9.42c-1.9,4.39-1.93,9.28-0.08,13.75c3.75,9.05,14.14,13.33,23.15,9.62c2.14-0.89,4.08-2.2,5.77-3.9
			l22.26-22.34c1.98-1.99,5.2-1.99,7.17-0.02c1.98,1.98,1.99,5.18,0.02,7.17l-22.26,22.35c-2.64,2.65-5.69,4.7-9.07,6.1
			C1665.04,697.69,1661.45,698.38,1657.91,698.38z"/>
		<path fill="#FED18C" d="M1805.14,637.4c-0.09,0-0.18,0-0.26,0l-31.37-0.26c-2.8-0.02-5.05-2.31-5.02-5.11
			c0.02-2.78,2.29-5.02,5.07-5.02c0.01,0,0.03,0,0.04,0l31.37,0.26c0.06,0,0.11,0,0.17,0c2.34,0,4.58-0.43,6.67-1.28
			c4.37-1.78,7.79-5.16,9.63-9.53c1.83-4.37,1.87-9.19,0.09-13.57c-1.79-4.39-5.17-7.82-9.54-9.67c-4.36-1.85-9.17-1.87-13.54-0.11
			c-2.14,0.88-4.1,2.18-5.8,3.86l-22.37,22.15c-1.99,1.96-5.2,1.95-7.17-0.04s-1.96-5.2,0.04-7.17l22.37-22.15
			c2.66-2.63,5.72-4.66,9.11-6.04c6.89-2.8,14.46-2.74,21.32,0.17c6.85,2.9,12.18,8.29,14.97,15.18c2.8,6.89,2.75,14.46-0.13,21.32
			c-2.89,6.86-8.28,12.19-15.16,14.98C1812.32,636.72,1808.79,637.4,1805.14,637.4z"/>
		<path fill="#DD553E" d="M1657.84,637.36c-9.44,0-17.87-4.5-23.13-12.36c-5.27-7.86-6.21-17.4-2.59-26.15
			c2.85-6.88,8.18-12.23,15.01-15.05c10.51-4.35,22.47-1.97,30.46,6.06l22.42,22.49c1.97,1.98,1.97,5.2-0.01,7.17
			c-1.98,1.98-5.19,1.97-7.17-0.01L1670.4,597c-5.09-5.11-12.71-6.61-19.39-3.84c-4.32,1.79-7.71,5.19-9.52,9.56
			c-2.3,5.57-1.7,11.63,1.65,16.63c3.34,5,8.71,7.86,14.71,7.86c0.01,0,0.03,0,0.04,0l31.7-0.06c0.01,0,0.01,0,0.01,0
			c2.79,0,5.06,2.26,5.07,5.06c0.01,2.8-2.26,5.07-5.06,5.08l-31.7,0.06C1657.88,637.36,1657.86,637.36,1657.84,637.36z"/>
		<path fill="#FED18C" d="M1723.69,667.58c-0.55,0-1.11-0.09-1.66-0.28c-11.63-4.02-19.44-14.99-19.44-27.29
			c0-12.31,7.82-23.29,19.47-27.31c2.63-0.91,5.53,0.49,6.45,3.14c0.91,2.64-0.49,5.53-3.14,6.45c-7.56,2.61-12.64,9.74-12.64,17.72
			c0,7.98,5.07,15.1,12.62,17.72c2.64,0.91,4.04,3.8,3.12,6.45C1727.76,666.27,1725.79,667.58,1723.69,667.58z"/>
		<path fill="#FED18C" d="M1739.19,667.62c-2.1,0-4.07-1.32-4.79-3.42c-0.91-2.65,0.5-5.53,3.15-6.44
			c7.59-2.61,12.69-9.74,12.69-17.75c0-8.01-5.1-15.14-12.69-17.75c-2.64-0.91-4.06-3.79-3.15-6.44c0.91-2.64,3.8-4.06,6.44-3.15
			c11.68,4.01,19.53,14.99,19.53,27.33s-7.85,23.33-19.53,27.33C1740.29,667.53,1739.73,667.62,1739.19,667.62z"/>
		<path fill="#FED18C" d="M1805.07,698.36c-7.26,0-14.36-2.84-19.7-8.21l-22.07-22.14c-1.97-1.98-1.97-5.2,0.01-7.17
			c1.99-1.98,5.2-1.97,7.17,0.01l22.07,22.14c5.09,5.11,12.68,6.62,19.39,3.85c4.33-1.79,7.7-5.18,9.52-9.56
			c2.31-5.57,1.71-11.63-1.64-16.63c-3.34-5-8.71-7.86-14.72-7.86c-0.01,0-0.03,0-0.04,0l-31.29,0.06c-0.01,0-0.01,0-0.01,0
			c-2.79,0-5.06-2.26-5.07-5.06c-0.01-2.8,2.26-5.07,5.06-5.08l31.29-0.06c0.02,0,0.04,0,0.07,0c9.45,0,17.88,4.5,23.13,12.36
			c5.27,7.86,6.21,17.39,2.58,26.15c-2.85,6.88-8.18,12.23-15,15.05C1812.33,697.65,1808.68,698.36,1805.07,698.36z"/>
		<path fill="#FED18C" d="M1761.88,741.53c-5.38,0-10.69-1.6-15.4-4.75c-7.87-5.28-12.38-13.74-12.36-23.21v-51.02
			c0-2.8,2.27-5.07,5.07-5.07s5.07,2.27,5.07,5.07v51.03c-0.01,6.03,2.85,11.42,7.86,14.77c5,3.34,11.07,3.95,16.63,1.64
			c5.56-2.3,9.43-7.01,10.59-12.93c1.17-5.91-0.61-11.74-4.88-15.99l-22.14-22.06c-1.98-1.98-1.99-5.18-0.02-7.17
			c1.98-1.99,5.2-1.99,7.17-0.02l22.14,22.06c6.71,6.69,9.5,15.86,7.67,25.15c-1.84,9.29-7.92,16.69-16.67,20.32
			C1769.12,740.81,1765.48,741.53,1761.88,741.53z"/>
		<path fill="#FED18C" d="M1701.01,741.5c-3.61,0-7.23-0.71-10.69-2.14c-8.75-3.63-14.83-11.04-16.67-20.32
			c-1.84-9.29,0.95-18.46,7.66-25.14l22.28-22.2c1.98-1.98,5.19-1.97,7.17,0.02c1.97,1.98,1.97,5.19-0.02,7.17l-22.28,22.2
			c-4.26,4.25-6.04,10.07-4.86,15.98c1.17,5.91,5.03,10.62,10.6,12.93c4.37,1.81,9.17,1.81,13.49,0.03
			c6.69-2.78,11.01-9.23,11-16.43l-0.07-51.07c-0.01-2.8,2.26-5.07,5.06-5.07h0.01c2.8,0,5.06,2.26,5.07,5.06l0.07,51.07
			c0.02,11.32-6.75,21.45-17.25,25.81C1708.18,740.8,1704.6,741.5,1701.01,741.5z"/>
		<path fill="#FED18C" d="M1723.73,622.56C1723.73,622.56,1723.73,622.56,1723.73,622.56c-2.8,0-5.07-2.28-5.07-5.07l0.04-51.07
			c0.01-6.03-2.86-11.41-7.86-14.77c-5-3.34-11.07-3.95-16.63-1.64c-5.56,2.3-9.43,7.01-10.59,12.93
			c-1.17,5.91,0.61,11.75,4.87,15.99l22.5,22.42c1.98,1.98,1.98,5.19,0.01,7.17c-1.98,1.99-5.18,1.99-7.17,0.02l-22.5-22.42
			c-6.71-6.68-9.5-15.85-7.66-25.15c1.84-9.29,7.92-16.69,16.67-20.32c8.75-3.63,18.28-2.67,26.15,2.58
			c7.87,5.28,12.37,13.74,12.36,23.2l-0.04,51.07C1728.8,620.3,1726.53,622.56,1723.73,622.56z"/>
		<path fill="#FED18C" d="M1739.19,622.54c-2.8,0-5.07-2.27-5.07-5.07v-51.06c-0.02-11.32,6.75-21.45,17.26-25.8
			c6.82-2.84,14.37-2.82,21.26,0.03c8.75,3.63,14.83,11.03,16.67,20.32c1.83,9.29-0.95,18.45-7.66,25.14l-22.37,22.29
			c-1.98,1.97-5.19,1.98-7.17-0.02c-1.97-1.98-1.97-5.19,0.02-7.17l22.36-22.28c4.26-4.25,6.04-10.08,4.86-15.99
			c-1.17-5.91-5.03-10.62-10.59-12.93c-4.39-1.82-9.18-1.83-13.49-0.03c-6.7,2.77-11.01,9.22-11,16.42v51.07
			C1744.25,620.27,1741.98,622.54,1739.19,622.54z"/>
	</g>
	<g>
		<path fill="#FED18C" d="M1393.99,701.21c-10.94,0-21.34-6.49-25.79-17.22c-2.91-7.02-2.86-14.72,0.13-21.65
			c2.88-6.64,8.31-12.02,14.91-14.76c3.37-1.4,6.96-2.1,10.68-2.1c0.02,0,0.03,0,0.06,0l31.64,0.06c2.8,0.01,5.06,2.28,5.06,5.08
			c-0.01,2.79-2.28,5.06-5.07,5.06c-0.01,0-0.01,0-0.01,0l-31.64-0.06c-0.01,0-0.02,0-0.03,0c-2.38,0-4.67,0.45-6.79,1.33
			c-4.2,1.74-7.66,5.17-9.49,9.42c-1.9,4.39-1.93,9.28-0.08,13.75c3.75,9.05,14.14,13.33,23.15,9.62c2.14-0.89,4.08-2.2,5.77-3.9
			l22.26-22.34c1.98-1.99,5.2-1.99,7.17-0.02c1.98,1.98,1.99,5.18,0.02,7.17l-22.26,22.35c-2.64,2.65-5.69,4.7-9.07,6.1
			C1401.12,700.52,1397.52,701.21,1393.99,701.21z"/>
		<path fill="#FED18C" d="M1541.22,640.23c-0.09,0-0.18,0-0.26,0l-31.37-0.26c-2.8-0.02-5.05-2.31-5.02-5.11
			c0.02-2.78,2.29-5.02,5.07-5.02c0.01,0,0.03,0,0.04,0l31.37,0.26c0.06,0,0.11,0,0.17,0c2.34,0,4.58-0.43,6.67-1.28
			c4.37-1.78,7.79-5.16,9.63-9.53c1.83-4.37,1.87-9.19,0.09-13.57c-1.79-4.39-5.17-7.82-9.54-9.67c-4.36-1.85-9.17-1.87-13.54-0.11
			c-2.14,0.88-4.1,2.18-5.8,3.86l-22.37,22.15c-1.99,1.96-5.2,1.95-7.17-0.04s-1.96-5.2,0.04-7.17l22.37-22.15
			c2.66-2.63,5.72-4.66,9.11-6.04c6.89-2.8,14.46-2.74,21.32,0.17c6.85,2.9,12.18,8.29,14.97,15.18c2.8,6.89,2.75,14.46-0.13,21.32
			c-2.89,6.86-8.28,12.19-15.16,14.98C1548.4,639.55,1544.87,640.23,1541.22,640.23z"/>
		<path fill="#FED18C" d="M1393.91,640.19c-9.44,0-17.87-4.5-23.13-12.36c-5.27-7.86-6.21-17.4-2.59-26.15
			c2.85-6.88,8.18-12.23,15.01-15.05c10.51-4.35,22.47-1.97,30.46,6.05l22.42,22.49c1.97,1.98,1.97,5.2-0.01,7.17
			c-1.98,1.98-5.19,1.97-7.17-0.01l-22.42-22.5c-5.09-5.11-12.71-6.61-19.39-3.84c-4.32,1.79-7.71,5.19-9.52,9.56
			c-2.3,5.57-1.7,11.63,1.65,16.63c3.34,5,8.71,7.86,14.71,7.86c0.01,0,0.03,0,0.04,0l31.7-0.06c0.01,0,0.01,0,0.01,0
			c2.79,0,5.06,2.26,5.07,5.06c0.01,2.8-2.26,5.07-5.06,5.08l-31.7,0.06C1393.96,640.19,1393.94,640.19,1393.91,640.19z"/>
		<path fill="#FED18C" d="M1541.15,701.19c-7.26,0-14.36-2.84-19.7-8.21l-22.07-22.14c-1.97-1.98-1.97-5.2,0.01-7.17
			c1.99-1.98,5.2-1.97,7.17,0.01l22.07,22.14c5.09,5.11,12.68,6.62,19.39,3.85c4.33-1.79,7.7-5.18,9.52-9.56
			c2.31-5.57,1.71-11.63-1.64-16.63c-3.34-5-8.71-7.86-14.72-7.86c-0.01,0-0.03,0-0.04,0l-31.29,0.06c-0.01,0-0.01,0-0.01,0
			c-2.79,0-5.06-2.26-5.07-5.06c-0.01-2.8,2.26-5.07,5.06-5.08l31.29-0.06c0.02,0,0.04,0,0.07,0c9.45,0,17.88,4.5,23.13,12.36
			c5.27,7.86,6.21,17.39,2.58,26.15c-2.85,6.88-8.18,12.23-15,15.05C1548.41,700.48,1544.76,701.19,1541.15,701.19z"/>
		<path fill="#FED18C" d="M1497.96,744.36c-5.38,0-10.69-1.6-15.4-4.75c-7.87-5.28-12.38-13.74-12.36-23.21v-51.02
			c0-2.8,2.27-5.07,5.07-5.07s5.07,2.27,5.07,5.07v51.03c-0.01,6.03,2.85,11.42,7.86,14.77c5,3.34,11.07,3.95,16.63,1.64
			c5.56-2.3,9.43-7.01,10.59-12.93c1.17-5.91-0.61-11.74-4.88-15.99l-22.14-22.06c-1.98-1.98-1.99-5.18-0.02-7.17
			c1.98-1.99,5.2-1.99,7.17-0.02l22.14,22.06c6.71,6.69,9.5,15.86,7.67,25.15c-1.84,9.29-7.92,16.69-16.67,20.32
			C1505.2,743.64,1501.56,744.36,1497.96,744.36z"/>
		<path fill="#FED18C" d="M1437.09,744.33c-3.61,0-7.23-0.71-10.69-2.14c-8.75-3.63-14.83-11.04-16.67-20.32
			c-1.84-9.29,0.95-18.46,7.66-25.14l22.28-22.2c1.98-1.98,5.19-1.97,7.17,0.02c1.97,1.98,1.97,5.19-0.02,7.17l-22.28,22.2
			c-4.26,4.25-6.04,10.07-4.86,15.98c1.17,5.91,5.03,10.62,10.6,12.93c4.37,1.81,9.17,1.81,13.49,0.03
			c6.69-2.78,11.01-9.23,11-16.43l-0.07-51.07c-0.01-2.8,2.26-5.07,5.06-5.07h0.01c2.8,0,5.06,2.26,5.07,5.06l0.07,51.07
			c0.02,11.32-6.75,21.45-17.25,25.81C1444.26,743.63,1440.67,744.33,1437.09,744.33z"/>
		<path fill="#FED18C" d="M1459.8,625.39C1459.8,625.39,1459.8,625.39,1459.8,625.39c-2.8,0-5.07-2.28-5.07-5.07l0.04-51.07
			c0.01-6.03-2.86-11.41-7.86-14.77c-5-3.34-11.07-3.95-16.63-1.64c-5.56,2.3-9.43,7.01-10.59,12.93
			c-1.17,5.91,0.61,11.75,4.87,15.99l22.5,22.42c1.98,1.98,1.98,5.19,0.01,7.17c-1.98,1.99-5.18,1.99-7.17,0.02l-22.5-22.42
			c-6.71-6.68-9.5-15.85-7.66-25.15c1.84-9.29,7.92-16.69,16.67-20.32c8.75-3.63,18.28-2.67,26.15,2.58
			c7.87,5.28,12.37,13.74,12.36,23.2l-0.04,51.07C1464.87,623.13,1462.6,625.39,1459.8,625.39z"/>
		<path fill="#FED18C" d="M1475.26,625.37c-2.8,0-5.07-2.27-5.07-5.07v-51.06c-0.02-11.32,6.75-21.45,17.26-25.8
			c6.82-2.84,14.37-2.82,21.26,0.03c8.75,3.63,14.83,11.03,16.67,20.32c1.83,9.29-0.95,18.45-7.66,25.14l-22.37,22.29
			c-1.98,1.97-5.19,1.98-7.17-0.02c-1.97-1.98-1.97-5.19,0.02-7.17l22.36-22.28c4.26-4.25,6.04-10.08,4.86-15.99
			c-1.17-5.91-5.03-10.62-10.59-12.93c-4.39-1.82-9.18-1.83-13.49-0.03c-6.7,2.77-11.01,9.22-11,16.42v51.07
			C1480.33,623.1,1478.06,625.37,1475.26,625.37z"/>
		<path fill="#DD553E" d="M1459.77,670.41c-0.55,0-1.11-0.09-1.66-0.28c-11.63-4.02-19.44-14.99-19.44-27.29
			c0-12.31,7.82-23.29,19.47-27.31c2.63-0.91,5.53,0.49,6.45,3.14c0.91,2.64-0.49,5.53-3.14,6.45c-7.56,2.61-12.64,9.74-12.64,17.72
			c0,7.98,5.07,15.1,12.62,17.72c2.64,0.91,4.04,3.8,3.12,6.45C1463.84,669.1,1461.87,670.41,1459.77,670.41z"/>
		<path fill="#DD553E" d="M1475.26,670.45c-2.1,0-4.07-1.32-4.79-3.42c-0.91-2.65,0.5-5.53,3.15-6.44
			c7.59-2.61,12.69-9.74,12.69-17.75c0-8.01-5.1-15.14-12.69-17.75c-2.64-0.91-4.06-3.79-3.15-6.44c0.91-2.64,3.8-4.06,6.44-3.15
			c11.68,4.01,19.53,14.99,19.53,27.33c0,12.34-7.85,23.33-19.53,27.33C1476.37,670.36,1475.81,670.45,1475.26,670.45z"/>
	</g>
	<g>
		<path fill="#FED18C" d="M1142.9,433.82c-10.94,0-21.34-6.49-25.79-17.22c-2.91-7.02-2.86-14.72,0.13-21.65
			c2.88-6.64,8.31-12.02,14.91-14.76c3.37-1.4,6.96-2.1,10.68-2.1c0.02,0,0.03,0,0.06,0l31.64,0.06c2.8,0.01,5.06,2.28,5.06,5.08
			c-0.01,2.79-2.28,5.06-5.07,5.06c-0.01,0-0.01,0-0.01,0l-31.64-0.06c-0.01,0-0.02,0-0.03,0c-2.38,0-4.67,0.45-6.79,1.33
			c-4.2,1.74-7.66,5.17-9.49,9.42c-1.9,4.39-1.93,9.28-0.08,13.75c3.75,9.05,14.14,13.33,23.15,9.62c2.14-0.89,4.08-2.2,5.77-3.9
			l22.26-22.34c1.98-1.99,5.2-1.99,7.17-0.02c1.98,1.98,1.99,5.18,0.02,7.17l-22.26,22.35c-2.64,2.65-5.69,4.7-9.07,6.1
			C1150.04,433.13,1146.44,433.82,1142.9,433.82z"/>
		<path fill="#FED18C" d="M1290.14,372.84c-0.09,0-0.18,0-0.26,0l-31.37-0.26c-2.8-0.02-5.05-2.31-5.02-5.11
			c0.02-2.78,2.29-5.02,5.07-5.02c0.01,0,0.03,0,0.04,0l31.37,0.26c0.06,0,0.11,0,0.17,0c2.34,0,4.58-0.43,6.67-1.28
			c4.37-1.78,7.79-5.16,9.63-9.53c1.83-4.37,1.87-9.19,0.09-13.57c-1.79-4.39-5.17-7.82-9.54-9.67c-4.36-1.85-9.17-1.87-13.54-0.11
			c-2.14,0.88-4.1,2.18-5.8,3.86l-22.37,22.15c-1.99,1.96-5.2,1.95-7.17-0.04c-1.97-1.99-1.96-5.2,0.04-7.17l22.37-22.15
			c2.66-2.63,5.72-4.66,9.11-6.04c6.89-2.8,14.46-2.74,21.32,0.17c6.85,2.9,12.18,8.29,14.97,15.18c2.8,6.89,2.75,14.46-0.13,21.32
			c-2.89,6.86-8.28,12.19-15.16,14.98C1297.31,372.16,1293.78,372.84,1290.14,372.84z"/>
		<path fill="#FED18C" d="M1142.83,372.8c-9.44,0-17.87-4.5-23.13-12.36c-5.27-7.86-6.21-17.4-2.59-26.15
			c2.85-6.88,8.18-12.23,15.01-15.05c10.51-4.35,22.47-1.97,30.46,6.05l22.42,22.49c1.97,1.98,1.97,5.2-0.01,7.17
			c-1.98,1.98-5.19,1.97-7.17-0.01l-22.42-22.5c-5.09-5.11-12.71-6.61-19.39-3.84c-4.32,1.79-7.71,5.19-9.52,9.56
			c-2.3,5.57-1.7,11.63,1.65,16.63c3.34,5,8.71,7.86,14.71,7.86c0.01,0,0.03,0,0.04,0l31.7-0.06c0.01,0,0.01,0,0.01,0
			c2.79,0,5.06,2.26,5.07,5.06c0.01,2.8-2.26,5.07-5.06,5.08l-31.7,0.06C1142.88,372.8,1142.85,372.8,1142.83,372.8z"/>
		<path fill="#FED18C" d="M1208.69,403.02c-0.55,0-1.11-0.09-1.66-0.28c-11.63-4.02-19.44-14.99-19.44-27.29
			c0-12.31,7.82-23.29,19.47-27.31c2.63-0.91,5.53,0.49,6.45,3.14c0.91,2.64-0.49,5.53-3.14,6.45c-7.56,2.61-12.64,9.74-12.64,17.72
			c0,7.98,5.07,15.1,12.62,17.72c2.64,0.91,4.04,3.8,3.12,6.45C1212.75,401.71,1210.79,403.02,1208.69,403.02z"/>
		<path fill="#FED18C" d="M1224.18,403.06c-2.1,0-4.07-1.32-4.79-3.42c-0.91-2.65,0.5-5.53,3.15-6.44
			c7.59-2.61,12.69-9.74,12.69-17.75s-5.1-15.14-12.69-17.75c-2.64-0.91-4.06-3.79-3.15-6.44c0.91-2.64,3.8-4.06,6.44-3.15
			c11.68,4.01,19.53,14.99,19.53,27.33c0,12.34-7.85,23.33-19.53,27.33C1225.28,402.98,1224.73,403.06,1224.18,403.06z"/>
		<path fill="#FED18C" d="M1290.06,433.8c-7.26,0-14.36-2.84-19.7-8.21l-22.07-22.14c-1.97-1.98-1.97-5.2,0.01-7.17
			c1.99-1.98,5.2-1.97,7.17,0.01l22.07,22.14c5.09,5.11,12.68,6.62,19.39,3.85c4.32-1.79,7.7-5.18,9.52-9.56
			c2.31-5.57,1.71-11.63-1.64-16.63c-3.34-5-8.71-7.86-14.72-7.86c-0.01,0-0.03,0-0.04,0l-31.29,0.06c-0.01,0-0.01,0-0.01,0
			c-2.79,0-5.06-2.26-5.07-5.06c-0.01-2.8,2.26-5.07,5.06-5.08l31.29-0.06c0.02,0,0.04,0,0.07,0c9.45,0,17.88,4.5,23.13,12.36
			c5.27,7.86,6.21,17.39,2.58,26.15c-2.85,6.88-8.18,12.23-15,15.05C1297.33,433.1,1293.67,433.8,1290.06,433.8z"/>
		<path fill="#FED18C" d="M1246.87,476.97c-5.38,0-10.69-1.6-15.4-4.75c-7.87-5.28-12.38-13.74-12.36-23.21v-51.02
			c0-2.8,2.27-5.07,5.07-5.07c2.8,0,5.07,2.27,5.07,5.07v51.03c-0.01,6.03,2.85,11.42,7.86,14.77c5,3.34,11.07,3.95,16.63,1.64
			c5.56-2.3,9.43-7.01,10.59-12.93c1.17-5.91-0.61-11.74-4.88-15.99l-22.14-22.06c-1.98-1.98-1.99-5.18-0.02-7.17
			c1.98-1.99,5.2-1.99,7.17-0.02l22.14,22.06c6.71,6.69,9.5,15.86,7.67,25.15c-1.84,9.29-7.92,16.69-16.67,20.32
			C1254.11,476.25,1250.48,476.97,1246.87,476.97z"/>
		<path fill="#FED18C" d="M1186.01,476.94c-3.61,0-7.23-0.71-10.69-2.14c-8.75-3.63-14.83-11.04-16.67-20.32
			c-1.84-9.29,0.95-18.46,7.66-25.14l22.28-22.2c1.98-1.98,5.19-1.97,7.17,0.02c1.97,1.98,1.97,5.19-0.02,7.17l-22.28,22.2
			c-4.26,4.25-6.04,10.07-4.86,15.98c1.17,5.91,5.03,10.62,10.6,12.93c4.37,1.81,9.17,1.81,13.49,0.03
			c6.69-2.78,11.01-9.23,11-16.43l-0.07-51.07c-0.01-2.8,2.26-5.07,5.06-5.07h0.01c2.8,0,5.06,2.26,5.07,5.06l0.07,51.07
			c0.02,11.32-6.75,21.45-17.25,25.81C1193.17,476.24,1189.59,476.94,1186.01,476.94z"/>
		<path fill="#DD553E" d="M1208.72,358.01C1208.72,358.01,1208.72,358.01,1208.72,358.01c-2.8,0-5.07-2.28-5.07-5.07l0.04-51.07
			c0.01-6.03-2.86-11.41-7.86-14.77c-5-3.34-11.07-3.95-16.63-1.64c-5.56,2.3-9.43,7.01-10.59,12.93
			c-1.17,5.91,0.61,11.75,4.87,15.99l22.5,22.42c1.98,1.98,1.98,5.19,0.01,7.17c-1.98,1.99-5.18,1.99-7.17,0.02l-22.5-22.42
			c-6.71-6.68-9.5-15.85-7.66-25.15c1.84-9.29,7.92-16.69,16.67-20.32c8.75-3.63,18.28-2.67,26.15,2.58
			c7.87,5.28,12.37,13.74,12.36,23.2l-0.04,51.07C1213.79,355.74,1211.52,358.01,1208.72,358.01z"/>
		<path fill="#FED18C" d="M1224.18,357.98c-2.8,0-5.07-2.27-5.07-5.07v-51.06c-0.02-11.32,6.75-21.45,17.26-25.8
			c6.82-2.84,14.37-2.82,21.26,0.03c8.75,3.63,14.83,11.03,16.67,20.32c1.83,9.29-0.95,18.45-7.66,25.14l-22.37,22.29
			c-1.98,1.97-5.19,1.98-7.17-0.02c-1.97-1.98-1.97-5.19,0.02-7.17l22.36-22.28c4.26-4.25,6.04-10.08,4.86-15.99
			c-1.17-5.91-5.03-10.62-10.59-12.93c-4.39-1.82-9.18-1.83-13.49-0.03c-6.7,2.77-11.01,9.22-11,16.42v51.07
			C1229.25,355.71,1226.98,357.98,1224.18,357.98z"/>
	</g>
</g>
</svg>
