<svg width="129" height="129" viewBox="0 0 129 129" fill="none" xmlns="http://www.w3.org/2000/svg">
<rect width="128" height="128" transform="translate(0.0849609 0.714966)" fill="#E8DDF1"/>
<path d="M63.6104 102.238C44.8196 102.238 29.5332 86.9511 29.5332 68.1603C29.5332 49.3695 44.8196 34.0791 63.6104 34.0791C65.3459 34.078 67.079 34.2074 68.7951 34.4661C69.5411 33.0932 70.518 31.859 71.683 30.8176C74.6983 28.1094 78.8209 26.8162 82.9917 27.2641C91.9348 28.2273 97.7391 33.8211 97.436 41.1837C97.3777 42.6763 96.9583 44.1325 96.2138 45.4275C95.4693 46.7225 94.422 47.8177 93.1614 48.6191C91.9009 49.4206 90.4648 49.9044 88.9763 50.0292C87.4878 50.1539 85.9912 49.9159 84.6149 49.3354C84.5357 49.3014 84.4012 49.246 84.3157 49.2049C83.3114 48.73 81.5014 47.3442 80.5121 46.5631C78.5212 44.9964 76.3222 43.7141 73.9781 42.7531C74.319 44.4253 75.16 45.9543 76.3896 47.1376C76.4181 47.1653 76.4466 47.1938 76.4743 47.2231C76.7908 47.5531 78.5027 49.0584 79.9019 50.2638C79.9296 50.2875 79.9566 50.3113 79.9811 50.3358C84.1149 54.1425 86.8002 59.2654 87.5788 64.8308H94.3613C95.2429 64.8308 96.0883 65.181 96.7117 65.8043C97.3351 66.4277 97.6853 67.2732 97.6853 68.1548C97.6877 86.9511 82.4013 102.238 63.6104 102.238ZM63.6104 40.7358C48.4887 40.7358 36.1859 53.0385 36.1859 68.1603C36.1859 83.2821 48.4887 95.584 63.6104 95.584C77.606 95.584 89.187 85.0454 90.8355 71.4867H87.5827C85.9571 83.2631 75.8269 92.3605 63.6104 92.3605C50.2662 92.3605 39.4102 81.5045 39.4102 68.1603C39.4102 55.5711 49.2342 44.9715 61.7743 44.0289C62.21 43.9962 62.6478 44.0496 63.0628 44.186C63.4778 44.3225 63.8618 44.5394 64.193 44.8242C64.5242 45.1091 64.796 45.4565 64.993 45.8464C65.1899 46.2363 65.3081 46.6613 65.3409 47.0969C65.3736 47.5325 65.3202 47.9703 65.1838 48.3853C65.0473 48.8003 64.8305 49.1844 64.5456 49.5156C64.2607 49.8468 63.9133 50.1186 63.5234 50.3155C63.1335 50.5125 62.7086 50.6307 62.2729 50.6634C53.1842 51.3465 46.0637 59.032 46.0637 68.1603C46.0637 77.8355 53.9352 85.707 63.6104 85.707C72.1483 85.707 79.2807 79.5766 80.8406 71.4867H69.4227C68.5405 71.4867 67.6944 71.1362 67.0706 70.5124C66.4468 69.8886 66.0963 69.0425 66.0963 68.1603C66.0963 67.2781 66.4468 66.432 67.0706 65.8082C67.6944 65.1844 68.5405 64.8339 69.4227 64.8339H80.8366C80.1243 61.1629 78.2615 57.8141 75.5182 55.2727C74.745 54.6055 72.4364 52.608 71.7194 51.8822C70.269 50.4754 69.1174 48.7903 68.3336 46.928C67.5498 45.0656 67.1498 43.0642 67.1576 41.0437V40.9566C65.9811 40.808 64.7963 40.7343 63.6104 40.7358ZM87.1759 43.1892L87.2036 43.2011C87.5885 43.3629 88.0069 43.429 88.4229 43.3939C88.839 43.3587 89.2403 43.2233 89.5926 42.9992C89.9449 42.7751 90.2376 42.469 90.4458 42.1071C90.654 41.7451 90.7714 41.3382 90.788 40.921C90.9091 37.9642 88.7374 34.5714 82.2794 33.8773C79.9843 33.6296 77.7406 34.3189 76.1284 35.7664C75.9559 35.9216 75.7926 36.0833 75.6385 36.2516C78.8753 37.4777 81.906 39.1905 84.626 41.331C85.6263 42.1224 86.7826 42.9652 87.1759 43.1924V43.1892Z" fill="#512475"/>
</svg>
